<?xml version="1.0" encoding="UTF-8" standalone="no"?>
<!-- Created with Inkscape (http://www.inkscape.org/) -->

<svg
   width="470mm"
   height="200mm"
   viewBox="0 0 470 200"
   version="1.1"
   id="svg5"
   xml:space="preserve"
   inkscape:version="1.2.2 (b0a8486541, 2022-12-01)"
   sodipodi:docname="wave-action-logo.svg"
   xmlns:inkscape="http://www.inkscape.org/namespaces/inkscape"
   xmlns:sodipodi="http://sodipodi.sourceforge.net/DTD/sodipodi-0.dtd"
   xmlns="http://www.w3.org/2000/svg"
   xmlns:svg="http://www.w3.org/2000/svg"><sodipodi:namedview
     id="namedview7"
     pagecolor="#505050"
     bordercolor="#eeeeee"
     borderopacity="1"
     inkscape:showpageshadow="0"
     inkscape:pageopacity="0"
     inkscape:pagecheckerboard="0"
     inkscape:deskcolor="#505050"
     inkscape:document-units="mm"
     showgrid="false"
     inkscape:zoom="0.06322904"
     inkscape:cx="632.62071"
     inkscape:cy="308.40259"
     inkscape:window-width="1326"
     inkscape:window-height="666"
     inkscape:window-x="20"
     inkscape:window-y="54"
     inkscape:window-maximized="0"
     inkscape:current-layer="layer1" /><defs
     id="defs2"><rect
       x="905.11163"
       y="121.28134"
       width="2959.1316"
       height="792.48737"
       id="rect290" /></defs><g
     inkscape:label="Layer 1"
     inkscape:groupmode="layer"
     id="layer1"><g
       id="g1422"><path
         style="fill:#f1f5f9;fill-opacity:1;stroke-width:0.0980103"
         d="m 95.703753,198.06678 c -0.889437,-0.0416 -2.487585,-0.14871 -3.551438,-0.23815 l -1.934272,-0.16263 -0.661716,-0.68542 c -0.933224,-0.96665 -1.714865,-1.47269 -2.216413,-1.43494 -0.51821,0.039 -0.767881,0.37414 -0.829148,1.11295 l -0.04587,0.55278 -0.293345,-0.0587 c -0.161345,-0.0322 -0.393512,-0.0587 -0.515927,-0.0587 -0.197548,0 -0.301793,-0.20109 -0.927278,-1.78869 -0.994691,-2.52474 -1.552487,-3.51353 -3.027139,-5.36606 -0.86792,-1.09033 -3.005142,-3.25761 -3.639317,-3.69051 -0.622649,-0.42502 -0.846141,-0.48021 -0.974388,-0.2406 -0.140361,0.26229 0.01283,0.94867 0.50296,2.25353 0.522717,1.39165 0.654629,2.32398 0.434949,3.07423 -0.09075,0.30994 -0.218916,0.56339 -0.284798,0.56319 -0.153475,0 -0.54679,-0.25744 -1.344897,-0.87864 -0.350387,-0.27274 -0.854395,-0.56136 -1.120002,-0.64141 -0.429609,-0.12946 -0.508075,-0.12905 -0.710575,0.004 -0.131795,0.0864 -0.227638,0.24659 -0.227638,0.38057 0,0.30864 0.59207,1.47135 1.601722,3.14543 0.45515,0.75467 0.82118,1.37955 0.813398,1.38862 -0.0079,0.009 -0.219211,-0.0305 -0.469833,-0.0879 l -0.455668,-0.10427 -1.182327,-1.97434 c -1.434665,-2.39573 -2.008652,-3.5836 -2.310523,-4.78162 -0.339186,-1.34608 -0.393041,-2.1421 -0.204107,-3.01649 0.42504,-1.96716 0.380623,-2.33045 -0.377261,-3.08566 -0.623551,-0.62137 -1.417346,-1.03078 -1.998566,-1.03078 -0.572056,0 -0.788198,0.13284 -1.009603,0.62047 -0.25521,0.5621 -0.23599,1.23906 0.06763,2.38079 0.60688,2.28231 0.727491,3.1345 0.510908,3.60982 -0.240625,0.52813 -0.47045,0.21393 -0.472978,-0.64663 -0.002,-0.75256 -0.353337,-1.71095 -0.807281,-2.20342 -0.703351,-0.76304 -2.581158,-1.50679 -3.804336,-1.50679 -0.644859,0 -1.273311,0.21612 -1.732948,0.59594 -0.255691,0.2113 -0.519985,0.38417 -0.587337,0.38417 -0.125738,0 -0.199147,-0.21909 -0.24631,-0.73508 -0.02598,-0.28451 -0.04205,-0.29351 -0.495206,-0.27793 l -0.468333,0.016 0.309076,-0.35202 c 0.429088,-0.48871 0.606996,-0.96028 0.600381,-1.5914 -0.01264,-1.20907 -0.877632,-2.22035 -2.06097,-2.40958 -1.389294,-0.22215 -2.664986,1.47271 -2.662007,3.53669 6.87e-4,0.47538 0.06126,0.81899 0.197344,1.11888 0.342683,0.75533 2.731869,3.03845 3.523734,3.36729 0.134763,0.0559 1.038908,0.13161 2.00921,0.1681 2.079895,0.0782 2.118363,0.0918 3.185332,1.12599 0.95761,0.92821 1.757657,1.56324 2.343299,1.86002 0.685826,0.34753 1.459813,1.09773 2.459753,2.38416 0.484435,0.62323 0.865861,1.14808 0.847602,1.16633 -0.05037,0.0503 -3.645638,-1.15338 -5.415204,-1.81309 -20.425787,-7.61494 -37.634133,-21.71068 -49.152895,-40.26217 -0.906301,-1.45963 -0.946239,-1.60005 -0.456395,-1.60436 0.354023,-0.003 2.134065,-0.63784 4.323722,-1.54175 1.24776,-0.51507 2.91654,-1.16613 3.708404,-1.44678 2.08759,-0.73988 2.553815,-1.05439 5.330111,-3.59564 1.682915,-1.54042 2.921951,-2.58964 3.279805,-2.77735 0.381741,-0.20023 1.654659,-0.43617 3.180816,-0.58957 1.817041,-0.18263 2.241465,-0.2816 3.108022,-0.72478 0.786551,-0.40224 2.516874,-1.528 3.459556,-2.25082 1.243231,-0.95326 2.912825,-2.50159 4.674824,-4.33527 1.007889,-1.0489 2.352128,-2.36872 2.987207,-2.93293 2.932004,-2.60483 3.958114,-3.73031 7.29696,-8.00366 2.785265,-3.56484 2.80178,-3.58218 3.662957,-3.8472 0.826078,-0.25423 2.507317,-0.45616 3.007435,-0.3612 0.35165,0.0668 0.556697,0.20717 2.370318,1.62323 1.043673,0.8149 2.437917,1.52582 4.031231,2.0555 1.618531,0.53807 2.819264,0.76595 4.998522,0.94862 1.024207,0.0859 1.95358,0.17321 2.065282,0.19415 0.127267,0.0239 0.754081,0.76338 1.679034,1.98099 4.091329,5.3858 8.64702,10.01998 12.076055,12.28408 2.24668,1.48343 5.891124,3.20845 8.339157,3.94714 1.20281,0.36294 2.15437,0.54567 3.33684,0.64071 0.6154,0.0496 1.16585,0.14879 1.34871,0.24336 0.16994,0.0879 0.49577,0.41262 0.72407,0.72168 1.49827,2.02813 5.49971,5.6631 7.08667,6.43764 0.76746,0.37457 0.67723,0.36359 7.3426,0.89323 1.7205,0.13672 3.44057,0.28919 3.82241,0.33882 1.14735,0.14915 1.83932,0.11314 2.71698,-0.14136 2.13421,-0.61889 8.96049,-3.72349 10.66958,-4.85255 0.40429,-0.26708 1.19817,-0.95585 1.76418,-1.53061 0.56602,-0.57475 1.66862,-1.55751 2.45025,-2.18392 1.91518,-1.53483 2.80517,-2.33752 5.34156,-4.81757 2.41752,-2.36383 2.6953,-2.55483 3.81592,-2.62371 0.9254,-0.0568 1.0688,0.0487 2.63588,1.93901 3.69573,4.4583 7.49074,8.0522 11.73488,11.11306 l 1.87953,1.35552 3.29629,-0.85812 c 9.66556,-2.51617 16.59998,-4.59407 18.42295,-5.52044 l 0.58787,-0.29873 -0.28978,0.65598 c -0.15938,0.36079 -0.74342,1.53595 -1.29784,2.61149 l -1.00806,1.95549 -1.51189,0.2145 c -0.83154,0.11797 -2.54836,0.3714 -3.81515,0.56318 -1.26678,0.19178 -2.85454,0.39778 -3.52836,0.45779 -2.35395,0.20963 -3.03832,0.33989 -3.03832,0.57833 0,0.49392 9.60765,-0.0599 11.12232,-0.64111 0.0846,-0.0324 -0.0271,0.24817 -0.26996,0.67864 l -0.41427,0.73403 -0.49046,0.0577 c -0.26976,0.0317 -1.30621,0.23324 -2.30325,0.44778 -0.99703,0.21454 -2.3161,0.45571 -2.93129,0.53593 -1.76691,0.23041 -1.83262,0.58982 -0.13737,0.75138 1.46298,0.13942 3.25771,-0.085 4.68101,-0.5852 l 0.54301,-0.19085 -0.1131,0.21287 c -0.44193,0.83165 -2.58524,4.11705 -3.99137,6.11817 -0.78201,1.11291 -0.87133,1.20539 -1.2204,1.2636 -0.81161,0.13538 -1.55945,1.24489 -1.12914,1.67523 0.11901,0.11901 -0.0843,0.40163 -1.81575,2.52507 -0.71578,0.8778 -2.40082,2.85232 -2.96032,3.46892 -0.1054,0.11615 -0.18725,0.10717 -0.54742,-0.0601 -0.68749,-0.31919 -1.16507,-0.44689 -1.69198,-0.45247 -1.37664,-0.0145 -1.24119,0.85941 0.26303,1.69739 l 0.5627,0.31346 -1.04134,1.11301 c -0.9681,1.03472 -4.55628,4.47735 -5.14873,4.93987 l -0.26216,0.20467 -1.46967,-0.49081 c -2.79435,-0.93319 -5.74122,-1.55592 -7.76579,-1.64104 -1.9146,-0.0805 -2.0712,0.11948 -0.93823,1.19811 1.20492,1.14713 3.79582,2.885 5.6256,3.77339 0.38859,0.18867 0.69651,0.37155 0.68424,0.40639 -0.0196,0.0556 -1.1952,0.9897 -2.24783,1.7859 l -0.36335,0.27484 -3.90009,-1.29583 c -6.8489,-2.27557 -8.91264,-3.20956 -12.81074,-5.79785 -3.44218,-2.28553 -5.35913,-3.93518 -7.63729,-6.57233 -2.08546,-2.41407 -5.38201,-5.05593 -7.7515,-6.21205 -1.13302,-0.55283 -1.63125,-0.58096 -1.9194,-0.10839 -0.37998,0.62323 -0.20236,2.101 0.40656,3.38236 0.4082,0.85901 1.22844,1.84477 3.26991,3.92983 2.95245,3.01547 5.79212,5.59747 9.08879,8.26404 1.06372,0.86042 1.96169,1.60914 1.99549,1.66384 0.0854,0.13805 -0.30587,-0.071 -2.55739,-1.36677 -1.07811,-0.62046 -2.33597,-1.38387 -2.79526,-1.6965 -2.76847,-1.88454 -7.70725,-6.3005 -14.35743,-12.8376 -5.47781,-5.38467 -6.42052,-6.15046 -7.05752,-5.73308 -0.13384,0.0877 -0.24335,0.24884 -0.24335,0.35808 0,0.66333 1.51616,2.53812 2.85562,3.5311 0.66881,0.49582 0.80462,0.66995 0.7116,0.91239 -0.0998,0.26002 0.28443,0.79028 1.42117,1.96134 0.65222,0.67191 0.99094,1.07713 0.79421,0.9501 -0.59633,-0.38505 -1.36278,-0.71231 -1.59203,-0.67976 -0.19254,0.0274 -0.22965,0.10748 -0.28684,0.61947 -0.0361,0.32343 -0.11333,0.71221 -0.17152,0.86396 -0.2827,0.73707 -0.0154,2.23939 0.6689,3.75904 0.58648,1.30248 0.542,1.38264 -0.3531,0.63668 -1.00159,-0.83472 -2.84421,-2.83678 -5.0663,-5.50471 -2.59711,-3.11821 -3.85317,-4.55458 -5.01838,-5.73878 -1.12917,-1.14759 -1.51914,-1.43897 -1.87169,-1.39855 -0.25996,0.0297 -0.27437,0.0564 -0.25571,0.47263 0.0152,0.3415 0.24207,0.87935 1.00462,2.38293 0.59243,1.16819 0.98481,2.05817 0.98481,2.23371 0,0.1605 -0.0964,0.42221 -0.21426,0.5816 -0.14532,0.19656 -0.22779,0.47716 -0.25638,0.87219 -0.089,1.23201 0.68951,2.79471 2.0113,4.03666 0.61306,0.57605 0.9375,0.77076 2.88292,1.7302 4.82336,2.37881 13.99323,6.41233 24.34243,10.70742 9.01038,3.73948 12.29286,4.84125 16.54689,5.55396 l 0.47321,0.0793 -0.52563,0.31771 -0.52565,0.31774 -1.66274,-0.29727 c -0.91452,-0.1635 -3.80183,-0.69152 -6.41626,-1.17338 -8.17835,-1.50737 -8.8402,-1.5584 -9.49054,-0.73162 -0.34229,0.43515 -0.28556,0.91769 0.17664,1.50241 1.25817,1.59172 5.30779,3.87251 8.3828,4.72129 0.43125,0.11903 0.85024,0.23771 0.9311,0.26372 0.0825,0.0266 -0.33692,0.27686 -0.95469,0.56991 l -1.1017,0.52259 -0.63882,-0.0904 c -1.14133,-0.16162 -4.3207,-1.31773 -5.92969,-2.15617 -1.52583,-0.79513 -3.89372,-2.84853 -5.10214,-4.42451 -0.34248,-0.44666 -0.98592,-1.17033 -1.42984,-1.60816 -1.93285,-1.90632 -7.25974,-5.51163 -7.82373,-5.29521 -0.13942,0.0535 -0.13844,0.0948 0.0104,0.42896 0.0904,0.20337 0.42542,1.16365 0.7443,2.13395 1.36291,4.14709 1.83456,5.26503 2.89056,6.85126 1.55297,2.33278 3.20063,3.50582 7.93787,5.65134 0.766,0.34692 1.35203,0.64492 1.30229,0.66221 -0.37575,0.1307 -3.35771,-1.01859 -5.61759,-2.16509 -2.38736,-1.21117 -3.41363,-1.93538 -5.02283,-3.54445 -2.95987,-2.95971 -4.95129,-6.38137 -5.61823,-9.65334 -0.34297,-1.68258 -0.82192,-2.4924 -1.72195,-2.91152 -0.27174,-0.12653 -0.66197,-0.23049 -0.8672,-0.23102 -0.81108,-0.002 -1.24892,-0.19722 -1.90898,-0.85083 -0.73444,-0.72723 -1.04736,-0.85274 -1.31179,-0.52619 -0.34212,0.4225 -0.18966,1.26639 0.31057,1.7191 0.23103,0.20909 0.53845,0.73508 0.42963,0.73508 -0.12278,0 -1.11731,-0.89842 -3.0042,-2.71383 -3.02315,-2.90863 -3.77622,-3.34611 -3.06755,-1.78198 0.3497,0.7718 0.44554,1.71977 0.54864,5.42691 0.0596,2.14236 0.14261,3.57734 0.23248,4.01841 0.33805,1.65894 1.06222,3.10767 2.37609,4.75351 0.84429,1.0576 3.20878,3.42792 4.98416,4.99643 1.78569,1.5776 1.79836,1.59141 0.90106,0.98072 -1.99818,-1.35992 -6.44669,-5.53936 -8.42164,-7.91224 -2.34704,-2.81994 -3.43469,-6.15286 -4.00085,-12.25993 -0.21848,-2.35641 -0.2945,-2.75418 -0.68694,-3.59384 -0.55055,-1.17796 -2.08434,-3.25576 -2.995192,-4.05751 -0.503425,-0.44313 -0.72309,-0.50515 -0.72309,-0.20413 0,0.53888 1.304232,4.06687 1.869712,5.05764 0.157582,0.27609 0.286518,0.55288 0.286518,0.61508 0,0.1789 -0.501218,-0.12051 -1.348065,-0.80531 -1.011283,-0.81775 -1.346805,-1.04682 -1.533256,-1.04682 -0.349203,0 -1.137097,1.49485 -1.137097,2.15737 0,0.21963 0.06846,0.32329 0.289167,0.43737 0.159038,0.0823 0.404511,0.14954 0.545495,0.14954 0.291246,0 0.635484,0.15865 0.635484,0.29288 0,0.13635 -0.670925,0.29403 -1.253751,0.29464 -0.739786,9.8e-4 -1.918877,0.26464 -2.63645,0.59001 -0.816602,0.37026 -1.635252,1.14742 -1.839202,1.74597 -0.286179,0.83991 -0.386111,2.13085 -0.264274,3.41418 0.145526,1.53279 0.399078,2.48896 0.985649,3.71687 0.907937,1.90071 1.929861,3.29478 4.105471,5.60057 0.82755,0.87708 1.466728,1.59468 1.420363,1.59468 -0.155236,0 -1.92504,-1.59479 -3.312654,-2.98509 -0.755542,-0.757 -1.735801,-1.85923 -2.178337,-2.4494 -0.814975,-1.08685 -1.805936,-2.91002 -2.186922,-4.0235 -0.349897,-1.02261 -0.411251,-2.93655 -0.282417,-8.81095 0.06371,-2.90543 0.08723,-5.56166 0.05233,-5.90273 -0.273027,-2.66494 -2.305837,-6.04396 -4.195749,-6.97437 -0.352201,-0.17339 -0.703571,-0.31525 -0.780823,-0.31525 -0.228677,0 -0.791942,0.4658 -1.077567,0.89109 -0.437421,0.65128 -0.504438,1.22844 -0.324513,2.7944 0.198874,1.73093 0.963231,6.28738 1.262113,7.52368 0.12553,0.51927 0.190855,0.94411 0.145162,0.94411 -0.04567,0 -0.362237,-0.23683 -0.70344,-0.52628 -2.177419,-1.84716 -3.198029,-1.9949 -4.422343,-0.64018 -0.70977,0.7854 -1.067626,1.6133 -1.071683,2.4794 -0.004,0.86393 0.183896,1.44338 0.925196,2.85249 0.669205,1.27207 0.968185,2.04222 1.322306,3.40611 0.450985,1.73699 0.804665,2.33479 2.681708,4.53273 1.16608,1.36544 1.949481,2.3953 2.218029,2.91587 0.506429,0.98166 4.269542,4.8915 5.251144,5.45588 0.288797,0.16606 0.899979,0.41698 1.358177,0.55762 1.362852,0.41834 1.553325,0.55908 3.131358,2.31381 0.728262,0.80982 2.881941,2.0647 7.355733,4.28598 4.53316,2.25076 6.48336,3.04939 8.3277,3.41034 l 0.92792,0.18159 -1.663,0.16779 c -5.20791,0.52544 -10.09724,0.67458 -14.845371,0.45282 z m -4.90051,-2.08451 c 0,-0.42466 -0.683552,-1.98146 -1.241858,-2.82833 -0.488699,-0.74129 -0.945759,-1.14125 -1.711612,-1.49776 -0.637125,-0.2966 -0.716867,-0.30078 -0.96694,-0.0506 -0.517611,0.5176 -0.06361,1.2091 1.215779,1.85183 0.810711,0.40728 1.466291,0.93148 1.751707,1.40069 0.575379,0.94587 0.788972,1.25594 0.865137,1.25594 0.04831,0 0.08781,-0.0593 0.08781,-0.13166 z M 65.558442,181.89875 c 0.589022,-0.0558 1.219708,-0.17217 1.401536,-0.25844 0.689219,-0.32706 0.972438,-1.55029 0.671811,-2.90155 -0.09066,-0.40749 -0.228364,-0.79363 -0.306027,-0.85808 -0.363608,-0.30176 -1.91215,0.29334 -2.595468,0.99746 -0.501077,0.51631 -0.916572,1.31884 -1.13686,2.19579 -0.159629,0.6355 -0.159032,0.66658 0.01519,0.79397 0.217641,0.15915 0.542672,0.16428 1.949855,0.0308 z m 12.753172,-17.81759 c 0.390963,-1.34931 0.933607,-2.04703 1.967153,-2.52934 0.543163,-0.25346 1.078407,-0.31989 1.581131,-0.19626 0.454366,0.11174 0.493639,-0.0913 0.193688,-1.00175 -0.429588,-1.30391 -1.35851,-2.65989 -1.822177,-2.65989 -0.301304,0 -2.257951,1.92013 -2.616894,2.56804 l -0.287679,0.51929 0.0069,1.96019 c 0.0059,1.81369 0.15954,3.28131 0.404498,3.87141 0.03362,0.0809 0.140135,-0.33068 0.236822,-0.91452 0.09664,-0.58384 0.24823,-1.31158 0.336773,-1.61717 z m 73.748026,-6.47626 c -0.0809,-0.0457 -0.61012,-0.11362 -1.17612,-0.15098 -6.97793,-0.46055 -13.97287,-1.59554 -19.07845,-3.09564 -5.13506,-1.50876 -10.11664,-2.5739 -11.24595,-2.40455 -0.53472,0.0802 -1.03888,0.39062 -1.03888,0.6397 0,0.38781 0.93913,0.66948 4.06743,1.21994 2.25858,0.39743 3.62793,0.76819 5.30714,1.43694 1.42136,0.56608 2.51146,0.88713 4.11852,1.21297 1.41465,0.28684 4.21875,0.68579 5.86394,0.83428 0.64687,0.0584 1.37459,0.13324 1.61716,0.16633 0.24258,0.0331 2.75654,0.0901 5.5866,0.12665 2.83003,0.0365 5.36606,0.0734 5.63558,0.082 0.31126,0.01 0.4364,-0.0148 0.34303,-0.0676 z m 16.56374,-2.30223 c 2.91998,-0.44704 11.06483,-2.85032 10.41236,-3.07238 -0.068,-0.0232 -0.55321,0.0284 -1.07811,0.11448 -1.31014,0.21493 -4.71204,0.62067 -11.53949,1.37624 -7.6465,0.84625 -8.5759,0.98471 -8.5759,1.27763 0,0.16801 0.57366,0.33581 1.51917,0.44441 1.23166,0.14147 8.10096,0.0373 9.26197,-0.14038 z m -31.18188,-4.1629 1.50455,-0.0616 0.4846,-1.32313 c 0.60464,-1.65089 0.96578,-2.8713 0.96578,-3.26366 v -0.30139 l -0.3031,0.28786 c -0.16671,0.15833 -0.84955,1.11175 -1.51742,2.1187 -0.66788,1.00695 -1.26592,1.86272 -1.329,1.9017 -0.0846,0.0522 -0.0967,-0.0414 -0.0464,-0.35655 0.11235,-0.7026 0.51745,-1.79761 1.1057,-2.98887 0.30488,-0.61738 0.52689,-1.14995 0.49338,-1.18347 -0.12549,-0.12547 -0.36058,0.0662 -0.75919,0.61889 -0.64922,0.90019 -1.17876,1.27138 -2.34854,1.64625 -1.22073,0.39119 -2.05527,0.92281 -3.18533,2.02908 l -1.07812,1.05545 2.25424,-0.0589 c 1.23984,-0.0323 2.93128,-0.0866 3.75878,-0.12043 z m 7.02235,0.0846 c 1.68425,-0.0821 4.24221,-0.32674 4.31276,-0.41259 0.0257,-0.0311 -0.0815,-1.03149 -0.30174,-2.81926 -0.17097,-1.38738 -0.40783,-2.05971 -0.72561,-2.05971 -0.32577,0 -0.61353,0.24056 -1.47119,1.22981 -0.44175,0.50952 -0.84323,0.92641 -0.89216,0.92641 -0.0489,0 -0.0889,-0.52266 -0.0889,-1.16149 0,-1.18634 -0.11455,-1.77881 -0.34392,-1.77881 -0.18494,0 -0.54985,0.46765 -0.8228,1.05451 -0.12958,0.2786 -0.26859,0.48619 -0.30888,0.46127 -0.0403,-0.0249 -0.10402,-0.31006 -0.14157,-0.63369 -0.0375,-0.32364 -0.10191,-0.60919 -0.14298,-0.63457 -0.0411,-0.0254 -0.15802,0.13967 -0.25989,0.36681 -0.28021,0.62489 -0.68667,1.03428 -1.14974,1.15806 -0.50504,0.13502 -0.6183,0.22636 -0.85433,0.689 -0.15308,0.30007 -1.07243,3.42891 -1.07243,3.64982 0,0.0915 1.99527,0.0749 4.26345,-0.0355 z m -13.66712,-0.37688 c 0.62573,-0.4019 2.07481,-1.79237 2.29606,-2.2032 0.18336,-0.34048 0.18352,-0.35455 0.006,-0.55034 -0.41909,-0.46308 -1.39444,-0.0821 -2.89575,1.13122 -1.21431,0.98132 -1.58424,1.1482 -2.35276,1.06124 -0.42371,-0.048 -0.58755,-0.0342 -0.58755,0.0491 0,0.15848 0.57106,0.38361 1.51366,0.5967 1.15307,0.26069 1.5051,0.2459 2.02001,-0.0848 z m 22.63506,-0.31684 c 1.83548,-0.21183 2.81322,-0.4116 3.0193,-0.61691 0.17808,-0.17739 -0.11101,-0.91458 -0.7148,-1.82281 -0.5308,-0.79843 -0.67358,-0.90555 -1.43863,-1.07927 -0.64788,-0.14711 -0.86529,-0.0928 -0.86737,0.21671 -9.8e-4,0.12299 -0.0429,0.28902 -0.0934,0.36901 -0.0725,0.11474 -0.12427,0.0679 -0.24518,-0.22135 -0.0844,-0.20171 -0.12795,-0.46754 -0.097,-0.59075 0.0375,-0.14957 -0.006,-0.28036 -0.1313,-0.39368 -0.28552,-0.2584 -0.41381,-0.022 -0.50613,0.93293 -0.0433,0.44743 -0.11056,0.89069 -0.14958,0.98502 -0.10228,0.24731 -0.33028,0.21087 -0.45985,-0.0735 -0.16805,-0.36883 -0.35893,-0.29691 -0.57987,0.21852 -0.10927,0.25493 -0.21735,0.48219 -0.24016,0.50501 -0.0229,0.0229 -0.13351,-0.0755 -0.24598,-0.21852 -0.48111,-0.61161 -0.64935,-0.0386 -0.28938,0.98559 0.26512,0.75431 0.63972,1.14025 1.03019,1.06136 0.16172,-0.0326 1.06587,-0.14848 2.00922,-0.25736 z m 5.63943,-0.77862 c 0.0787,-0.0654 0.14317,-0.24691 0.14317,-0.40345 0,-0.53587 -1.36007,-1.594 -1.82135,-1.41699 -0.13792,0.0529 -0.15698,0.15772 -0.11367,0.62507 0.0678,0.73188 0.24424,1.09741 0.60951,1.26288 0.33136,0.15008 0.96364,0.11399 1.18234,-0.0676 z m -5.10839,-3.29064 c 0.20978,-0.0805 0.19683,-0.49931 -0.019,-0.61483 -0.24301,-0.13006 -0.51202,0.0423 -0.51202,0.32799 0,0.28894 0.21827,0.40686 0.53104,0.28684 z m -1.32081,-1.74687 c 0.0641,-0.0771 0.10247,-0.30864 0.0855,-0.51456 -0.0255,-0.3092 -0.0715,-0.38014 -0.26476,-0.40745 -0.12867,-0.0182 -0.27132,0.0259 -0.31703,0.098 -0.13446,0.2121 -0.0982,0.64399 0.0679,0.81015 0.19049,0.19049 0.27939,0.19336 0.42836,0.0138 z m -7.72546,-0.64419 c 0.21548,-0.71923 -0.23237,-1.20339 -0.54821,-0.59265 -0.17548,0.33936 -0.18732,0.53521 -0.0481,0.7954 0.17769,0.332 0.46538,0.23417 0.59628,-0.20275 z m 8.84749,-0.60311 c 0.0622,-0.17742 0.0521,-0.35468 -0.0314,-0.55651 -0.32809,-0.79205 -0.90343,-0.19093 -0.59464,0.62126 0.12961,0.3409 0.4974,0.30287 0.62614,-0.0648 z m -30.75658,4.19864 c -0.16551,-0.12101 -0.16625,-0.13953 -0.0117,-0.29404 0.20449,-0.20449 0.57658,-0.21348 0.73894,-0.0178 0.27421,0.33041 -0.34103,0.59428 -0.72721,0.31191 z m -10.05392,-1.83106 c -0.24404,-0.24404 -0.24692,-0.40547 -0.0124,-0.695 0.33687,-0.41601 1.28662,-0.18642 1.28662,0.31103 0,0.24374 -0.46226,0.57999 -0.79731,0.57999 -0.15444,0 -0.36901,-0.0882 -0.47683,-0.19602 z m 64.88732,-1.02366 c -0.2647,-0.31893 0.17335,-0.70267 0.46696,-0.40905 0.12482,0.12482 0.13761,0.20141 0.0554,0.33193 -0.14312,0.22725 -0.36997,0.26075 -0.52237,0.0771 z m -57.49735,-2.4459 c -0.18327,-0.18328 -0.33323,-0.39988 -0.33323,-0.48134 0,-0.21022 0.56074,-0.65558 0.82541,-0.65558 0.51621,0 0.72304,0.72952 0.3436,1.2119 -0.26806,0.3408 -0.43497,0.32582 -0.83578,-0.0749 z m -7.52897,-0.0672 c -0.30603,-0.3637 -0.313,-0.47704 -0.0498,-0.81151 0.26604,-0.33822 0.79317,-0.35918 1.01643,-0.0404 0.19946,0.28476 0.19663,0.30285 -0.10303,0.65896 -0.42481,0.50486 -0.57316,0.53802 -0.8635,0.19297 z m -5.6436,-0.18766 c -0.25867,-0.25868 -0.24728,-0.4477 0.0446,-0.73953 0.26972,-0.26972 0.37977,-0.28746 0.82352,-0.13277 0.44525,0.15521 0.52271,0.53707 0.17043,0.84009 -0.32619,0.28057 -0.77617,0.29452 -1.03849,0.0322 z m 80.37872,-0.52665 c -0.16329,-0.19673 -0.0242,-0.46937 0.22168,-0.43413 0.24066,0.0344 0.33854,0.35945 0.14518,0.48199 -0.18166,0.11512 -0.23767,0.10782 -0.36686,-0.0479 z m -57.69917,-0.37132 c -0.0883,-0.1428 0.32904,-0.49314 0.5392,-0.45266 0.19972,0.0384 0.26412,0.37125 0.0928,0.47979 -0.19091,0.12099 -0.55,0.10558 -0.63203,-0.0272 z m 33.25163,-0.63752 c -0.12434,-0.12436 -0.0647,-0.43113 0.0958,-0.49273 0.19054,-0.0731 0.43893,0.21656 0.36065,0.42058 -0.0545,0.14202 -0.34131,0.18734 -0.4565,0.0721 z m -44.49665,-0.68608 c -0.16188,-0.16189 -0.0538,-0.61559 0.19291,-0.80963 0.33576,-0.26412 0.48651,-0.25626 0.67755,0.0352 0.12076,0.18429 0.13189,0.28395 0.0491,0.43879 -0.17401,0.32513 -0.72781,0.52721 -0.91949,0.33552 z m 14.26663,-1.02951 c -0.14797,-0.14796 -0.15811,-0.5365 -0.0162,-0.62414 0.1574,-0.0973 0.49651,0.2592 0.46369,0.48745 -0.0338,0.23503 -0.27529,0.3088 -0.44739,0.13669 z m -18.88792,-0.11703 c -0.12147,-0.0887 -0.152,-0.19097 -0.10313,-0.34494 0.0951,-0.29995 0.57762,-0.25687 0.62211,0.0555 0.0408,0.28652 -0.27903,0.46486 -0.51898,0.28941 z m 13.86692,-0.35627 c -0.21775,-0.21776 -0.25986,-0.68105 -0.0784,-0.8625 0.30731,-0.30732 0.96051,0.0126 0.96051,0.47046 0,0.18124 -0.0783,0.33773 -0.21783,0.43548 -0.28789,0.20165 -0.42837,0.19245 -0.66427,-0.0435 z m 11.96116,-0.33834 c -0.18838,-0.22697 -0.0837,-0.49475 0.19346,-0.49475 0.18227,0 0.25202,0.059 0.27676,0.23393 0.0489,0.34689 -0.25762,0.51698 -0.47022,0.26082 z m 50.05483,-0.55162 c -0.39766,-0.2316 -0.0435,-1.16827 0.44179,-1.16827 0.35811,0 0.58358,0.67304 0.36334,1.08456 -0.11119,0.20777 -0.51928,0.25021 -0.80513,0.0837 z m -17.1061,-0.27102 c -0.18014,-0.11428 -0.0404,-0.39863 0.22908,-0.46627 0.45845,-0.11506 0.62198,0.28718 0.1844,0.45354 -0.29699,0.11292 -0.25755,0.11171 -0.41348,0.0127 z m -63.66252,-0.37453 c -0.13622,-0.13624 -0.0574,-0.62862 0.13068,-0.81674 0.33804,-0.33804 0.78408,-0.22461 0.78408,0.19938 0,0.41704 -0.66576,0.86636 -0.91476,0.61736 z m 61.60271,-0.15028 c -0.17575,-0.17575 -0.14192,-0.61409 0.0617,-0.79828 0.24575,-0.22242 0.72191,-0.20354 1.03268,0.041 0.31901,0.25092 0.32124,0.33084 0.0176,0.63441 -0.26495,0.26494 -0.89981,0.33513 -1.11199,0.12295 z m -24.66031,-0.62968 c -0.0832,-0.21665 0.16858,-0.47573 0.38245,-0.39366 0.0995,0.0381 0.14944,0.1468 0.13011,0.28292 -0.0391,0.27523 -0.41801,0.3571 -0.51256,0.11074 z m 33.03692,-0.59217 c -0.15072,-0.15074 -0.0537,-0.4239 0.17056,-0.4802 0.44124,-0.11073 0.88975,0.33309 0.49116,0.48605 -0.20603,0.0791 -0.58012,0.0757 -0.66172,-0.006 z m 5.71726,-1.01278 c 0,-0.42409 0.13157,-0.48905 0.33554,-0.16568 0.074,0.11732 0.074,0.21403 0,0.33137 -0.20397,0.32335 -0.33554,0.2584 -0.33554,-0.16569 z m -69.56277,0.0258 c -0.29988,-0.10302 -0.0199,-0.88066 0.35051,-0.97363 0.45669,-0.11462 0.75966,0.30867 0.48627,0.67941 -0.13679,0.18553 -0.6391,0.36214 -0.83678,0.29422 z m 26.95013,-0.47236 c -0.24287,-0.17011 -0.30196,-0.70419 -0.10022,-0.90593 0.18587,-0.18587 0.51542,-0.1377 0.7474,0.10923 0.27241,0.28998 0.26905,0.47051 -0.0137,0.73617 -0.27005,0.2537 -0.34713,0.26108 -0.63344,0.0606 z m -40.35303,-0.22741 c -0.39807,-0.24807 -0.79896,-0.6898 -0.92227,-1.0162 -0.0891,-0.23607 -0.0641,-0.31185 0.20434,-0.61759 0.39573,-0.45069 0.75779,-0.6325 1.25966,-0.6325 0.75812,0 1.24269,0.81945 0.98776,1.67037 -0.21346,0.71247 -0.90814,0.98313 -1.52949,0.59592 z m 27.7075,-0.0316 c -0.28514,-0.28515 0.0102,-0.96051 0.42,-0.96051 0.4689,0 0.82787,0.69726 0.48721,0.94635 -0.22364,0.16354 -0.74961,0.17174 -0.90721,0.0141 z m -6.59573,-0.54396 c -0.26983,-0.70875 0.32696,-1.18606 0.84065,-0.67235 0.3072,0.30718 0.30804,0.3996 0.007,0.70131 -0.33219,0.33219 -0.71449,0.31911 -0.84699,-0.0289 z m 52.20546,0.0516 c -0.18087,-0.25821 -0.2015,-0.87016 -0.0349,-1.0367 0.1785,-0.17849 0.5452,-0.14088 0.76449,0.0784 0.37604,0.37605 0.14268,1.17613 -0.34305,1.17613 -0.1306,0 -0.30129,-0.0962 -0.38647,-0.21783 z m -54.72248,-0.13077 c -0.11981,-0.084 -0.21783,-0.20757 -0.21783,-0.27479 0,-0.17577 0.61691,-0.74876 0.80614,-0.74876 0.19301,0 0.56601,0.45082 0.56601,0.6841 0,0.43228 -0.71964,0.64392 -1.15432,0.33945 z m 35.65392,-0.5335 c -0.22772,-0.22773 -0.25858,-0.70816 -0.0562,-0.87608 0.0768,-0.0639 0.33047,-0.10227 0.56355,-0.0855 0.39858,0.0288 0.42561,0.0493 0.45438,0.34739 0.0227,0.2342 -0.0338,0.38128 -0.21606,0.56356 -0.29781,0.29782 -0.4857,0.31058 -0.74563,0.0506 z m -32.1124,-0.93234 c -0.0791,-0.20602 0.1401,-0.43979 0.4123,-0.43979 0.3115,0 0.39034,0.17044 0.18422,0.39821 -0.20505,0.22659 -0.51717,0.24835 -0.59652,0.0416 z m 12.93783,-0.68482 c -0.0776,-0.20233 0.0277,-0.44105 0.19452,-0.44105 0.0759,0 0.19299,0.0662 0.26009,0.14701 0.0973,0.1173 0.0973,0.17674 0,0.29404 -0.0671,0.0809 -0.18414,0.14701 -0.26009,0.14701 -0.0759,0 -0.16349,-0.0662 -0.19452,-0.14701 z m -40.630592,-0.41655 c -0.248713,-0.2896 -0.28832,-0.52879 -0.12806,-0.77339 0.194893,-0.29743 0.485153,-0.29399 0.788495,0.01 0.291837,0.29184 0.303223,0.48088 0.04462,0.73955 -0.241621,0.24161 -0.510478,0.25095 -0.704977,0.0246 z m 73.559132,-0.27712 c -0.0326,-0.0851 0.0128,-0.2268 0.10109,-0.31504 0.14854,-0.14855 0.17229,-0.14855 0.32082,0 0.20038,0.20039 0.10842,0.46965 -0.16041,0.46965 -0.11119,0 -0.22887,-0.0696 -0.2615,-0.15461 z m 6.78806,-0.005 c -0.0832,-0.21664 0.16857,-0.47573 0.38244,-0.39365 0.0995,0.0381 0.14945,0.14681 0.13011,0.28293 -0.0391,0.27522 -0.41801,0.35709 -0.51255,0.11072 z m -27.04411,-1.15859 c -0.10239,-0.26684 0.0396,-0.45914 0.31545,-0.42715 0.20086,0.0234 0.25701,0.0834 0.25701,0.27483 0,0.1915 -0.0561,0.25153 -0.25701,0.27483 -0.16279,0.0189 -0.27842,-0.0261 -0.31545,-0.12251 z m -42.95492,-0.1942 c -0.0802,-0.209 -0.005,-0.57453 0.12672,-0.61796 0.20068,-0.0661 0.3474,0.33285 0.20581,0.55958 -0.14555,0.23307 -0.25792,0.25279 -0.33253,0.0584 z m 13.14648,-0.0536 c -0.16499,-0.18231 -0.16557,-0.20808 -0.01,-0.4455 0.0908,-0.13861 0.27823,-0.30354 0.41647,-0.36653 0.22416,-0.10215 0.27662,-0.0852 0.48486,0.15694 0.26735,0.31082 0.30624,0.70172 0.0785,0.78911 -0.32154,0.12339 -0.79622,0.0578 -0.96981,-0.13402 z m 28.045,-0.16586 c -0.11995,-0.11995 -0.0673,-0.43014 0.083,-0.48776 0.23748,-0.0911 0.45468,0.14615 0.33628,0.36738 -0.0996,0.18615 -0.29679,0.24277 -0.41919,0.12038 z m -14.99902,-0.10147 c -0.10933,-0.1093 -0.0662,-0.47606 0.0791,-0.67205 0.13073,-0.17636 0.15293,-0.17852 0.30411,-0.0296 0.10563,0.10403 0.13993,0.23351 0.0973,0.36764 -0.0704,0.22192 -0.37855,0.43611 -0.48059,0.33406 z m -20.05599,-0.42127 c -0.52432,-0.52432 0.11638,-1.23944 0.78829,-0.87984 0.40862,0.2187 0.43737,0.74529 0.0546,1.00086 -0.20583,0.13743 -0.64794,0.0739 -0.84292,-0.12102 z m 15.49666,-0.67503 c -0.26967,-0.26968 -0.26137,-0.4557 0.0335,-0.75058 0.27745,-0.27744 0.53227,-0.3021 0.94042,-0.091 0.54081,0.27966 0.28614,0.87777 -0.42272,0.99281 -0.26816,0.0436 -0.38988,0.0101 -0.55121,-0.1512 z m 52.46,0.0382 c -0.0338,-0.0883 -0.0162,-0.20575 0.039,-0.26109 0.15976,-0.15976 0.46447,-0.0521 0.46447,0.16413 0,0.24932 -0.41441,0.32912 -0.5035,0.0969 z m -88.013302,-0.29426 c -0.07763,-0.20234 0.02764,-0.44105 0.194502,-0.44105 0.07595,0 0.193001,0.0662 0.2601,0.14702 0.09733,0.11728 0.09733,0.17673 0,0.29403 -0.06713,0.0809 -0.184152,0.14701 -0.2601,0.14701 -0.07596,0 -0.163471,-0.0662 -0.194502,-0.14701 z m 93.857682,-0.29486 c -0.17317,-0.20867 -0.0426,-0.46 0.21976,-0.42259 0.28266,0.0403 0.33973,0.33072 0.0911,0.46374 -0.14468,0.0774 -0.22086,0.0674 -0.3109,-0.0412 z m -44.67607,-0.4283 c -0.0721,-0.0457 -0.1162,-0.18837 -0.098,-0.31704 0.0248,-0.17538 0.0944,-0.23394 0.2781,-0.23394 0.18369,0 0.25331,0.0585 0.2781,0.23394 0.0284,0.20002 -0.1108,0.40012 -0.2781,0.40012 -0.027,0 -0.108,-0.0374 -0.1801,-0.0832 z m -43.102788,-0.34923 c -0.08747,-0.22777 6.89e-4,-0.49104 0.175635,-0.52473 0.208259,-0.0401 0.332921,0.33325 0.174858,0.5237 -0.150194,0.18098 -0.281298,0.18136 -0.350493,9.9e-4 z m 19.475768,-0.79697 c -0.76104,-0.64036 -0.5048,-1.88901 0.45248,-2.20493 0.76304,-0.25183 1.59637,0.27892 1.59637,1.01673 0,0.47546 -0.34769,1.11839 -0.70466,1.30297 -0.43157,0.22318 -1.00027,0.17462 -1.34419,-0.11477 z m 20.49834,-0.23653 c -0.19311,-0.30922 -0.15578,-0.68741 0.0679,-0.68741 0.23904,0 0.33506,0.28873 0.20754,0.62412 -0.11754,0.30918 -0.12127,0.31004 -0.27538,0.0634 z m 16.79405,0.0354 c -0.0832,-0.21664 0.1686,-0.47573 0.38245,-0.39367 0.0995,0.0381 0.14944,0.14681 0.13011,0.28294 -0.0391,0.27522 -0.41801,0.35708 -0.51256,0.11073 z m 37.4175,0.0122 c -0.0776,-0.20233 0.0276,-0.44104 0.1945,-0.44104 0.20062,0 0.3713,0.24362 0.30031,0.42864 -0.0768,0.20022 -0.41945,0.20882 -0.49481,0.0124 z m -80.50083,-0.29278 c -0.16286,-0.19622 -0.0544,-0.44229 0.19499,-0.44229 0.11119,0 0.22777,0.0667 0.25906,0.14825 0.0563,0.14679 -0.1163,0.43981 -0.25906,0.43981 -0.0407,0 -0.12846,-0.0656 -0.19499,-0.14577 z m -16.989474,-0.31157 c -0.124357,-0.12435 -0.06472,-0.43111 0.09584,-0.49271 0.190539,-0.0731 0.438937,0.21655 0.360649,0.42058 -0.05447,0.14201 -0.341303,0.18734 -0.456489,0.0721 z m 7.138404,-0.34578 c -0.38902,-0.22062 -0.46307,-0.62599 -0.1638,-0.89682 0.29228,-0.26451 0.67453,-0.20724 0.84735,0.12695 0.2033,0.39313 0.18829,0.55468 -0.0683,0.7344 -0.25618,0.17943 -0.35167,0.18494 -0.61527,0.0355 z m -10.12445,-0.68659 c -0.285132,-0.28513 0.0102,-0.96049 0.420003,-0.96049 0.468909,0 0.827872,0.69726 0.487219,0.94634 -0.223649,0.16354 -0.749631,0.17175 -0.907222,0.0141 z m 72.04826,-0.53277 c -0.0655,-0.17066 0.0622,-0.4422 0.23483,-0.49977 0.0572,-0.0191 0.17532,0.0364 0.26232,0.12348 0.11998,0.11998 0.13374,0.20391 0.0569,0.3474 -0.12355,0.23084 -0.46968,0.24888 -0.55409,0.029 z m 24.13618,-0.0916 c -0.21217,-0.21219 -0.1929,-0.59118 0.0421,-0.8261 0.53691,-0.53692 1.24711,0.10204 0.87864,0.79052 -0.12641,0.23618 -0.69795,0.25827 -0.92066,0.0355 z m -46.67343,-0.091 c -0.0776,-0.20232 0.0277,-0.44104 0.19451,-0.44104 0.0759,0 0.19298,0.0662 0.2601,0.14703 0.0973,0.11727 0.0973,0.17673 0,0.29401 -0.0672,0.0809 -0.18415,0.14703 -0.2601,0.14703 -0.0759,0 -0.16348,-0.0662 -0.19451,-0.14703 z m -102.5909,-0.78057 c 0.05401,-0.45933 0.02538,-0.61251 -0.200175,-1.07361 -0.301715,-0.61668 -0.746937,-1.03689 -1.098597,-1.03689 -0.317838,0 -0.604811,0.1544 -1.9984,1.07517 -1.762224,1.16436 -2.58944,1.39667 -3.304602,0.92809 l -0.260393,-0.17062 0.48465,-0.21693 c 0.656591,-0.29389 0.937057,-0.62082 0.998245,-1.16366 0.06204,-0.55064 -0.286024,-1.2078 -0.811927,-1.53282 -0.340302,-0.21032 -0.397931,-0.21395 -2.295567,-0.14449 -1.070585,0.0392 -1.996595,0.0403 -2.057813,0.002 -0.166382,-0.10282 0.0494,-0.31934 0.592472,-0.59455 0.57284,-0.29028 0.869919,-0.75108 0.943437,-1.46341 0.05685,-0.55068 -0.172371,-1.42374 -0.373773,-1.42374 -0.05057,0 -0.257914,0.10979 -0.460696,0.24399 -0.568597,0.37627 -1.783337,0.46186 -1.783337,0.12565 0,-0.0642 0.192336,-0.29488 0.427405,-0.51268 0.503742,-0.46674 0.618042,-0.88331 0.456228,-1.66276 -0.127659,-0.61492 -0.602383,-1.30541 -0.95906,-1.39492 -0.268558,-0.0674 -0.343977,-0.0321 -1.228421,0.57459 -0.324052,0.2223 -0.82415,0.44216 -1.289179,0.56679 -0.911564,0.24427 -1.479258,0.5196 -1.622246,0.78677 -0.06586,0.12311 -0.09468,0.75677 -0.07675,1.69035 0.03303,1.72251 0.01656,1.77457 -0.818895,2.59944 -0.943781,0.93177 -1.298117,0.81932 -0.964059,-0.30597 0.258591,-0.87108 0.220631,-1.21594 -0.204508,-1.85778 -0.42849,-0.64691 -0.875398,-0.83124 -2.301721,-0.9494 -0.643928,-0.0533 -1.512583,-0.0977 -1.930351,-0.0986 l -0.759579,-0.002 -0.002,1.29864 c -9.8e-4,1.28682 -0.08939,1.72232 -0.366098,1.81361 -0.08557,0.0283 -0.122513,-0.0897 -0.122513,-0.39172 0,-0.44698 -0.172449,-0.69551 -0.655121,-0.9441 -0.344751,-0.17757 -1.05606,-0.13567 -1.318727,0.0776 -0.213957,0.17378 -0.227981,0.24202 -0.186298,0.9066 0.114339,1.8229 0.02274,2.40022 -0.516897,3.257 -0.640105,1.01632 -1.687412,1.31422 -2.741277,0.77973 l -0.511301,-0.25931 0.538097,-0.1756 c 0.855757,-0.27927 1.124255,-0.83488 0.677769,-1.4025 -0.34033,-0.43266 -0.909965,-0.6566 -1.9112187,-0.75131 -1.2866385,-0.12175 -1.8303503,-0.37772 -1.9896755,-0.93674 -0.1448299,-0.50812 -0.014893,-0.58015 0.6188163,-0.34306 0.3049294,0.11408 0.7564134,0.20743 1.0033014,0.20743 0.3883069,0 0.4986755,-0.0498 0.8176205,-0.36872 0.283985,-0.28398 0.39557,-0.49803 0.485534,-0.93141 0.215544,-1.03827 -0.09801,-2.21522 -0.7086145,-2.66029 -0.2169657,-0.15813 -0.4041744,-0.1946 -0.920571,-0.17929 -0.4237178,0.0125 -0.7613917,-0.0345 -0.9749757,-0.13585 -0.3132605,-0.14864 -1.074134,-0.89495 -0.9940592,-0.97503 0.021266,-0.0213 0.1897668,0.005 0.374507,0.0577 0.8424859,0.24161 1.1603129,0.0957 1.777699,-0.81599 0.5848072,-0.86361 1.2938334,-1.58397 1.8903814,-1.92064 0.283016,-0.15972 0.543527,-0.36585 0.578909,-0.45808 0.07527,-0.19623 -0.164942,-0.49812 -0.467862,-0.58788 -0.114182,-0.0338 -0.665509,-0.24181 -1.2251771,-0.4622 -1.0119074,-0.39847 -1.1084564,-0.53089 -0.4035676,-0.55346 0.1347643,-0.004 0.4701262,-0.11267 0.7452607,-0.24078 0.41964,-0.19539 0.542016,-0.31676 0.759579,-0.75336 0.332019,-0.66628 0.354758,-1.41233 0.05469,-1.79382 -0.316191,-0.40197 -0.647073,-0.52322 -1.7217951,-0.63089 -1.036889,-0.10388 -1.5245384,-0.27782 -1.700457,-0.60652 -0.1209544,-0.22601 -0.1239734,-0.22484 0.6027234,-0.23573 0.6310383,-0.01 0.8591767,-0.16064 1.1956656,-0.79236 0.2899445,-0.54437 0.3104188,-2.40572 0.031166,-2.83196 -0.2061739,-0.31467 -0.3457509,-0.31166 -1.2629688,0.0274 -0.5193755,0.19193 -1.154071,0.27723 -1.154071,0.15511 0,-0.0288 0.1102623,-0.26987 0.2450264,-0.535815 0.1347632,-0.26595 0.2450254,-0.569774 0.2450254,-0.675179 0,-0.246812 -0.7523069,-0.892984 -1.0396539,-0.892984 -0.1630398,0 -0.3095065,0.146469 -0.5635686,0.563559 -0.7711714,1.266009 -1.71452,1.749039 -2.6514,1.357579 -0.6338714,-0.26484 -0.5496904,-0.533044 0.2507495,-0.798906 0.2692243,-0.08934 0.512868,-0.223507 0.5414379,-0.297953 0.1088306,-0.283603 -1.1807882,-1.512856 -1.3791022,-1.314555 -0.056649,0.05664 -0.1340289,0.333453 -0.1719785,0.615133 -0.089287,0.662474 -0.00686,-2.454342 0.119053,-4.486373 0.7030572,-11.374656 3.4275461,-22.61898 8.0505029,-33.225493 0.940124,-2.156914 3.177453,-6.685567 3.38646,-6.854605 0.09419,-0.07615 0.502008,-0.401734 0.9063,-0.723483 0.404293,-0.321737 1.418699,-1.190412 2.254237,-1.930371 4.262827,-3.775226 9.036564,-7.383659 12.643322,-9.557018 1.296714,-0.781377 2.154569,-1.178671 3.387558,-1.568908 1.761743,-0.557571 3.470718,-1.588492 5.7764,-3.484548 2.700701,-2.220904 5.255956,-3.636368 8.465008,-4.689126 1.302252,-0.427206 2.265065,-0.852893 3.434093,-1.518295 2.182708,-1.242389 4.60407,-1.702077 9.859174,-1.871712 3.23429,-0.104411 3.828574,-0.186916 5.208971,-0.723189 1.191588,-0.462931 2.091156,-0.700595 3.538591,-0.934899 2.681786,-0.434127 5.722133,-0.497353 7.032088,-0.146242 0.323433,0.08664 1.185679,0.394904 1.916101,0.684907 1.364115,0.541603 2.556872,0.885306 4.007482,1.154776 1.79815,0.334038 3.131994,1.42542 3.140207,2.569386 0.005,0.648534 0.03725,0.6586 2.563665,0.792237 1.259499,0.06665 2.466418,0.172225 2.682039,0.234677 0.215623,0.06243 1.031559,0.410799 1.81319,0.774093 0.781632,0.363296 1.737781,0.780643 2.124764,0.927452 0.966,0.36644 1.781041,0.966538 3.56294,2.623283 1.669798,1.552522 2.157266,1.923629 3.065846,2.334065 0.77393,0.349633 1.42758,0.482054 2.8507,0.577557 0.90938,0.06106 1.19717,0.116896 1.40943,0.273614 0.22203,0.163942 1.69572,2.111091 2.62948,3.474277 0.3183,0.464677 0.3862,0.940537 0.23552,1.650601 l -0.12314,0.58021 -0.69851,-0.710505 c -0.88955,-0.904782 -1.55037,-1.141084 -2.22114,-0.794207 -1.06346,0.549926 0.12781,2.492009 2.88171,4.697926 2.00217,1.60377 2.45749,2.642287 1.8926,4.316881 -0.12522,0.371195 -0.2514,0.633382 -0.28042,0.582651 -0.0289,-0.05077 -0.14614,-0.404733 -0.26029,-0.786651 -0.41283,-1.381199 -1.72979,-2.349315 -2.57818,-1.895272 -0.31365,0.167862 -0.73615,1.192069 -1.07497,2.605995 -0.34015,1.419432 -0.63284,1.927852 -1.25913,2.187275 -0.16389,0.06792 -0.29797,0.18073 -0.29797,0.250759 0,0.131853 0.10582,0.162481 1.17612,0.340379 0.89162,0.148202 1.50754,0.353631 2.30324,0.768214 l 0.68607,0.357463 1.27414,-0.004 c 1.44731,-0.005 1.8797,-0.09845 3.72438,-0.808595 1.09492,-0.421513 1.24039,-0.453072 2.10721,-0.457149 l 0.93111,-0.005 1.37214,0.646397 c 0.75468,0.355513 1.55817,0.698666 1.78554,0.762569 0.30945,0.08693 0.543,0.263432 0.92878,0.701685 0.28348,0.322032 0.59482,0.610722 0.69188,0.641526 0.0971,0.03077 0.38151,-0.04323 0.63203,-0.164501 0.4176,-0.202145 0.51369,-0.212143 1.15351,-0.119964 0.40421,0.05821 1.02606,0.248642 1.4775,0.452405 0.42875,0.193509 1.08222,0.400151 1.45217,0.459192 0.84913,0.135519 1.33531,0.383475 1.94261,0.990777 0.64985,0.649847 0.95994,1.335507 0.96118,2.125244 l 9.7e-4,0.61472 -0.85758,-0.875085 c -0.6802,-0.694079 -0.94545,-0.898499 -1.28234,-0.988247 -1.04359,-0.278016 -1.63332,0.271117 -2.15436,2.006035 -0.26249,0.874016 -0.6837,1.535938 -1.19105,1.871682 -0.2196,0.145329 -0.42192,0.241575 -0.44961,0.213887 -0.0277,-0.02764 -0.002,-0.265695 0.0571,-0.528902 0.22513,-1.002616 -0.10418,-1.459107 -0.884,-1.225461 -0.63075,0.188963 -0.84939,0.856462 -0.55257,1.686845 0.51869,1.45104 2.14458,1.974866 3.94499,1.270977 1.09736,-0.42903 1.87697,-0.524522 3.90848,-0.47877 1.60516,0.03617 1.80702,0.06047 2.23959,0.26993 0.58921,0.285297 1.07885,1.00189 1.28324,1.878032 0.17781,0.762197 0.39489,0.990629 1.52207,1.601654 2.03698,1.104204 2.70978,2.555137 2.16419,4.6672 -0.11767,0.455502 -0.25031,0.865185 -0.29477,0.910407 -0.0446,0.04519 -0.18008,-0.219406 -0.30137,-0.588061 -0.47937,-1.456962 -1.02568,-2.202869 -1.94169,-2.65103 -0.49465,-0.242007 -0.6609,-0.271225 -1.53489,-0.269685 -1.12896,0.002 -2.45812,0.265225 -2.92549,0.579396 -0.27169,0.182623 -0.32291,0.291836 -0.42515,0.906478 -0.12102,0.727451 -0.25927,1.053933 -0.86328,2.038691 -0.35606,0.580496 -0.36009,0.598696 -0.31295,1.413583 0.0616,1.063539 -0.0579,1.878915 -0.43452,2.96677 -0.16663,0.481309 -0.28111,0.89697 -0.25439,0.923697 0.0268,0.02675 0.60133,0.175704 1.27689,0.33107 1.94102,0.446397 3.09524,1.036555 3.98942,2.039809 0.64796,0.727 0.91323,1.294039 0.96226,2.056852 0.046,0.71573 -0.12776,1.258472 -0.57129,1.784424 l -0.28927,0.343036 -0.003,-0.468694 c -9.9e-4,-0.257778 -0.0623,-0.61131 -0.13506,-0.785612 -0.17503,-0.418895 -0.75188,-0.915112 -1.21254,-1.043035 -0.43537,-0.120905 -1.6876,-0.135665 -1.86667,-0.02196 -0.15756,0.1 -0.31645,0.646946 -0.3177,1.093579 -9.8e-4,0.439469 -0.36613,1.209495 -0.82064,1.731703 -0.55199,0.634206 -1.55103,1.035528 -1.68817,0.678144 -0.0293,-0.07645 0.0823,-0.396236 0.24788,-0.710575 0.36981,-0.701528 0.37563,-0.909653 0.0367,-1.312396 -0.93707,-1.113623 -2.67287,-0.477105 -2.69308,0.987551 -0.01,0.679397 0.40555,1.058658 2.31163,2.112905 1.62047,0.896274 2.3301,1.793969 2.33588,2.954913 0.004,0.73364 -0.17359,1.362388 -0.46671,1.655504 -0.36418,0.364175 -0.4387,0.294999 -0.4387,-0.40721 0,-1.508699 -0.89831,-2.200487 -3.23433,-2.490747 -0.51211,-0.06361 -1.00828,-0.137778 -1.10262,-0.164771 -0.15327,-0.04381 -0.17151,0.03538 -0.17151,0.74477 0,0.914555 -0.12721,1.288375 -0.62639,1.840932 -0.33285,0.36844 -1.13855,0.808677 -1.76115,0.962308 -0.27802,0.06856 -0.27633,0.06363 0.20698,-0.605717 0.26802,-0.371199 0.5426,-0.780783 0.6102,-0.910193 0.18521,-0.354561 0.14007,-0.894639 -0.12429,-1.487168 -0.29037,-0.650822 -0.56873,-0.919282 -0.87469,-0.843558 -0.12318,0.03048 -0.48859,0.126639 -0.81202,0.213671 -0.36799,0.09903 -1.02821,0.162971 -1.76418,0.170872 -1.01547,0.01088 -1.22968,-0.01519 -1.56816,-0.19116 -0.83906,-0.436145 -0.8728,-0.718033 -0.10257,-0.857109 0.91569,-0.165354 1.81108,-0.917847 2.4057,-2.021775 0.54242,-1.007046 0.44448,-1.99243 -0.27445,-2.760822 -0.34336,-0.367 -0.64371,-0.341173 -1.28936,0.110849 -0.70413,0.492983 -1.32734,0.697737 -2.1237,0.697737 h -0.64243 l 0.48849,-0.386131 c 0.91746,-0.725218 1.04647,-1.790903 0.38386,-3.170878 -0.32061,-0.667704 -1.61782,-2.607112 -1.74865,-2.614305 -0.0334,-0.002 -0.18026,0.338478 -0.32627,0.756247 -0.45778,1.309798 -1.34656,2.376747 -1.97987,2.376747 -0.28817,0 -0.28705,-0.06027 0.0147,-0.802928 0.13478,-0.331657 0.24487,-0.7167 0.24467,-0.855649 -9.7e-4,-0.520415 -0.76796,-1.40831 -1.5397,-1.781905 -0.96416,-0.466745 -1.89597,-0.308919 -2.52672,0.427971 -0.62102,0.725531 -0.62164,0.941349 -0.008,2.669477 0.61597,1.733516 0.44553,3.028222 -0.51228,3.891653 -0.46014,0.414799 -1.09441,0.763833 -1.38805,0.763833 -0.27135,0 -0.2542,-0.06321 0.13386,-0.492717 0.80699,-0.893246 0.66734,-2.828527 -0.23871,-3.307895 -0.64608,-0.341831 -1.75834,0.07831 -3.13338,1.183611 -1.30502,1.049024 -1.76718,1.287021 -2.50656,1.290805 -0.505285,0.003 -0.710964,-0.05625 -1.35947,-0.388984 l -0.764107,-0.392041 0.742023,-0.06135 c 1.141107,-0.09428 1.962714,-0.678633 2.456354,-1.746877 0.28754,-0.622287 0.29305,-1.963096 0.01,-2.444993 -0.41632,-0.708868 -0.54086,-0.745318 -2.54615,-0.745318 H 96.8985 l -0.377177,-0.302175 c -0.449467,-0.361228 -0.818222,-0.876625 -0.818222,-1.143633 0,-0.207479 0.09476,-0.20595 0.931102,0.01509 1.037071,0.274106 2.303233,-0.480692 2.303233,-1.373045 0,-1.028 -1.059804,-1.96788 -2.691363,-2.386844 -1.183856,-0.303988 -2.395435,-0.101549 -2.95723,0.494138 -0.170596,0.180888 -0.431941,0.65024 -0.58076,1.042996 -0.454963,1.200783 -1.164087,1.74125 -2.286442,1.742681 l -0.429951,5.88e-4 0.460325,-0.492129 c 0.556061,-0.59451 0.742614,-1.009878 0.742614,-1.653473 0,-0.690667 -0.339076,-1.088776 -0.927344,-1.088776 -0.230932,0 -0.634245,0.09478 -0.896255,0.210722 -1.312572,0.580613 -3.566867,-0.03225 -3.81939,-1.038427 -0.112398,-0.447829 0.06321,-0.502019 0.860892,-0.265598 0.39307,0.116505 0.846985,0.211447 1.008703,0.210976 1.182179,-0.003 2.027419,-0.877025 2.358106,-2.437182 0.219435,-1.035253 0.154043,-1.973043 -0.137587,-1.973043 -0.04176,0 -0.333205,0.154983 -0.647779,0.344417 -0.630617,0.379731 -1.279514,0.587631 -2.135281,0.684122 -0.571047,0.06439 -0.956619,0.0059 -0.956619,-0.144771 0,-0.04567 0.327815,-0.440184 0.728481,-0.876585 0.796872,-0.867949 1.185953,-1.570398 1.28313,-2.316579 0.07596,-0.583093 -0.06017,-0.986493 -0.382357,-1.133293 -0.188581,-0.08595 -0.358943,-0.06567 -0.835449,0.09922 -0.329207,0.113926 -0.701293,0.207144 -0.826854,0.207144 -0.3581,0 -1.339099,-0.215309 -1.339099,-0.293913 0,-0.03891 0.262619,-0.21079 0.583603,-0.381877 0.720056,-0.383778 0.984565,-0.702528 0.984565,-1.186404 0,-0.735058 -0.687944,-1.154718 -1.7197,-1.049043 -0.272019,0.02784 -0.902473,0.208183 -1.401023,0.400725 -0.498548,0.19254 -1.198409,0.40091 -1.555245,0.463058 -1.150523,0.200353 -2.479072,-0.03411 -2.645111,-0.466822 -0.08184,-0.213251 0.111556,-0.303783 0.79702,-0.373086 1.012739,-0.102401 1.429675,-0.254209 1.875348,-0.682827 0.525305,-0.505204 0.671566,-1.006428 0.600734,-2.058588 -0.07037,-1.045711 -0.518572,-1.973759 -1.087218,-2.251378 -0.361815,-0.176653 -0.461932,-0.179712 -1.921335,-0.05871 -2.07516,0.172076 -2.631241,0.06067 -3.4327,-0.688052 -0.305813,-0.285679 -0.318064,-0.318602 -0.152966,-0.410996 0.111918,-0.06263 0.506969,-0.07478 1.049553,-0.03234 0.863588,0.06753 0.872125,0.06596 1.145475,-0.208831 0.404626,-0.40684 0.926757,-1.720157 0.978614,-2.461527 0.06782,-0.969312 -0.255778,-1.214386 -1.909908,-1.446583 -0.576544,-0.08095 -1.068604,-0.167509 -1.093489,-0.192383 -0.02489,-0.02489 0.104881,-0.10836 0.288345,-0.185515 0.954807,-0.401509 1.161549,-1.18704 0.57044,-2.167496 -0.375527,-0.622866 -0.706605,-0.852092 -1.046093,-0.724237 -0.121651,0.04577 -0.480691,0.266303 -0.797872,0.489992 -0.317181,0.223679 -0.636645,0.386612 -0.709918,0.36207 -0.10175,-0.03411 -0.133231,-0.304919 -0.133231,-1.14623 v -1.101573 l -0.320072,-0.286651 c -0.417553,-0.373938 -1.11223,-0.394579 -1.836153,-0.05459 -0.85413,0.401196 -0.951669,0.598 -1.221993,2.465772 -0.208016,1.437271 -0.370595,1.934134 -0.68856,2.104299 -0.343321,0.183741 -0.510124,0.05655 -0.437008,-0.333147 0.126717,-0.675506 -0.440085,-2.094685 -0.964236,-2.414276 -0.628265,-0.383073 -1.934104,-0.116368 -3.027134,0.618269 -0.716866,0.481808 -1.060843,0.941682 -1.060843,1.418286 0,0.39505 0.188346,0.689747 1.081092,1.691618 1.237076,1.388266 1.841034,2.46189 1.999978,3.555204 0.148779,1.023404 -0.347956,2.137431 -1.145446,2.568921 -0.485122,0.262491 -0.606419,0.140106 -0.468979,-0.473174 0.276517,-1.233855 -0.869203,-3.075947 -2.107005,-3.38762 -0.666587,-0.167852 -1.123824,0.08566 -2.131017,1.18168 -0.940153,1.023031 -1.533792,1.455198 -1.998919,1.455198 -0.353366,0 -0.413898,-0.132727 -0.178937,-0.392356 0.421258,-0.465479 0.456551,-3.387077 0.05361,-4.437766 -0.270742,-0.705997 -0.510505,-0.869224 -1.355628,-0.922943 -0.940458,-0.05979 -1.232627,0.115025 -1.740603,1.041398 -0.629021,1.147122 -0.846369,1.174536 -1.014231,0.127933 -0.125198,-0.780553 -0.51468,-1.497018 -1.099802,-2.023089 -0.546535,-0.491384 -0.902429,-0.610192 -2.253334,-0.752249 -1.771319,-0.186248 -2.954608,0.02715 -3.512275,0.633402 -0.179997,0.195678 -0.248957,0.399216 -0.279821,0.825854 -0.05615,0.775702 0.01,0.816191 1.477398,0.904585 2.092381,0.126041 3.073073,0.562374 3.627359,1.613877 0.243998,0.462863 0.266637,1.55701 0.04841,2.341308 l -0.133284,0.479123 -0.319659,-0.599755 c -0.442282,-0.829793 -0.722945,-1.135525 -1.31182,-1.42897 -0.833302,-0.415258 -1.900741,-0.304635 -2.500878,0.25916 -0.122032,0.114643 -0.221866,0.269088 -0.221866,0.343231 0,0.299089 0.366402,0.802097 1.267596,1.740183 0.979818,1.019927 1.323139,1.565305 1.436105,2.28126 0.122082,0.773781 -0.29006,1.648013 -1.022972,2.169889 l -0.271568,0.193364 0.137422,-0.562491 c 0.256924,-1.051698 -0.181359,-1.796381 -1.399568,-2.377944 -0.818561,-0.390777 -0.92651,-0.371862 -1.33384,0.233667 -0.373547,0.555296 -1.077142,1.119737 -1.257129,1.008505 -0.07625,-0.04714 -0.09076,-0.292639 -0.04626,-0.783455 0.05949,-0.656316 0.04675,-0.732823 -0.155317,-0.934909 -0.200636,-0.200638 -0.290542,-0.21626 -1.017003,-0.176704 -1.039006,0.05655 -1.660705,0.322248 -1.892735,0.80882 -0.160511,0.336598 -0.158473,0.386857 0.04979,1.225384 0.259197,1.043671 0.218189,1.457539 -0.21628,2.183002 -0.24131,0.402939 -0.425286,0.571673 -0.872094,0.799891 -0.766558,0.39152 -0.900872,0.269743 -0.532001,-0.482368 0.14585,-0.297372 0.265177,-0.666068 0.265177,-0.819327 0,-0.603586 -0.76641,-1.138281 -2.132292,-1.487609 -1.734016,-0.443486 -2.403211,-0.1019 -2.674463,1.365186 -0.240704,1.301791 -0.765089,2.298918 -1.374801,2.614218 -0.519561,0.268674 -0.581151,0.169606 -0.581151,-0.934745 0,-1.085464 -0.124757,-1.5235 -0.568754,-1.996998 -0.397392,-0.423785 -0.959187,-0.644584 -1.646356,-0.647054 -1.982581,-0.0069 -2.326421,0.912741 -2.124137,5.682694 l 0.08527,2.009455 1.109681,1.371899 c 1.413397,1.747365 2.615424,2.974453 3.491468,3.564239 0.81428,0.548202 2.164067,1.025276 3.377267,1.193677 0.920581,0.127786 1.492951,0.05028 3.332348,-0.451426 1.17781,-0.321228 3.169613,-0.441584 3.475669,-0.210024 0.159992,0.121052 0.171214,0.170949 0.06675,0.296832 -0.06909,0.08321 -0.250279,0.178713 -0.402685,0.212183 -0.374841,0.08233 -0.623052,0.379633 -0.612967,0.734225 0.01853,0.650297 0.194619,0.695136 3.108837,0.79156 3.264643,0.108016 4.06714,0.325285 4.468895,1.209886 0.183308,0.403646 0.253591,1.136479 0.108987,1.136479 -0.04263,0 -0.271155,-0.197217 -0.507732,-0.438273 -0.785974,-0.800851 -1.462666,-0.926813 -1.982786,-0.369087 -0.630511,0.676086 -0.563315,0.961207 0.503811,2.138054 1.381896,1.523973 1.655031,2.395861 0.966323,3.084569 -0.415103,0.415104 -0.535146,0.373508 -0.590699,-0.204684 -0.09017,-0.938664 -0.976789,-1.662313 -2.036623,-1.662313 -0.418248,0 -0.641036,0.05587 -0.888845,0.222857 -1.299518,0.87575 -1.250415,3.144001 0.09713,4.48685 1.243368,1.239035 2.617736,1.013278 4.698758,-0.771831 0.55815,-0.47878 1.251523,-1.013974 1.54084,-1.189316 1.213022,-0.735164 2.46679,-1.03438 3.341914,-0.797538 0.518493,0.140321 1.367889,0.883151 1.277926,1.1176 -0.05273,0.137489 -0.156023,0.153691 -0.650299,0.102029 -0.675016,-0.07057 -1.094588,0.06017 -1.325872,0.413183 -0.381319,0.581974 -0.150799,0.691442 1.857421,0.882101 0.808585,0.07675 1.704359,0.187572 1.990608,0.246241 0.687984,0.141008 1.155158,0.546182 1.245357,1.080074 0.03675,0.217582 0.0396,0.422845 0.0059,0.456138 -0.03333,0.03332 -0.22512,-0.09936 -0.426276,-0.294794 -0.72806,-0.707351 -1.479123,-0.756738 -2.154423,-0.141655 -0.268116,0.244203 -0.294932,0.814465 -0.06831,1.453002 0.08371,0.235872 0.176742,0.693492 0.206754,1.016925 0.04715,0.508763 0.02509,0.62514 -0.16357,0.862999 -0.158189,0.199404 -0.289062,0.266728 -0.476281,0.245029 -0.236587,-0.02748 -0.263148,-0.07624 -0.317818,-0.584914 -0.03803,-0.353693 -0.138361,-0.655054 -0.276634,-0.830836 -0.505252,-0.64232 -1.788902,-1.303507 -1.968016,-1.013691 -0.04626,0.07478 -0.05959,0.270449 -0.0298,0.434705 0.28227,1.55183 2.033438,3.136414 3.461194,3.131952 0.715082,-0.002 1.194079,-0.26141 2.170172,-1.174242 0.999008,-0.934268 1.425657,-1.160152 2.191284,-1.160152 0.750729,0 1.154208,0.208125 2.140887,1.104332 0.415769,0.37764 0.906369,0.73626 1.090216,0.796936 0.404107,0.133379 0.681917,0.0133 1.392295,-0.601807 0.739016,-0.639898 1.21226,-0.816387 2.188313,-0.816133 0.988915,2.94e-4 1.398126,0.175192 2.040829,0.872446 0.623217,0.676115 0.733341,1.052988 0.420552,1.439256 l -0.184917,0.22838 -0.415231,-0.375138 c -0.404086,-0.365062 -0.431862,-0.374085 -1.033948,-0.335738 -0.811232,0.05161 -1.855933,0.564307 -2.138162,1.049244 l -0.193385,0.332271 0.214241,0.403851 c 0.117837,0.222128 0.484896,0.734173 0.81568,1.137886 0.730559,0.891614 0.959394,1.367145 0.962216,1.999546 0.003,0.612958 -0.305675,1.156906 -1.001782,1.76681 l -0.515221,0.451406 -0.05409,-0.810775 c -0.03724,-0.557965 -0.120376,-0.937693 -0.266684,-1.217828 -0.239362,-0.458302 -0.811487,-0.973478 -1.153749,-1.038902 -0.652541,-0.124751 -4.06472,1.438715 -4.36517,2.000127 -0.07909,0.147771 -0.06605,0.293856 0.05283,0.590963 0.08684,0.217075 0.132079,0.489255 0.100519,0.604875 -0.09527,0.34885 -0.468343,1.1413 -0.537331,1.1413 -0.03548,0 -0.166922,-0.21866 -0.292091,-0.4859 -0.446672,-0.95367 -1.148935,-1.315662 -1.704525,-0.87863 -0.323229,0.25425 -0.551651,0.73586 -0.551651,1.16311 0,0.37638 0.213937,0.5137 1.225128,0.78622 1.206986,0.32533 2.024843,0.93554 2.498653,1.86428 0.268069,0.52544 0.247202,0.86315 -0.08576,1.38817 -0.246643,0.38891 -0.761442,0.86724 -0.933381,0.86724 -0.03216,0 -0.05851,-0.18744 -0.05871,-0.41653 -3.92e-4,-0.46954 -0.256082,-0.96026 -0.626893,-1.20323 -0.417897,-0.27382 -1.414298,-0.39562 -1.914876,-0.23408 -0.594422,0.19182 -0.791962,0.50051 -0.892187,1.39415 -0.04577,0.40846 -0.155445,0.88222 -0.243654,1.05278 -0.352543,0.68175 -1.481796,1.56315 -2.002711,1.56315 -0.265462,0 -0.25369,-0.0951 0.09801,-0.79175 0.387876,-0.76837 0.504312,-1.38641 0.366186,-1.9436 -0.203254,-0.81984 -1.174015,-1.4791 -2.177993,-1.4791 -0.325315,0 -0.492923,0.0761 -0.889139,0.40385 -1.039006,0.85941 -1.684709,1.19813 -2.690196,1.41123 l -0.339742,0.072 0.526795,-0.57601 c 0.675438,-0.73854 0.882886,-1.19772 0.88562,-1.96033 0.004,-1.00522 -0.310113,-1.63726 -1.416325,-2.85349 l -0.556131,-0.61144 -0.948406,0.97339 c -0.752336,0.77217 -1.084493,1.03692 -1.606779,1.28076 -0.591208,0.276 -0.860775,0.31181 -0.860775,0.11434 0,-0.0373 0.218229,-0.43873 0.484955,-0.89191 0.750286,-1.27481 0.763773,-2.122893 0.05106,-3.211113 -0.785347,-1.199103 -2.669986,-1.841533 -3.841826,-1.309582 -0.526334,0.238922 -0.766862,0.636253 -0.846515,1.398349 -0.03469,0.331947 -0.153651,0.790634 -0.264343,1.019292 -0.238596,0.492876 -0.918973,1.139154 -1.152188,1.094454 -0.222484,-0.0427 -0.397501,-0.594693 -0.404224,-1.274995 -0.0079,-0.826083 -0.310692,-1.048181 -1.326579,-0.973941 -0.435959,0.03182 -0.684239,0.237779 -1.292157,1.071614 -0.669968,0.918982 -1.171488,1.461802 -1.519286,1.644432 -0.290336,0.15243 -1.356081,0.30589 -1.356081,0.19527 0,-0.0388 0.148535,-0.25435 0.33008,-0.47904 0.444026,-0.54958 0.552081,-0.777118 0.551641,-1.161691 -4.91e-4,-0.455446 -0.312301,-0.916024 -0.851699,-1.258096 -0.558091,-0.353931 -0.600029,-0.355891 -1.020141,-0.04767 -0.496784,0.3645 -1.082935,0.63318 -1.386629,0.635593 -0.321042,0.003 -0.333588,-0.08412 -0.07391,-0.510035 0.107606,-0.176483 0.195815,-0.423521 0.196021,-0.548952 5.88e-4,-0.378142 -0.489209,-0.765485 -1.266577,-1.00161 -1.341721,-0.407535 -2.032066,-0.100293 -2.249197,1.001029 -0.276095,1.400418 -0.210939,3.462262 0.144153,4.561742 0.269862,0.83561 0.606566,1.15631 1.402732,1.33611 0.374576,0.0847 1.246534,0.41868 1.937712,0.74246 0.691169,0.32375 1.495695,0.63968 1.787834,0.70205 1.043143,0.2227 1.997107,-0.0682 3.193586,-0.974 1.146172,-0.86768 2.055961,-1.0022 2.96729,-0.43877 0.558825,0.34549 1.150317,1.16235 1.357354,1.87451 0.139977,0.48151 0.138498,0.58009 -0.01833,1.21991 -0.150839,0.61549 -0.155464,0.77072 -0.04,1.34091 0.07185,0.35467 0.133569,0.74043 0.137165,0.85724 0.004,0.11681 0.03813,0.24399 0.07684,0.28262 0.03861,0.0386 0.758629,0.10401 1.599939,0.14528 1.43933,0.0705 1.56641,0.0931 2.151795,0.38131 0.707948,0.34852 1.473408,1.11798 1.815826,1.82532 0.185328,0.38282 0.20938,0.54842 0.155738,1.07204 -0.08733,0.85227 -0.326353,1.52061 -0.543859,1.52061 -0.03734,0 -0.139027,-0.14924 -0.226001,-0.33162 -0.435263,-0.91276 -1.288041,-1.45679 -2.283806,-1.45696 -0.751307,0 -1.240398,0.24048 -1.836506,0.90351 -0.855472,0.95148 -1.018199,1.60001 -0.658364,2.6238 0.261433,0.74382 0.248701,1.25362 -0.04607,1.84391 -0.449583,0.90028 -0.931882,0.88135 -0.936184,-0.0367 -0.003,-0.60066 -0.265882,-1.15846 -0.753807,-1.59834 -0.514798,-0.46413 -0.968959,-0.60527 -1.797037,-0.55847 -0.552308,0.0311 -0.747455,0.0904 -1.088963,0.33044 -0.517591,0.36377 -0.811505,0.84011 -0.726746,1.1778 0.03411,0.13596 0.363892,0.57274 0.732824,0.97064 0.762362,0.82221 1.068145,1.37824 1.153276,2.09711 0.08841,0.74619 -0.115123,1.336 -0.653787,1.89485 -0.271224,0.28138 -0.540457,0.47097 -0.668852,0.47097 -0.202656,0 -0.211309,-0.0306 -0.151926,-0.53577 z m 59.362947,0.37457 c -0.03793,-0.0989 0.0089,-0.21289 0.121126,-0.29498 0.155266,-0.11353 0.204251,-0.11254 0.323357,0.007 0.07722,0.0772 0.113669,0.20994 0.08106,0.29498 -0.07811,0.20349 -0.446689,0.19887 -0.525529,-0.007 z m 47.932553,0.0145 c -0.0339,-0.0883 -0.0162,-0.20575 0.039,-0.26109 0.15977,-0.15976 0.46447,-0.0521 0.46447,0.16414 0,0.24931 -0.4144,0.3291 -0.5035,0.0969 z m 22.99687,-0.0493 c -0.22602,-0.22599 -0.23909,-0.32312 -0.0834,-0.619 0.15339,-0.2914 0.27347,-0.35784 0.64998,-0.35959 0.35839,-0.002 0.46887,0.15644 0.37384,0.53506 -0.0686,0.27305 -0.42149,0.63956 -0.61593,0.63956 -0.0706,0 -0.21674,-0.0882 -0.32454,-0.19603 z m -66.12148,-0.24503 c -0.0776,-0.20232 0.0277,-0.44103 0.19451,-0.44103 0.0759,0 0.19298,0.0661 0.2601,0.14702 0.0973,0.11727 0.0973,0.17674 0,0.29401 -0.0672,0.0809 -0.18416,0.14703 -0.2601,0.14703 -0.0759,0 -0.16349,-0.0662 -0.19451,-0.14703 z m 34.01233,-0.67882 c -0.0892,-0.23236 0.037,-0.46705 0.231,-0.42969 0.10851,0.0209 0.17182,0.1224 0.17182,0.27543 0,0.2794 -0.30935,0.39786 -0.40282,0.15426 z m -43.161688,-0.30003 c -0.162854,-0.19622 -0.05439,-0.44229 0.194981,-0.44229 0.111202,0 0.227777,0.0668 0.25907,0.14827 0.05634,0.14676 -0.116299,0.43979 -0.25907,0.43979 -0.04067,0 -0.128442,-0.0656 -0.194981,-0.14577 z m 89.027698,-1.07936 c -0.0776,-0.20233 0.0276,-0.44104 0.19451,-0.44104 0.20062,0 0.3713,0.24361 0.30032,0.42864 -0.0768,0.20022 -0.41946,0.20882 -0.49483,0.0124 z m -29.59917,-0.0982 c -0.10177,-0.26521 0.052,-0.63685 0.26361,-0.63685 0.2727,0 0.34185,0.24791 0.1506,0.53981 -0.18176,0.27739 -0.33154,0.31248 -0.41421,0.097 z m 20.46838,-0.1664 c -0.26025,-0.26025 -0.0683,-0.47045 0.42946,-0.47045 0.30003,0 0.31023,0.23163 0.0192,0.43548 -0.26188,0.18343 -0.2974,0.18622 -0.44865,0.035 z m -63.56291,-0.33978 c -0.12435,-0.12435 -0.0647,-0.43111 0.0958,-0.49271 0.19054,-0.0731 0.43893,0.21656 0.36064,0.42058 -0.0544,0.14201 -0.3413,0.18734 -0.45648,0.0721 z m -7.36155,-0.83855 c -0.19078,-0.27237 -0.19286,-0.46513 -0.008,-0.72926 0.20644,-0.29473 0.61764,-0.37708 0.84691,-0.1696 0.2266,0.20509 0.24384,0.7493 0.0304,0.96267 -0.22861,0.22861 -0.68835,0.19487 -0.86954,-0.0639 z m 39.05518,-0.75547 c -0.0768,-0.1435 -0.0631,-0.22743 0.0569,-0.3474 0.087,-0.0871 0.20505,-0.14259 0.26231,-0.12349 0.17273,0.0575 0.30032,0.32911 0.23483,0.49977 -0.0845,0.21999 -0.43055,0.20195 -0.55408,-0.0289 z m 38.31836,-0.13862 c 0,-0.0725 0.0874,-0.21082 0.19398,-0.30737 0.17762,-0.16076 0.19919,-0.16194 0.25598,-0.0139 0.071,0.18526 -0.11509,0.45314 -0.31494,0.45314 -0.0743,0 -0.13502,-0.0593 -0.13502,-0.13182 z m -81.395989,-0.1 c -0.242951,-0.17766 -0.113649,-0.5523 0.190608,-0.5523 0.205324,0 0.346919,0.16188 0.346919,0.39661 0,0.18149 -0.359743,0.28568 -0.537527,0.15569 z m -9.71221,-0.40098 c -0.07605,-0.30311 0.153279,-0.69462 0.464872,-0.7935 0.29067,-0.0922 0.69361,0.35812 0.650799,0.72741 -0.02754,0.23717 -0.07087,0.26017 -0.54131,0.28734 -0.477546,0.0276 -0.515594,0.0129 -0.574361,-0.22125 z m 104.731619,0.0955 c 0,-0.19546 0.4542,-0.30065 0.63834,-0.14783 0.24281,0.20153 0.16593,0.29298 -0.2463,0.29298 -0.28089,0 -0.39204,-0.0412 -0.39204,-0.14515 z M 86.118354,116.70603 c -0.158502,-0.1585 -0.148466,-0.42084 0.02146,-0.56188 0.180839,-0.15009 0.339694,0.10615 0.275145,0.44381 -0.05027,0.26298 -0.122836,0.29186 -0.296628,0.11807 z m 90.667476,-0.92636 c -0.17381,-0.0704 -0.25993,-0.66526 -0.13114,-0.9059 0.1585,-0.29617 0.62346,-0.2749 0.87102,0.0399 0.24398,0.31017 0.17519,0.59955 -0.187,0.78685 -0.2891,0.14949 -0.35589,0.15906 -0.55288,0.0792 z m -52.76959,-0.7815 c -0.6491,-0.41726 -0.81848,-1.38964 -0.33073,-1.89874 0.37611,-0.39258 0.83505,-0.53718 1.25988,-0.39696 0.93192,0.30755 1.17711,1.42059 0.46353,2.10423 -0.36266,0.34744 -1.0113,0.43662 -1.39268,0.19147 z m 33.68081,1e-4 c -0.20379,-0.20378 -0.16143,-0.81149 0.0666,-0.95422 0.20126,-0.12603 0.6486,0.01 0.79355,0.24066 0.14901,0.23753 0.006,0.62927 -0.27608,0.75795 -0.32981,0.15027 -0.39422,0.14538 -0.58398,-0.0444 z m -59.812579,-0.88625 c -0.199807,-0.08 -0.139614,-0.4087 0.09801,-0.53527 0.274284,-0.1461 0.435362,-0.35622 0.516319,-0.67352 0.144273,-0.56542 0.60229,-0.75928 0.874772,-0.37023 0.316048,0.45123 0.08954,1.08704 -0.374371,1.05084 -0.429313,-0.0335 -0.543849,0.0123 -0.668324,0.26777 -0.134857,0.27663 -0.245089,0.34095 -0.446404,0.26041 z m 14.468559,-0.49171 c -0.57012,-0.35383 -0.74725,-1.16942 -0.38355,-1.76594 0.20043,-0.3287 0.64997,-0.61731 0.96156,-0.61731 0.25185,0 0.93995,0.60724 1.12794,0.99539 0.13652,0.28189 0.13806,0.35946 0.0132,0.66643 -0.21542,0.5297 -0.6583,0.88696 -1.0957,0.88385 -0.2013,-9.9e-4 -0.48186,-0.0744 -0.62348,-0.16242 z m 59.20721,-0.96626 c -0.20898,-0.2518 0.0461,-0.41939 0.29516,-0.19395 0.10909,0.0987 0.19834,0.21675 0.19834,0.2623 0,0.14111 -0.36119,0.091 -0.4935,-0.0683 z m -84.059325,-0.01 c -0.06439,-0.0262 -0.169626,-0.20705 -0.233941,-0.40193 -0.10679,-0.32359 -0.09781,-0.36983 0.103353,-0.53273 0.266088,-0.21547 0.814739,-0.2337 0.981612,-0.0326 0.143075,0.17239 0.05753,0.60773 -0.168793,0.85887 -0.148065,0.16429 -0.433422,0.20965 -0.682231,0.10843 z m 70.461715,-0.64556 c -0.50731,-0.24449 -0.29877,-1.05555 0.27141,-1.05555 0.22117,0 0.32444,0.068 0.43878,0.28916 0.20201,0.39067 0.18811,0.66339 -0.0401,0.7855 -0.2323,0.12432 -0.38133,0.12009 -0.67014,-0.0191 z m 29.9062,-0.0265 c -0.0776,-0.20235 0.0277,-0.44105 0.19451,-0.44105 0.0759,0 0.19299,0.0662 0.2601,0.14701 0.0973,0.11729 0.0973,0.17674 0,0.29404 -0.0672,0.0809 -0.18416,0.147 -0.2601,0.147 -0.0759,0 -0.16348,-0.0662 -0.19451,-0.147 z m -23.5383,-0.36264 c -0.24118,-0.24118 -0.0788,-0.62257 0.36587,-0.85954 0.21222,-0.11309 0.25805,-0.10286 0.41654,0.0929 0.35546,0.43898 0.17369,0.88428 -0.36097,0.88428 -0.16711,0 -0.35676,-0.0529 -0.42144,-0.11761 z m -74.351494,-0.33567 c -0.08311,-0.21664 0.168568,-0.47572 0.382436,-0.39365 0.09949,0.0381 0.149446,0.14679 0.130119,0.28292 -0.03911,0.27523 -0.418024,0.3571 -0.512555,0.11073 z m 4.555114,-0.80869 c -0.170439,-0.31847 -0.120827,-0.57317 0.15372,-0.78914 0.592707,-0.46622 1.127209,-0.0419 0.754385,0.599 -0.233958,0.40214 -0.738145,0.5077 -0.908105,0.19014 z m 33.22,-0.15794 c -0.16286,-0.19623 -0.0544,-0.44229 0.19497,-0.44229 0.11119,0 0.22778,0.0667 0.25907,0.14826 0.0563,0.14678 -0.1163,0.4398 -0.25907,0.4398 -0.0407,0 -0.12844,-0.0656 -0.19497,-0.14577 z m 33.19993,-0.0227 c -0.21153,-0.2344 -0.22098,-0.41965 -0.0215,-0.41965 0.17069,0 0.27418,0.20452 0.22574,0.44614 -0.0293,0.14615 -0.051,0.14332 -0.20431,-0.0265 z m 21.48978,0.0227 c -0.17463,-0.21042 -0.0454,-0.46224 0.21805,-0.42466 0.25118,0.0358 0.35648,0.35795 0.15809,0.48369 -0.18373,0.11643 -0.23753,0.10799 -0.37614,-0.059 z m -78.63303,-0.26558 c -0.53938,-0.72253 -0.60817,-1.15472 -0.22383,-1.40654 0.29027,-0.19019 0.61118,-0.0608 0.69698,0.28114 0.0904,0.36051 0.006,1.37081 -0.1179,1.41167 -0.0625,0.0206 -0.22233,-0.10824 -0.35525,-0.28627 z m -17.124018,-0.10533 c 0,-0.0764 0.09213,-0.22239 0.204764,-0.32431 0.203606,-0.18427 0.204577,-0.18366 0.171518,0.10648 -0.03382,0.2972 -0.376282,0.49543 -0.376282,0.21783 z M 2.9475445,109.12182 c -0.032735,-0.0853 -0.059493,-0.28012 -0.059493,-0.43303 0,-0.37726 -0.091542,-0.58806 -0.2555028,-0.58806 -0.088601,0 -0.1367832,-0.11193 -0.137234,-0.31854 -3.822e-4,-0.17519 -0.025287,-0.62725 -0.055277,-1.0046 -0.045183,-0.56721 -0.033813,-0.65211 0.065372,-0.49004 0.066059,0.1078 0.3399877,0.46064 0.6088298,0.78407 0.5498179,0.66148 0.7817885,1.12934 0.6897667,1.39118 -0.069196,0.1968 -0.621679,0.81406 -0.728667,0.81406 -0.037538,0 -0.09507,-0.0697 -0.1277947,-0.15504 z m 138.7426055,-0.1586 c -0.15756,-0.15757 -0.14936,-0.37243 0.0142,-0.37243 0.16749,0 0.47828,0.33732 0.39112,0.4245 -0.10059,0.10058 -0.27511,0.0782 -0.40534,-0.052 z m -17.26939,-0.39906 c 0,-0.0764 0.0921,-0.2224 0.20476,-0.32433 0.20359,-0.18425 0.20456,-0.18366 0.17151,0.1065 -0.0338,0.2972 -0.37627,0.49544 -0.37627,0.21783 z m 1.80872,-0.50798 c -0.19266,-0.19266 -0.24056,-0.34033 -0.24056,-0.74151 0,-0.27552 0.0429,-0.58096 0.0951,-0.67876 0.14334,-0.26782 0.81787,-0.49538 1.46839,-0.49538 0.68046,0 0.74615,0.093 0.64419,0.91229 -0.12753,1.02472 -0.34547,1.24393 -1.23669,1.24393 -0.38947,0 -0.53923,-0.0492 -0.73048,-0.24057 z m -36.2758,-0.20807 c -0.03263,-0.0851 0.01284,-0.2268 0.101088,-0.31504 0.148554,-0.14855 0.172283,-0.14855 0.320837,0 0.200381,0.20039 0.108409,0.46966 -0.160423,0.46966 -0.111194,0 -0.228864,-0.0696 -0.261502,-0.15462 z m 4.805423,-0.28643 c -0.07763,-0.20233 0.02764,-0.44105 0.194502,-0.44105 0.07595,0 0.193001,0.0662 0.260099,0.14702 0.09732,0.11729 0.09732,0.17674 0,0.29403 -0.06717,0.0809 -0.184155,0.14702 -0.260099,0.14702 -0.07594,0 -0.163472,-0.0662 -0.194502,-0.14702 z m 58.149967,0.0817 c -0.11995,-0.11995 -0.0673,-0.43014 0.083,-0.48775 0.23748,-0.0911 0.45468,0.14614 0.33628,0.36737 -0.0996,0.18616 -0.29681,0.24278 -0.4192,0.12038 z m -21.6058,-0.47928 c -0.14894,-0.10433 -0.21781,-0.25306 -0.21781,-0.47044 0,-0.56022 0.35819,-0.71311 0.81985,-0.34996 0.30824,0.24245 0.32964,0.50956 0.0623,0.77696 -0.23589,0.2359 -0.37638,0.2451 -0.66427,0.0435 z m -45.757022,-0.68021 c -0.03392,-0.0883 -0.01628,-0.20576 0.03901,-0.2611 0.159766,-0.15977 0.46447,-0.0521 0.46447,0.16414 0,0.2493 -0.414416,0.32911 -0.503507,0.0969 z m 46.949572,-0.28709 c -0.0892,-0.23237 0.0369,-0.46704 0.23101,-0.42968 0.1085,0.0209 0.17181,0.1224 0.17181,0.27543 0,0.27939 -0.30935,0.39786 -0.40282,0.15425 z m 17.27101,-0.0153 c -0.0719,-0.18735 0.0957,-0.43285 0.29561,-0.43285 0.19327,0 0.16654,0.23511 -0.049,0.43008 -0.17129,0.15502 -0.18822,0.15521 -0.24671,0.003 z m 18.91713,-0.77832 c -0.19983,-0.19982 -0.0492,-0.53662 0.23997,-0.53662 0.23403,0 0.35664,0.26053 0.2226,0.47303 -0.14052,0.22276 -0.28371,0.24245 -0.46257,0.0637 z m -45.28985,-0.1406 c -0.0771,-0.12474 0.15847,-0.49404 0.31515,-0.49404 0.15683,0 0.16074,0.31553 0.006,0.47046 -0.14205,0.14204 -0.24316,0.14949 -0.32097,0.0237 z m 14.65153,0 c -0.13395,-0.0337 -0.30773,-0.17565 -0.38619,-0.31544 -0.12721,-0.22661 -0.12446,-0.28195 0.0253,-0.51048 0.34429,-0.52545 1.09168,-0.20951 1.02791,0.43451 -0.035,0.35477 -0.26843,0.49169 -0.667,0.39141 z m 14.52856,-0.006 c -0.16626,-0.0678 -0.22012,-0.16897 -0.21888,-0.41152 0.002,-0.39502 0.49265,-1.39979 0.68353,-1.39979 0.27286,0 0.39475,1.16912 0.1685,1.6163 -0.13874,0.27426 -0.30945,0.32684 -0.63315,0.19501 z m -50.67865,-0.41851 c -0.0846,-0.10187 -0.0799,-0.17853 0.0193,-0.31415 0.17727,-0.24243 0.47801,-0.12547 0.43593,0.16953 -0.0366,0.25688 -0.29421,0.33869 -0.45527,0.14462 z m -18.67473,-0.62209 c -0.426365,-0.42625 -0.291678,-0.81961 0.280662,-0.81961 0.167107,0 0.356758,0.0529 0.421444,0.11761 0.257154,0.25715 0.06341,0.9605 -0.26451,0.9605 -0.09856,0 -0.295482,-0.11627 -0.437596,-0.25839 z m 97.60619,-0.39131 c -0.0877,-0.0879 -0.13505,-0.22373 -0.105,-0.30204 0.0301,-0.0783 0.0545,-0.17974 0.0545,-0.2254 0,-0.16179 0.3112,-0.39101 0.53086,-0.39101 0.47831,0 0.75759,0.76261 0.35767,0.97665 -0.27959,0.14963 -0.6565,0.12345 -0.83816,-0.0582 z m -94.378214,-0.0924 c -0.383848,-0.38384 -0.0059,-1.05838 0.562333,-1.00338 0.276036,0.0268 0.316456,0.069 0.344271,0.35954 0.05587,0.58396 -0.541938,1.00851 -0.906604,0.64384 z m 33.923914,-0.0206 c -0.42782,-0.47276 -0.054,-1.14956 0.48801,-0.88347 0.40203,0.19737 0.50016,0.42258 0.32261,0.74037 -0.1852,0.33147 -0.57747,0.40073 -0.81062,0.1431 z m 38.70022,-0.0433 c -0.19529,-0.27883 -0.19469,-0.60814 9.8e-4,-0.80429 0.20533,-0.20532 0.35657,-0.19416 0.66585,0.0491 0.30119,0.2369 0.33457,0.57951 0.079,0.81078 -0.24959,0.22587 -0.56563,0.20232 -0.7463,-0.0556 z m -19.36258,-0.20073 c 0,-0.0764 0.0921,-0.22241 0.20477,-0.32432 0.2036,-0.18427 0.20457,-0.18367 0.17151,0.10648 -0.0338,0.2972 -0.37628,0.49544 -0.37628,0.21784 z m 17.93588,0.076 c 0,-0.16673 0.21984,-0.44141 0.3533,-0.44141 0.24903,0 0.1266,0.43553 -0.13278,0.47237 -0.12128,0.0172 -0.22052,0.003 -0.22052,-0.031 z m 38.42002,-0.0385 c 0,-0.048 0.085,-0.19127 0.18874,-0.31854 0.17031,-0.2088 0.19525,-0.21465 0.2555,-0.0599 0.0972,0.24981 -0.0163,0.46554 -0.24515,0.46554 -0.1095,0 -0.19909,-0.0392 -0.19909,-0.0871 z m -85.10671,-0.38611 c -0.1848,-0.2042 -0.20929,-0.52976 -0.0608,-0.80731 0.14342,-0.26799 0.62823,-0.25137 0.82408,0.0282 0.20932,0.29884 0.19234,0.43739 -0.088,0.71774 -0.28701,0.287 -0.45712,0.30245 -0.67533,0.0614 z m -20.286974,-0.27816 c -0.12906,-0.12905 -0.06185,-0.32668 0.111075,-0.32668 0.18179,0 0.411644,0.17511 0.411644,0.31362 0,0.0945 -0.430442,0.10534 -0.522719,0.013 z m 57.976314,-0.0522 c -0.0648,-0.0648 -0.1176,-0.17197 -0.1176,-0.23842 0,-0.17821 0.37879,-0.26703 0.54623,-0.12806 0.127,0.10542 0.12457,0.14251 -0.0199,0.30213 -0.19318,0.21348 -0.25056,0.22252 -0.40873,0.0645 z m 35.78667,-0.0369 c -0.0326,-0.0851 0.0128,-0.2268 0.10109,-0.31503 0.14855,-0.14856 0.17229,-0.14856 0.32083,0 0.20038,0.20038 0.1084,0.46966 -0.16041,0.46966 -0.1112,0 -0.22887,-0.0697 -0.26151,-0.15463 z m -56.0764,-1.09501 c 0.0222,-0.19299 0.0936,-0.27844 0.25155,-0.30085 0.25949,-0.0368 0.27701,0.054 0.0679,0.35255 -0.20851,0.29767 -0.35692,0.27367 -0.31949,-0.0517 z m -24.08826,-0.36755 c -0.0805,-0.32083 0.026,-0.72902 0.20846,-0.79905 0.19282,-0.0739 0.61569,0.21192 0.75027,0.5073 0.15285,0.33547 -0.0419,0.53678 -0.51905,0.53678 -0.32165,0 -0.38738,-0.0366 -0.43968,-0.24503 z m 26.89017,-0.29941 c -0.91675,-0.47725 -1.016,-1.460255 -0.21136,-2.093179 0.34627,-0.272383 1.0408,-0.279731 1.30671,-0.01379 0.28864,0.288636 0.42534,0.908833 0.3016,1.368359 -0.0924,0.34324 -0.66608,0.99733 -0.86341,0.98449 -0.0385,-0.003 -0.27865,-0.11314 -0.53354,-0.24585 z m 63.25387,-1.502521 c -0.18286,-0.115877 -0.10108,-0.442454 0.12155,-0.485322 0.2351,-0.04531 0.36722,0.167569 0.24533,0.395272 -0.1052,0.196607 -0.17263,0.213145 -0.36688,0.09003 z m -85.51361,-0.484474 c -0.21422,-0.236705 -0.20615,-0.632716 0.017,-0.834681 0.2237,-0.202448 0.40216,-0.20498 0.68104,-0.0099 0.27196,0.190491 0.2819,0.567441 0.0218,0.827532 -0.24416,0.244152 -0.50853,0.250318 -0.71988,0.01674 z m 7.52375,-0.0059 c -0.31785,-0.193829 -0.62922,-0.730005 -0.62922,-1.083533 0,-0.379797 0.38354,-0.984993 0.72843,-1.149478 0.41807,-0.199355 0.7836,-0.113246 1.14031,0.26861 0.55099,0.58983 0.43082,1.531452 -0.24907,1.951645 -0.39664,0.245148 -0.60495,0.247817 -0.99045,0.0127 z m 9.38041,-0.04512 c -0.0602,-0.0725 -0.13644,-0.266896 -0.16945,-0.431953 -0.0495,-0.247916 -0.0174,-0.328026 0.18507,-0.460676 0.29562,-0.193701 0.71512,-0.11692 0.86214,0.157807 0.0834,0.155699 0.0416,0.248428 -0.23781,0.527785 -0.37138,0.371366 -0.47558,0.405082 -0.63995,0.207037 z m 27.30181,-0.239746 c -0.20033,-0.22136 -0.21449,-0.412519 -0.0305,-0.412519 0.21412,0 0.38283,0.261784 0.28331,0.439616 -0.0781,0.139546 -0.10453,0.136709 -0.25277,-0.02709 z M 81.021823,98.377958 c -0.178526,-0.178542 -0.141831,-0.712186 0.06165,-0.896303 0.244731,-0.221488 0.433725,-0.203679 0.685778,0.06472 0.272419,0.289975 0.269047,0.470506 -0.01372,0.736171 -0.251297,0.236086 -0.553708,0.275446 -0.733665,0.09545 z m 6.807299,-0.06166 c -0.320846,-0.354543 -0.08889,-0.996893 0.36007,-0.996893 0.225149,0 0.555837,0.349863 0.555837,0.588057 0,0.245906 -0.333323,0.588067 -0.572871,0.588067 -0.09945,0 -0.253817,-0.08067 -0.343036,-0.179231 z m 58.391968,-0.06265 c -0.34514,-0.526731 0.28532,-1.200551 0.73905,-0.789914 0.38834,0.35143 0.14434,1.031792 -0.37002,1.031792 -0.11581,0 -0.28187,-0.108854 -0.36903,-0.241878 z m 26.51871,-0.640212 c -0.21774,-0.217755 -0.25986,-0.681032 -0.0784,-0.862489 0.28216,-0.282154 0.9605,0.0528 0.9605,0.474269 0,0.227053 -0.32957,0.584235 -0.53906,0.584235 -0.0809,0 -0.23522,-0.08825 -0.34304,-0.196015 z m 16.10433,0.119018 c -0.23604,-0.150076 -0.32072,-0.571096 -0.16082,-0.799389 0.2024,-0.288962 0.58135,-0.425453 0.82268,-0.29629 0.33899,0.181418 0.16728,0.866054 -0.26688,1.063872 -0.27992,0.127539 -0.24843,0.124998 -0.39498,0.03182 z M 97.859974,96.697533 c 0,-0.0725 0.08737,-0.21083 0.193977,-0.30738 0.177626,-0.160752 0.199207,-0.161924 0.255992,-0.01389 0.07102,0.185259 -0.115097,0.45314 -0.314954,0.45314 -0.07427,0 -0.135015,-0.05929 -0.135015,-0.131823 z m 41.751766,-0.01586 c -0.10844,-0.13068 -0.10422,-0.181506 0.026,-0.311645 0.21019,-0.21018 0.4873,-0.09338 0.4471,0.188402 -0.0383,0.268442 -0.29663,0.335757 -0.47302,0.123243 z M 106.1474,95.925497 c -0.084,-0.119795 -0.15258,-0.286409 -0.15258,-0.370222 0,-0.260839 0.29461,-0.588066 0.52943,-0.588066 0.5065,0 0.74385,0.73427 0.33086,1.023555 -0.30207,0.211559 -0.52843,0.190697 -0.70771,-0.0653 z m 9.27823,-0.620807 c -0.38952,-0.272826 -0.18222,-1.023556 0.28262,-1.023556 0.2398,0 0.55184,0.27585 0.62022,0.548292 0.12776,0.50902 -0.43314,0.804265 -0.90284,0.475264 z m 21.10826,-0.0069 c -0.0832,-0.216641 0.16858,-0.475736 0.38244,-0.393666 0.0995,0.03812 0.14945,0.146795 0.13011,0.282932 -0.0391,0.27521 -0.418,0.357084 -0.51255,0.110734 z M 83.962124,95.1434 c -0.06469,-0.06472 -0.117606,-0.264109 -0.117606,-0.443153 0,-0.434387 0.372001,-0.633643 0.768012,-0.411367 0.349533,0.196193 0.37384,0.427245 0.07625,0.724815 -0.267618,0.267605 -0.540136,0.316245 -0.726679,0.129705 z m 75.565906,-0.196026 c -0.20456,-0.204565 -0.13241,-0.372439 0.16007,-0.372439 0.35149,0 0.42691,0.07624 0.30347,0.306907 -0.11244,0.210121 -0.29339,0.235701 -0.46354,0.0655 z m 18.17964,-0.255292 c -0.42266,-0.441154 -0.29838,-0.803211 0.27569,-0.803211 0.16711,0 0.35676,0.0529 0.42145,0.117609 0.25482,0.25482 0.0642,0.960497 -0.25956,0.960497 -0.0958,0 -0.29274,-0.123708 -0.43758,-0.274895 z m -44.90654,-0.115581 c -0.15133,-0.476771 0.52172,-1.084321 0.87574,-0.790504 0.23292,0.193307 0.18431,0.553956 -0.10537,0.781827 -0.33133,0.260621 -0.68914,0.26466 -0.77037,0.0089 z M 90.128933,94.204895 c -0.111761,-0.208831 0.02921,-0.512015 0.238135,-0.512015 0.09713,0 0.142144,0.108675 0.142144,0.343038 0,0.37829 -0.216719,0.474603 -0.380279,0.168977 z m 21.447007,-0.986797 c -0.25633,-0.207559 -0.30813,-0.762855 -0.0845,-0.904488 0.24057,-0.152281 0.53812,-0.09897 0.75883,0.135951 0.27296,0.290565 0.26821,0.413031 -0.0275,0.708708 -0.28831,0.288311 -0.35699,0.294664 -0.647,0.05979 z m 26.31139,0.105741 c -0.42947,-0.286773 -0.34112,-0.894846 0.1602,-1.102504 0.64083,-0.265439 0.92618,0.361063 0.40284,0.884415 -0.30653,0.306523 -0.38504,0.336939 -0.56304,0.218089 z M 94.746735,93.003526 c -0.450818,-0.181112 -0.543467,-0.974483 -0.194599,-1.666323 0.407586,-0.80827 1.398785,-0.889266 1.848921,-0.151092 0.388209,0.636633 0.146952,1.420164 -0.532285,1.728538 -0.444976,0.202034 -0.775267,0.228186 -1.122037,0.08884 z m 9.203685,-0.02886 c -0.16655,-0.200665 -0.0298,-0.473884 0.21919,-0.438355 0.14831,0.02118 0.20805,0.09966 0.20805,0.273377 0,0.279593 -0.25152,0.376715 -0.42724,0.164978 z m 35.75993,-0.03881 c 0,-0.191474 0.17379,-0.418823 0.32014,-0.418823 0.0468,0 0.0709,0.120909 0.0539,0.268689 -0.0361,0.313349 -0.37405,0.448974 -0.37405,0.150134 z m 4.86144,-0.04689 c -0.18376,-0.28046 -0.11253,-0.592489 0.12491,-0.547268 0.18725,0.03566 0.26051,0.393273 0.12879,0.628659 -0.0822,0.146745 -0.11009,0.137773 -0.2537,-0.08136 z M 86.916657,92.561782 c -0.03196,-0.08323 -0.03077,-0.178552 0.003,-0.211934 0.08361,-0.08363 0.551582,0.139535 0.551582,0.263065 0,0.160506 -0.490395,0.115265 -0.554239,-0.05112 z m 104.317283,0.01891 c -0.03,-0.0785 -9.7e-4,-0.215508 0.0637,-0.304543 0.16277,-0.222581 0.47594,-0.09368 0.43691,0.179793 -0.0347,0.244143 -0.41806,0.339649 -0.50053,0.12475 z m -55.73802,-0.788288 c 0,-0.241492 0.26422,-0.422536 0.40751,-0.279248 0.0898,0.08983 -0.17003,0.513787 -0.31506,0.513787 -0.0508,0 -0.0924,-0.105552 -0.0924,-0.234539 z m 28.73725,-0.651545 c -0.16473,-0.263785 -0.0662,-0.419494 0.18172,-0.286867 0.21032,0.112564 0.26154,0.486877 0.0667,0.486877 -0.068,0 -0.17965,-0.08997 -0.24834,-0.20001 z M 109.06058,90.64971 c -0.39366,-0.15277 -0.41123,-0.867627 -0.0264,-1.073586 0.4128,-0.220924 0.96795,0.371586 0.71856,0.766941 -0.16863,0.267342 -0.46038,0.396598 -0.69216,0.306645 z m 48.96722,-0.03038 c -0.28944,-0.143752 -0.34984,-0.485876 -0.14186,-0.803331 0.29671,-0.452808 0.93641,-0.17441 0.93641,0.407516 0,0.365099 -0.42755,0.578095 -0.79455,0.395815 z M 89.956709,90.508155 c -0.03392,-0.08821 -0.01628,-0.205754 0.03901,-0.26109 0.159766,-0.159767 0.46447,-0.05205 0.46447,0.164138 0,0.249299 -0.414416,0.329099 -0.503507,0.09693 z m 4.802394,-0.294315 c -0.07763,-0.202342 0.02764,-0.441046 0.194502,-0.441046 0.07595,0 0.193001,0.06615 0.260099,0.147016 0.09732,0.117288 0.09732,0.176731 0,0.29403 -0.06717,0.08085 -0.184155,0.147015 -0.260099,0.147015 -0.07594,0 -0.163472,-0.06615 -0.194502,-0.147015 z m 56.974797,-0.0299 c -0.2097,-0.231716 -0.2114,-0.434784 -0.003,-0.393825 0.23057,0.04538 0.40066,0.34229 0.2706,0.472351 -0.072,0.07203 -0.15246,0.04841 -0.26732,-0.07851 z m -4.30037,-0.75813 c -0.15337,-0.336606 9.9e-4,-0.76987 0.28904,-0.811181 0.26266,-0.03764 0.7107,0.378545 0.7107,0.660207 0,0.434214 -0.81464,0.557238 -0.99974,0.150974 z M 85.956813,89.224816 c -0.119024,-0.119023 -0.135019,-0.194364 -0.05773,-0.271703 0.129805,-0.129797 0.444652,0.03597 0.444652,0.234136 0,0.199499 -0.205115,0.219415 -0.386963,0.03754 z m 1.995881,-1.188923 c -0.115299,-0.303263 0.0079,-0.681896 0.25319,-0.775888 0.194414,-0.07459 0.62556,0.211888 0.729588,0.484798 0.115447,0.302851 -0.136459,0.557844 -0.551093,0.557844 -0.269283,0 -0.348994,-0.0493 -0.431685,-0.266754 z m 52.305586,0.107517 c -0.0362,-0.09468 -0.006,-0.228471 0.0681,-0.302812 0.18743,-0.187436 0.47942,-0.05224 0.44273,0.204988 -0.0376,0.263531 -0.41924,0.336607 -0.51087,0.09781 z m 10.19306,0 c -0.0832,-0.216642 0.16859,-0.475731 0.38246,-0.393668 0.0995,0.03813 0.14944,0.14681 0.1301,0.282936 -0.0391,0.275223 -0.41801,0.357091 -0.51256,0.110732 z m -48.24167,-0.669153 c -0.1,-0.26058 0.0562,-0.355227 0.31089,-0.188356 0.13196,0.08644 0.23994,0.196226 0.23994,0.243937 0,0.145948 -0.49257,0.09624 -0.55083,-0.05557 z m 62.23749,-0.291483 c -0.0892,-0.232371 0.037,-0.467057 0.231,-0.429686 0.1085,0.02087 0.17182,0.122386 0.17182,0.275429 0,0.279387 -0.30935,0.397853 -0.40282,0.154257 z m -17.05948,-0.40689 c -0.0326,-0.08507 0.0128,-0.226804 0.10109,-0.315033 0.14854,-0.148544 0.17229,-0.148544 0.32083,0 0.20037,0.200382 0.10841,0.469655 -0.16042,0.469655 -0.11119,0 -0.22887,-0.06959 -0.2615,-0.154622 z m 39.79518,-1.364252 c -0.0338,-0.08831 -0.0162,-0.205754 0.039,-0.26109 0.15977,-0.159766 0.46447,-0.05214 0.46447,0.164138 0,0.249298 -0.41441,0.329098 -0.50351,0.09693 z m -36.54034,-0.759354 c -0.16027,-0.228824 -0.071,-0.335529 0.19523,-0.233353 0.15684,0.06017 0.20136,0.453366 0.0513,0.453366 -0.0508,0 -0.1618,-0.09901 -0.24656,-0.220013 z M 96.042614,84.354503 c -0.31194,-0.268333 -0.441744,-1.018033 -0.241148,-1.392844 0.279711,-0.522639 1.469506,-0.647484 1.915949,-0.201049 0.85841,0.858414 -0.750139,2.389246 -1.674801,1.593893 z m 59.415676,0.04685 c -0.20971,-0.231715 -0.2114,-0.434783 -0.003,-0.393824 0.23057,0.04538 0.40068,0.342291 0.27062,0.47235 -0.072,0.07204 -0.15247,0.04841 -0.26734,-0.07851 z m -8.97037,-0.889942 c -0.19336,-0.122532 -0.0954,-0.447485 0.14517,-0.481985 0.24578,-0.03519 0.38498,0.2374 0.2217,0.434146 -0.12919,0.155669 -0.18519,0.162972 -0.36687,0.04783 z m 47.25059,0.02186 c -0.16478,-0.06645 -0.15693,-0.42514 0.01,-0.42514 0.0725,0 0.20672,0.08272 0.29827,0.183917 0.15241,0.168411 0.15301,0.189052 0.007,0.245026 -0.0877,0.03362 -0.16668,0.05763 -0.17575,0.05342 -0.009,-0.004 -0.0716,-0.03 -0.139,-0.05714 z M 86.692017,83.065375 c -0.260579,-0.313975 0.496315,-0.904889 0.86398,-0.674516 0.231481,0.145045 0.261237,0.534627 0.05253,0.687259 -0.233147,0.170488 -0.770616,0.163009 -0.916474,-0.01275 z m 63.667643,-0.03851 c -0.20331,-0.22465 -0.20667,-0.497735 -0.01,-0.779063 0.17928,-0.255954 0.40564,-0.276821 0.7077,-0.06527 0.27196,0.190493 0.2819,0.56745 0.0218,0.82753 -0.24416,0.244163 -0.50852,0.250328 -0.71987,0.01676 z m 30.92835,0.05675 c -0.27054,-0.329138 -0.12891,-0.924864 0.24201,-1.017954 0.20765,-0.05214 0.30652,-0.01166 0.48855,0.19999 0.27867,0.323982 0.27994,0.358256 0.0251,0.682229 -0.21595,0.274537 -0.58682,0.341155 -0.75566,0.135735 z M 136.9334,82.454706 c -0.12556,-0.12556 -0.0639,-0.404273 0.10358,-0.468567 0.19776,-0.07586 0.43283,0.18817 0.35291,0.396423 -0.0545,0.142007 -0.3413,0.187336 -0.45649,0.07213 z m 25.77669,-0.686071 c -0.12907,-0.129061 -0.0619,-0.326698 0.11107,-0.326698 0.1818,0 0.41165,0.175124 0.41165,0.313633 0,0.09458 -0.43044,0.105341 -0.52272,0.01303 z m -29.23986,-0.775349 c -0.0326,-0.08507 0.004,-0.21778 0.0811,-0.294982 0.11911,-0.119122 0.16809,-0.120112 0.32336,-0.0069 0.22821,0.166872 0.13759,0.456178 -0.14291,0.456178 -0.11119,0 -0.22887,-0.06959 -0.26149,-0.15462 z m 36.97337,-0.293404 c -0.20423,-0.204234 -0.17143,-0.813711 0.0512,-0.953131 0.23687,-0.148269 0.66949,0.004 0.79511,0.279575 0.0932,0.204615 0.0789,0.289249 -0.0866,0.511849 -0.23911,0.321463 -0.53666,0.384798 -0.75974,0.161707 z m -30.22139,-0.684651 c -0.2704,-0.189395 -0.27886,-0.472467 -0.0219,-0.729519 0.28522,-0.28522 0.72436,-0.258042 0.86635,0.05361 0.15263,0.334969 0.14332,0.490866 -0.0403,0.674458 -0.19615,0.196147 -0.52545,0.196745 -0.80428,9.8e-4 z m 10.99795,-0.281034 c -0.23682,-0.173174 -0.11365,-0.472204 0.17747,-0.430864 0.13752,0.0195 0.23218,0.109949 0.25066,0.239431 0.0366,0.256728 -0.19637,0.360902 -0.42813,0.191433 z m 15.24354,-0.403626 c -0.19174,-0.231039 0.0145,-0.369165 0.27697,-0.185406 0.11909,0.08341 0.21654,0.193277 0.21654,0.244124 0,0.148691 -0.35658,0.106272 -0.49351,-0.05871 z m -29.5303,-0.600244 c -0.0894,-0.08939 -0.0829,-0.425454 0.008,-0.421591 0.13285,0.0059 0.41655,0.261188 0.41655,0.375222 0,0.119905 -0.31662,0.154474 -0.42471,0.04636 z m 4.67923,-0.06959 c -0.071,-0.18526 0.11509,-0.453141 0.31495,-0.453141 0.19683,0 0.16508,0.23645 -0.059,0.439194 -0.17763,0.160756 -0.1992,0.161932 -0.25599,0.01392 z m -9.0897,-0.910526 c -0.11995,-0.119944 -0.0673,-0.430137 0.083,-0.487747 0.23747,-0.09115 0.45468,0.146143 0.33628,0.367362 -0.0996,0.186161 -0.29681,0.242781 -0.41921,0.120385 z m 24.75307,-0.08723 c -0.27812,-0.194796 -0.27715,-0.445937 0.003,-0.697823 0.35007,-0.315103 0.54035,-0.342997 0.7079,-0.103792 0.24112,0.34425 0.19349,0.746377 -0.10171,0.858608 -0.3283,0.124816 -0.35256,0.122542 -0.60888,-0.05695 z m -8.51618,-1.766223 c -0.0326,-0.08507 0.0128,-0.226805 0.10109,-0.315035 0.14855,-0.148544 0.17229,-0.148544 0.32083,0 0.20038,0.200383 0.10841,0.469646 -0.16041,0.469646 -0.11119,0 -0.22888,-0.06959 -0.26151,-0.154611 z m 2.55173,-3.277805 c -0.62044,-0.439292 -0.64607,-0.77577 -0.0822,-1.077603 0.24791,-0.132677 0.27692,-0.124738 0.50255,0.137567 0.19222,0.223463 0.23366,0.366509 0.21004,0.725089 -0.0161,0.245693 -0.0735,0.459089 -0.12743,0.474233 -0.0539,0.01509 -0.28029,-0.101549 -0.50307,-0.259286 z m 16.45155,-0.05253 c -0.27722,-0.194169 -0.28818,-0.659177 -0.0218,-0.92554 0.26785,-0.267853 0.36321,-0.248025 0.58914,0.122513 0.24146,0.396049 0.24522,0.58568 0.0156,0.793392 -0.22209,0.200981 -0.30784,0.202392 -0.58304,0.0099 z m -25.59904,-1.115122 c -0.23227,-0.434008 0.003,-0.986541 0.42081,-0.986541 0.22515,0 0.55584,0.349857 0.55584,0.588062 0,0.478671 -0.76639,0.791363 -0.97665,0.398479 z m 15.44203,-2.321902 c -0.0832,-0.216641 0.16859,-0.475731 0.38245,-0.393667 0.0995,0.03813 0.14944,0.146808 0.13011,0.282936 -0.0391,0.275222 -0.41802,0.357081 -0.51256,0.110731 z m -16.90606,-0.226881 c -0.0698,-0.04313 -0.1109,-0.161345 -0.0913,-0.262698 0.0461,-0.239036 0.5065,-0.255198 0.55193,-0.0194 0.038,0.197274 -0.28131,0.392834 -0.46054,0.282064 z M 159.992,68.634535 c -0.12116,-0.318669 -0.034,-0.779573 0.1617,-0.854649 0.19537,-0.07497 0.53085,0.280467 0.53085,0.562462 0,0.238332 -0.27114,0.554248 -0.4757,0.554248 -0.0645,0 -0.16205,-0.117926 -0.21685,-0.262061 z m 2.11369,-1.90033 c -6.33873,-0.626197 -11.65188,-5.399737 -12.93744,-11.623529 -1.00223,-4.852144 0.48615,-9.790617 4.01397,-13.318446 5.76467,-5.764669 14.92457,-5.764669 20.68925,0 5.76467,5.764669 5.76467,14.924559 0,20.689223 -3.1438,3.143787 -7.40402,4.683644 -11.76578,4.252752 z m -18.12461,-0.353267 c -0.0345,-0.08987 -0.0264,-0.199726 0.018,-0.244114 0.0899,-0.08987 0.51379,0.170027 0.51379,0.315073 0,0.161618 -0.46643,0.09938 -0.53178,-0.07096 z m 4.74621,-0.02058 c 0,-0.259012 0.26823,-0.469047 0.41348,-0.323796 0.0829,0.08282 0.0655,0.161638 -0.0683,0.309486 -0.22423,0.247771 -0.34513,0.252789 -0.34513,0.01432 z m -9.11555,-0.943809 c -0.10844,-0.130678 -0.10422,-0.181496 0.026,-0.311633 0.21019,-0.210183 0.4873,-0.09341 0.4471,0.188395 -0.0383,0.26845 -0.29663,0.335753 -0.47302,0.123238 z m 4.846,-3.684558 c -0.0366,-0.05939 0.0253,-0.199735 0.13742,-0.311986 0.18527,-0.185278 0.20997,-0.188768 0.26788,-0.03784 0.10831,0.282249 -0.25386,0.594892 -0.4053,0.349857 z m -10.23251,-3.021984 c -0.29539,-0.551944 0.0871,-1.031921 0.66207,-0.830588 0.36,0.126081 0.39468,0.458934 0.0806,0.773056 -0.29487,0.294855 -0.60285,0.318719 -0.74263,0.05753 z m 10.44506,-2.121853 c -0.0719,-0.187346 0.0957,-0.432853 0.29561,-0.432853 0.19329,0 0.16654,0.235108 -0.0489,0.43009 -0.1713,0.155012 -0.18823,0.155198 -0.24672,0.003 z m -30.8451,-2.330467 c -0.31792,-0.157895 -0.35257,-0.493209 -0.0713,-0.69019 0.42103,-0.294892 0.86588,-0.14478 0.86588,0.292169 0,0.367175 -0.42651,0.580819 -0.79455,0.398021 z m 2.51619,-1.161217 c -0.1695,-0.241987 -0.0766,-0.411094 0.17316,-0.315249 0.17034,0.06537 0.23257,0.531784 0.0709,0.531784 -0.0508,0 -0.1607,-0.09743 -0.24411,-0.216535 z m 7.94123,-2.68699 c -0.0363,-0.09468 -0.006,-0.228471 0.068,-0.302812 0.18744,-0.187435 0.47943,-0.05224 0.44273,0.204998 -0.0376,0.26352 -0.41923,0.336597 -0.51086,0.09781 z m 7.34837,-2.409542 c -0.1695,-0.241988 -0.0766,-0.411095 0.17317,-0.315251 0.17033,0.06537 0.23256,0.531785 0.0709,0.531785 -0.0508,0 -0.1607,-0.09743 -0.24411,-0.216534 z m -19.0149,-0.687366 c -0.084,-0.119808 -0.15258,-0.286415 -0.15258,-0.370234 0,-0.260835 0.2946,-0.588061 0.52943,-0.588061 0.49176,0 0.7143,0.618464 0.35267,0.980102 -0.25706,0.257052 -0.54012,0.248594 -0.72952,-0.02176 z m 7.65557,-1.219659 c -0.12415,-0.12416 -0.0648,-0.403949 0.0991,-0.466833 0.21244,-0.08155 0.44927,0.155337 0.36777,0.367764 -0.063,0.163843 -0.34267,0.223228 -0.46684,0.09907 z m -5.12643,-3.11999 c -0.0776,-0.202332 0.0277,-0.441046 0.19451,-0.441046 0.0759,0 0.19299,0.06615 0.2601,0.147015 0.0973,0.117289 0.0973,0.176742 0,0.294031 -0.0671,0.08086 -0.18414,0.147015 -0.2601,0.147015 -0.0759,0 -0.16348,-0.06615 -0.19451,-0.147015 z m -7.08826,-4.503767 c -0.28522,-0.343643 0.0959,-0.747886 0.55352,-0.586974 0.49672,0.174684 0.37095,0.729286 -0.1654,0.729286 -0.14852,0 -0.32318,-0.064 -0.38812,-0.142312 z m 10.58119,-2.967231 c 0,-0.191473 0.17379,-0.418827 0.32014,-0.418827 0.0468,0 0.0709,0.120906 0.0539,0.268686 -0.0361,0.313358 -0.37405,0.448984 -0.37405,0.150141 z M 98.907663,33.205802 c -0.219429,-0.122797 -0.21212,-0.376958 0.01073,-0.376958 0.175646,0 0.411643,0.173792 0.411643,0.303145 0,0.123602 -0.25414,0.16801 -0.422468,0.07381 z m 7.916097,-0.516553 c -0.18379,-0.280496 -0.143,-0.409096 0.10016,-0.315789 0.20259,0.07773 0.2992,0.344408 0.17116,0.472448 -0.0705,0.07057 -0.15406,0.02226 -0.27132,-0.156659 z"
         id="path1060" /><circle
         style="fill:none;stroke:#f1f5f9;stroke-width:3.97951;stroke-dasharray:none;stroke-opacity:1"
         id="circle1062"
         cx="100"
         cy="100"
         r="98.010246" /><path
         style="fill:none;fill-opacity:1;stroke:#f1f5f9;stroke-width:2.98463;stroke-dasharray:none;stroke-opacity:1"
         d="m 102.57351,142.55808 c -0.30844,-0.15116 -1.45001,-2.01473 -3.917722,-4.08042 -2.703804,-2.26329 -7.047818,-5.10495 -7.869558,-8.82657 -0.932321,-4.2224 -5.210932,-9.17353 -8.397101,-15.38879 -2.702995,-5.27276 -4.498038,-11.77589 -4.073765,-16.152371 0.35675,-3.679991 1.146629,-6.140873 1.766859,-9.045374 1.270772,-5.950946 6.07453,-10.721232 14.246733,-14.895326"
         id="path1133"
         sodipodi:nodetypes="csssssc" /><g
         id="g1345"
         style="fill:#f1f5f9;fill-opacity:1"><g
           aria-label="Wave"
           id="text292"
           style="font-size:56.4444px;font-family:'Source Code Pro';-inkscape-font-specification:'Source Code Pro';fill:#f1f5f9;stroke-width:1.4;fill-opacity:1"
           transform="matrix(1.3130304,0,0,1.3130304,-74.90686,-35.249594)"><path
             d="m 245.51832,50.23726 6.60399,29.351088 h 6.03956 l 9.14399,-39.51108 h -5.02355 l -7.112,33.415085 h -0.22578 L 247.7761,40.077268 h -4.74133 l -7.16844,33.415085 h -0.22578 L 228.52856,40.077268 H 223.505 l 9.144,39.51108 h 6.03955 l 6.60399,-29.351088 z"
             style="font-weight:bold;font-family:Noway;-inkscape-font-specification:'Noway Bold';fill:#f1f5f9;fill-opacity:1"
             id="path543" /><path
             d="m 288.30318,59.437697 c -7.45066,0 -17.6671,2.539998 -17.6671,11.683991 0,5.079996 3.49955,8.918216 9.59555,8.918216 4.17688,0 6.66044,-1.580444 8.46666,-3.725331 l 0.508,3.273775 h 3.61244 V 58.534587 c 0,-6.716884 -3.49955,-10.442214 -11.0631,-10.442214 -2.31422,0 -5.92667,0.507999 -9.70844,2.539998 l 1.35466,3.72533 c 2.48356,-1.128888 5.64444,-2.088443 8.35378,-2.088443 5.02355,0 6.54755,2.257776 6.54755,5.305774 z m -7.33778,16.933321 c -3.16088,0 -5.81377,-1.862666 -5.81377,-5.24933 0,-6.491106 7.112,-8.071549 13.20799,-8.071549 v 8.861771 c -0.73378,2.031998 -3.38666,4.459108 -7.39422,4.459108 z"
             style="font-weight:bold;font-family:Noway;-inkscape-font-specification:'Noway Bold';fill:#f1f5f9;fill-opacity:1"
             id="path545" /><path
             d="m 312.57427,79.588348 9.5391,-31.04442 h -4.96711 l -7.22488,25.738647 h -0.22578 l -7.22488,-25.738647 h -4.96711 l 9.53911,31.04442 z"
             style="font-weight:bold;font-family:Noway;-inkscape-font-specification:'Noway Bold';fill:#f1f5f9;fill-opacity:1"
             id="path547" /><path
             d="m 348.52937,59.832808 c 0,-7.337772 -3.33022,-11.740435 -10.95021,-11.740435 -7.45066,0 -11.0631,4.571996 -11.0631,11.740435 v 9.482659 c 0,6.716884 3.78177,10.724437 11.34532,10.724437 3.66889,0 7.61999,-1.354666 9.87777,-3.386664 l -1.86267,-3.443109 c -1.41111,0.959555 -4.4591,2.652887 -8.0151,2.652887 -5.02355,0 -6.82977,-2.539998 -6.82977,-5.587996 v -4.628441 h 17.49776 z m -17.49776,2.088443 v -1.749776 c 0,-5.305774 1.80622,-7.902217 6.54755,-7.902217 4.74133,0 6.54755,2.596443 6.54755,7.902217 v 1.749776 z"
             style="font-weight:bold;font-family:Noway;-inkscape-font-specification:'Noway Bold';fill:#f1f5f9;fill-opacity:1"
             id="path549" /></g><g
           aria-label="Action"
           id="text1109"
           style="font-size:91.7222px;font-family:'Source Code Pro';-inkscape-font-specification:'Source Code Pro';fill:#f1f5f9;stroke-width:1.4;fill-opacity:1"
           transform="matrix(1.3130304,0,0,1.3130304,-74.90686,-35.249594)"><path
             d="m 264.30021,164.83344 -18.52788,-61.17871 h -3.48545 l -18.43616,61.17871 h 3.21028 l 4.86127,-16.41828 h 24.30639 l 4.86127,16.41828 z m -8.89705,-19.16994 h -22.74711 l 11.37355,-38.15644 z"
             style="font-family:'FONTSPRING DEMO - Proxima Nova Cond Thin';-inkscape-font-specification:'FONTSPRING DEMO - Proxima Nova Cond Thin, ';fill:#f1f5f9;fill-opacity:1"
             id="path552" /><path
             d="m 270.44566,142.63666 c 0,12.74939 5.96194,23.29744 16.69344,23.29744 5.41161,0 8.43844,-2.01789 11.37355,-5.7785 l -1.92616,-1.83444 c -2.75167,3.76061 -5.7785,5.13644 -9.44739,5.13644 -9.26394,0 -13.66661,-9.99772 -13.66661,-20.82094 0,-10.91494 4.40267,-20.72921 13.66661,-20.72921 3.66889,0 6.69572,1.37583 9.44739,5.04472 l 1.92616,-1.74272 c -2.93511,-3.57717 -5.96194,-5.7785 -11.37355,-5.7785 -10.7315,0 -16.69344,10.45633 -16.69344,23.20571 z"
             style="font-family:'FONTSPRING DEMO - Proxima Nova Cond Thin';-inkscape-font-specification:'FONTSPRING DEMO - Proxima Nova Cond Thin, ';fill:#f1f5f9;fill-opacity:1"
             id="path554" /><path
             d="m 316.12323,165.9341 c 2.93511,0 4.49438,-1.10066 6.05366,-2.75166 l -1.74272,-1.92617 c -1.00894,1.28411 -2.4765,2.20133 -4.31094,2.20133 -2.84339,0 -3.94406,-2.29305 -3.94406,-6.05366 v -34.39583 h 7.70467 v -2.4765 h -7.70467 v -12.10733 h -2.75166 v 12.10733 h -6.05367 v 2.4765 h 6.05367 v 34.39583 c 0,5.50333 2.10961,8.53016 6.69572,8.53016 z"
             style="font-family:'FONTSPRING DEMO - Proxima Nova Cond Thin';-inkscape-font-specification:'FONTSPRING DEMO - Proxima Nova Cond Thin, ';fill:#f1f5f9;fill-opacity:1"
             id="path556" /><path
             d="m 331.44077,112.91867 c 1.46755,0 2.65994,-1.19239 2.65994,-2.65994 0,-1.46756 -1.19239,-2.65995 -2.65994,-2.65995 -1.37584,0 -2.65995,1.19239 -2.65995,2.65995 0,1.46755 1.28411,2.65994 2.65995,2.65994 z m 1.37583,51.91477 v -44.30183 h -2.75167 v 44.30183 z"
             style="font-family:'FONTSPRING DEMO - Proxima Nova Cond Thin';-inkscape-font-specification:'FONTSPRING DEMO - Proxima Nova Cond Thin, ';fill:#f1f5f9;fill-opacity:1"
             id="path558" /><path
             d="m 360.88357,165.9341 c 10.73149,0 16.23483,-10.7315 16.23483,-23.29744 0,-12.56594 -5.50334,-23.20571 -16.23483,-23.20571 -10.7315,0 -16.23483,10.63977 -16.23483,23.20571 0,12.56594 5.50333,23.29744 16.23483,23.29744 z m 0,-2.4765 c -9.17222,0 -13.208,-10.45633 -13.208,-20.82094 0,-10.27288 4.03578,-20.72921 13.208,-20.72921 9.26394,0 13.20799,10.45633 13.20799,20.72921 0,10.36461 -3.94405,20.82094 -13.20799,20.82094 z"
             style="font-family:'FONTSPRING DEMO - Proxima Nova Cond Thin';-inkscape-font-specification:'FONTSPRING DEMO - Proxima Nova Cond Thin, ';fill:#f1f5f9;fill-opacity:1"
             id="path560" /><path
             d="m 414.99971,164.83344 v -33.57033 c 0,-8.34672 -3.66889,-11.83216 -10.54805,-11.83216 -5.04472,0 -10.08944,3.76061 -12.74939,7.88811 v -6.78745 h -2.75166 v 44.30183 h 2.75166 v -34.48755 c 2.38478,-4.40267 7.33778,-8.43844 12.3825,-8.43844 4.953,0 8.16328,2.38477 8.16328,9.35566 v 33.57033 z"
             style="font-family:'FONTSPRING DEMO - Proxima Nova Cond Thin';-inkscape-font-specification:'FONTSPRING DEMO - Proxima Nova Cond Thin, ';fill:#f1f5f9;fill-opacity:1"
             id="path562" /></g><rect
           style="fill:#f1f5f9;fill-opacity:1;stroke:none;stroke-width:1.7434;stroke-dasharray:none;stroke-opacity:1"
           id="rect1303"
           width="51.872818"
           height="3.2096379"
           x="400.42499"
           y="47.713654" /></g></g></g></svg>
