<?xml version="1.0" encoding="UTF-8" standalone="no"?>
<!-- Created with Inkscape (http://www.inkscape.org/) -->

<svg
   width="200mm"
   height="200mm"
   viewBox="0 0 200 200"
   version="1.1"
   id="svg5"
   xml:space="preserve"
   inkscape:version="1.2.2 (b0a8486541, 2022-12-01)"
   sodipodi:docname="wave-action.svg"
   xmlns:inkscape="http://www.inkscape.org/namespaces/inkscape"
   xmlns:sodipodi="http://sodipodi.sourceforge.net/DTD/sodipodi-0.dtd"
   xmlns="http://www.w3.org/2000/svg"
   xmlns:svg="http://www.w3.org/2000/svg"><sodipodi:namedview
     id="namedview7"
     pagecolor="#505050"
     bordercolor="#eeeeee"
     borderopacity="1"
     inkscape:showpageshadow="0"
     inkscape:pageopacity="0"
     inkscape:pagecheckerboard="0"
     inkscape:deskcolor="#505050"
     inkscape:document-units="mm"
     showgrid="false"
     inkscape:zoom="0.50583233"
     inkscape:cx="448.76531"
     inkscape:cy="386.49171"
     inkscape:window-width="1326"
     inkscape:window-height="666"
     inkscape:window-x="20"
     inkscape:window-y="54"
     inkscape:window-maximized="1"
     inkscape:current-layer="layer1" /><defs
     id="defs2"><rect
       x="905.11161"
       y="121.28134"
       width="2959.1317"
       height="792.48734"
       id="rect290" /></defs><g
     inkscape:label="Layer 1"
     inkscape:groupmode="layer"
     id="layer1"><g
       id="g859"
       transform="matrix(0.99487753,0,0,0.99487753,0.51224747,0.51224747)"><path
         style="fill:#f1f5f9;fill-opacity:1;stroke-width:0.0985149"
         d="m 95.681632,198.57171 c -0.894017,-0.0418 -2.500393,-0.14948 -3.569724,-0.23938 l -1.944231,-0.16346 -0.665123,-0.68895 c -0.938029,-0.97163 -1.723695,-1.48028 -2.227825,-1.44233 -0.520878,0.0392 -0.771835,0.37607 -0.833417,1.11868 l -0.04611,0.55563 -0.294855,-0.059 c -0.162176,-0.0324 -0.395538,-0.059 -0.518583,-0.059 -0.198566,0 -0.303347,-0.20212 -0.932053,-1.7979 -0.999812,-2.53774 -1.56048,-3.53162 -3.042725,-5.39369 -0.872389,-1.09594 -3.020615,-3.27438 -3.658055,-3.70951 -0.625855,-0.42721 -0.850498,-0.48268 -0.979405,-0.24184 -0.141084,0.26364 0.0129,0.95356 0.505549,2.26514 0.525409,1.39881 0.658,2.33594 0.437189,3.09005 -0.09122,0.31154 -0.220043,0.56629 -0.286265,0.56609 -0.154265,0 -0.549605,-0.25876 -1.351821,-0.88316 -0.352191,-0.27414 -0.858794,-0.56425 -1.125769,-0.64471 -0.431821,-0.13013 -0.510691,-0.12972 -0.714234,0.004 -0.132473,0.0868 -0.22881,0.24786 -0.22881,0.38253 0,0.31023 0.595119,1.47892 1.609969,3.16162 0.457494,0.75856 0.825408,1.38666 0.817586,1.39577 -0.0079,0.009 -0.220339,-0.0306 -0.472252,-0.0883 l -0.458014,-0.10481 -1.188415,-1.9845 c -1.442051,-2.40807 -2.018994,-3.60205 -2.322419,-4.80624 -0.340932,-1.35301 -0.395065,-2.15313 -0.205158,-3.03202 0.427229,-1.97729 0.382583,-2.34245 -0.379203,-3.10155 -0.626762,-0.62457 -1.424644,-1.03609 -2.008857,-1.03609 -0.575001,0 -0.792256,0.13353 -1.014801,0.62367 -0.256524,0.56499 -0.237205,1.24544 0.06798,2.39304 0.610005,2.29407 0.731237,3.15064 0.513539,3.62841 -0.241864,0.53085 -0.472872,0.21503 -0.475413,-0.64996 -0.002,-0.75643 -0.355157,-1.71976 -0.811438,-2.21476 -0.706972,-0.76697 -2.594448,-1.51455 -3.823924,-1.51455 -0.648179,0 -1.279867,0.21723 -1.741871,0.59901 -0.257007,0.21238 -0.522662,0.38614 -0.590361,0.38614 -0.126385,0 -0.200172,-0.22021 -0.247578,-0.73886 -0.02611,-0.28598 -0.04227,-0.29502 -0.497756,-0.27936 l -0.470744,0.0161 0.310667,-0.35383 c 0.431298,-0.49123 0.610122,-0.96523 0.603473,-1.5996 -0.01271,-1.21529 -0.882151,-2.23178 -2.071582,-2.42198 -1.396447,-0.2233 -2.678708,1.48029 -2.675713,3.5549 6.9e-4,0.47783 0.06157,0.8232 0.19836,1.12464 0.344447,0.75922 2.745935,3.05409 3.541877,3.38463 0.135457,0.0562 1.044257,0.13228 2.019555,0.16896 2.090604,0.0786 2.12927,0.0923 3.201733,1.13179 0.96254,0.93299 1.766707,1.57129 2.355364,1.8696 0.689357,0.34932 1.467329,1.10338 2.472418,2.39643 0.486929,0.62644 0.870319,1.15399 0.851966,1.17234 -0.05063,0.0506 -3.664409,-1.15932 -5.443086,-1.82243 -20.530956,-7.65415 -37.827905,-21.82246 -49.405976,-40.46947 -0.910967,-1.46715 -0.951111,-1.60829 -0.458744,-1.61262 0.355845,-0.003 2.145053,-0.64113 4.345984,-1.54969 1.254184,-0.51772 2.931557,-1.17213 3.727498,-1.45423 2.098338,-0.74369 2.566964,-1.05982 5.357555,-3.61415 1.69158,-1.54835 2.936995,-2.60298 3.296692,-2.79165 0.383706,-0.20126 1.663178,-0.43842 3.197193,-0.59261 1.826397,-0.18357 2.253006,-0.28305 3.124025,-0.72851 0.790601,-0.40431 2.529833,-1.53587 3.477369,-2.26241 1.249632,-0.95817 2.927823,-2.51447 4.698894,-4.35759 1.013078,-1.0543 2.364239,-2.38092 3.002587,-2.94803 2.947101,-2.61824 3.978494,-3.74952 7.334531,-8.04487 2.799606,-3.5832 2.816206,-3.60063 3.681817,-3.86701 0.830332,-0.25554 2.520227,-0.45851 3.02292,-0.36306 0.353461,0.0671 0.559564,0.20824 2.382523,1.63159 1.049046,0.81909 2.450469,1.53367 4.051987,2.06608 1.626864,0.54084 2.83378,0.76989 5.024258,0.95351 1.029481,0.0863 1.963639,0.1741 2.075916,0.19514 0.127922,0.024 0.757964,0.76732 1.687679,1.99119 4.112395,5.41354 8.691542,10.07158 12.138233,12.34733 2.258248,1.49107 5.921456,3.22497 8.382092,3.96747 1.20901,0.36481 2.16547,0.54848 3.35402,0.64401 0.61857,0.0498 1.17186,0.14955 1.35566,0.24461 0.17081,0.0883 0.49832,0.41474 0.7278,0.72539 1.50598,2.03858 5.52802,5.69226 7.12315,6.47079 0.77142,0.3765 0.68072,0.36546 7.38041,0.89783 1.72936,0.13742 3.45829,0.29068 3.84209,0.34056 1.15326,0.14992 1.84879,0.11373 2.73097,-0.14208 2.1452,-0.62208 9.00663,-3.74267 10.72452,-4.87754 0.40637,-0.26845 1.20434,-0.96077 1.77326,-1.53849 0.56893,-0.57771 1.67721,-1.56553 2.46287,-2.19516 1.92504,-1.54274 2.81961,-2.34956 5.36906,-4.84238 2.42997,-2.376 2.70918,-2.56798 3.83557,-2.63722 0.93016,-0.0571 1.0743,0.0489 2.64945,1.949 3.71476,4.48125 7.52931,8.09366 11.7953,11.17028 l 1.88921,1.36249 3.31326,-0.86253 c 9.71533,-2.52913 16.68545,-4.61773 18.51781,-5.54887 l 0.59089,-0.30027 -0.29127,0.65936 c -0.1602,0.36265 -0.74725,1.54386 -1.30452,2.62494 l -1.01325,1.96556 -1.51968,0.2156 c -0.83582,0.11858 -2.56148,0.37331 -3.83479,0.56608 -1.2733,0.19277 -2.86924,0.39983 -3.54653,0.46015 -2.36607,0.21071 -3.05396,0.34164 -3.05396,0.58131 0,0.49646 9.65712,-0.0602 11.17959,-0.64442 0.085,-0.0326 -0.0272,0.24945 -0.27135,0.68214 l -0.41641,0.73781 -0.49298,0.058 c -0.27115,0.0319 -1.31294,0.23444 -2.31511,0.45008 -1.00216,0.21565 -2.32803,0.45806 -2.94638,0.53869 -1.77601,0.2316 -1.84206,0.59286 -0.13808,0.75525 1.47051,0.14014 3.27448,-0.0854 4.70511,-0.58821 l 0.54581,-0.19184 -0.11369,0.21397 c -0.4442,0.83593 -2.59855,4.13825 -4.01192,6.14967 -0.78603,1.11864 -0.87581,1.2116 -1.22668,1.27011 -0.81579,0.13607 -1.56748,1.2513 -1.13495,1.68385 0.11962,0.11962 -0.0847,0.4037 -1.8251,2.53807 -0.71947,0.88232 -2.41318,2.86701 -2.97557,3.48678 -0.10594,0.11675 -0.18821,0.10773 -0.55023,-0.0604 -0.69103,-0.32083 -1.17107,-0.44919 -1.7007,-0.45479 -1.38372,-0.0146 -1.24758,0.86383 0.26439,1.70612 l 0.5656,0.31508 -1.04671,1.11874 c -0.97308,1.04005 -4.57974,4.5004 -5.17524,4.9653 l -0.26351,0.20573 -1.47723,-0.49334 c -2.80874,-0.93799 -5.77078,-1.56393 -7.80578,-1.64949 -1.92446,-0.0809 -2.08186,0.1201 -0.94306,1.20428 1.21113,1.15304 3.81537,2.89985 5.65457,3.79282 0.39059,0.18964 0.70009,0.37346 0.68776,0.40848 -0.0197,0.0559 -1.20135,0.9948 -2.2594,1.7951 l -0.36522,0.27625 -3.92018,-1.3025 c -6.88416,-2.28729 -8.95853,-3.22609 -12.8767,-5.8277 -3.4599,-2.2973 -5.38672,-3.95544 -7.67661,-6.60617 -2.0962,-2.4265 -5.40972,-5.08196 -7.79141,-6.24404 -1.13885,-0.55567 -1.63965,-0.58395 -1.92928,-0.10895 -0.38194,0.62644 -0.20341,2.11182 0.40865,3.39978 0.4103,0.86343 1.23476,1.85427 3.28675,3.95006 2.96765,3.031 5.82194,5.62629 9.13558,8.30659 1.0692,0.86485 1.97179,1.61743 2.00577,1.67241 0.0858,0.13876 -0.30745,-0.0714 -2.57056,-1.37381 -1.08366,-0.62365 -2.348,-1.39099 -2.80965,-1.70523 -2.78273,-1.89424 -7.74694,-6.33294 -14.43136,-12.9037 -5.50601,-5.41239 -6.45358,-6.18213 -7.09385,-5.7626 -0.13453,0.0882 -0.24461,0.25012 -0.24461,0.35992 0,0.66675 1.52397,2.55119 2.87033,3.54929 0.67225,0.49837 0.80876,0.6734 0.71526,0.91708 -0.10031,0.26136 0.28589,0.79435 1.42849,1.97144 0.65557,0.67537 0.99604,1.08268 0.7983,0.95499 -0.5994,-0.38703 -1.3698,-0.71597 -1.60023,-0.68326 -0.19353,0.0275 -0.23083,0.10804 -0.28832,0.62266 -0.0363,0.3251 -0.11391,0.71588 -0.1724,0.86841 -0.28416,0.74087 -0.0155,2.25092 0.67234,3.7784 0.5895,1.30918 0.54479,1.38976 -0.35492,0.63996 -1.00674,-0.83902 -2.85885,-2.85139 -5.09238,-5.53306 -2.61048,-3.13426 -3.87301,-4.57803 -5.04422,-5.76833 -1.13498,-1.15349 -1.52696,-1.44637 -1.88133,-1.40575 -0.2613,0.0299 -0.27578,0.0567 -0.25702,0.47507 0.0153,0.34325 0.24331,0.88387 1.00979,2.3952 0.59548,1.1742 0.98988,2.06876 0.98988,2.24521 0,0.16132 -0.0969,0.42438 -0.21536,0.58459 -0.14607,0.19757 -0.22897,0.47962 -0.2577,0.87668 -0.0895,1.23836 0.69306,2.8091 2.02165,4.05745 0.61622,0.57901 0.94233,0.77472 2.89777,1.73911 4.84819,2.39105 14.06528,6.44534 24.46776,10.76255 9.05677,3.75873 12.35616,4.86617 16.63209,5.58255 l 0.47565,0.0797 -0.52834,0.31935 -0.52836,0.31937 -1.6713,-0.2988 c -0.91923,-0.16434 -3.8214,-0.69508 -6.44929,-1.17942 -8.22046,-1.51513 -8.88572,-1.56642 -9.53941,-0.73539 -0.34405,0.43739 -0.28703,0.92242 0.17755,1.51015 1.26465,1.59991 5.33512,3.89245 8.42596,4.7456 0.43347,0.11964 0.85462,0.23893 0.9359,0.26508 0.0829,0.0267 -0.33866,0.27828 -0.95961,0.57284 l -1.10737,0.52528 -0.64211,-0.0909 c -1.14721,-0.16246 -4.34295,-1.32452 -5.96022,-2.16728 -1.53369,-0.79922 -3.91377,-2.86319 -5.12841,-4.44729 -0.34425,-0.44896 -0.991,-1.17635 -1.43721,-1.61644 -1.9428,-1.91613 -7.29711,-5.54001 -7.86401,-5.32247 -0.14014,0.0538 -0.13915,0.0953 0.0104,0.43117 0.0909,0.20441 0.42762,1.16964 0.74814,2.14493 1.36992,4.16845 1.844,5.29214 2.90544,6.88654 1.56097,2.34479 3.21711,3.52387 7.97874,5.68044 0.76994,0.3487 1.35899,0.64824 1.309,0.66562 -0.37769,0.13137 -3.375,-1.02384 -5.64652,-2.17624 -2.39965,-1.21741 -3.4312,-1.94534 -5.04869,-3.5627 -2.97511,-2.97495 -4.97678,-6.41423 -5.64716,-9.70304 -0.34473,-1.69125 -0.82615,-2.50524 -1.73081,-2.92651 -0.27314,-0.12719 -0.66538,-0.23168 -0.87167,-0.23221 -0.81525,-0.002 -1.25535,-0.19824 -1.91881,-0.85521 -0.73822,-0.73098 -1.05275,-0.85714 -1.31854,-0.5289 -0.34388,0.42467 -0.19064,1.27291 0.31217,1.72795 0.23222,0.21016 0.54122,0.73886 0.43184,0.73886 -0.12341,0 -1.12306,-0.90304 -3.01967,-2.7278 -3.03871,-2.92361 -3.79566,-3.36334 -3.08334,-1.79116 0.3515,0.77578 0.44783,1.72863 0.55146,5.45486 0.0599,2.15339 0.14335,3.59576 0.23368,4.0391 0.33979,1.66748 1.06769,3.12367 2.38832,4.77798 0.84864,1.06305 3.2253,3.44557 5.00983,5.02216 1.79488,1.58572 1.80762,1.5996 0.9057,0.98577 -2.00847,-1.36692 -6.47989,-5.56788 -8.46501,-7.95298 -2.35912,-2.83446 -3.45237,-6.18454 -4.02145,-12.32306 -0.2196,-2.36854 -0.29601,-2.76836 -0.69047,-3.61234 -0.55339,-1.18403 -2.095076,-3.27252 -3.010618,-4.0784 -0.506017,-0.44541 -0.726813,-0.50775 -0.726813,-0.20518 0,0.54165 1.310947,4.08781 1.879339,5.08368 0.158393,0.27751 0.287993,0.55572 0.287993,0.61825 0,0.17982 -0.503799,-0.12114 -1.355006,-0.80946 -1.01649,-0.82196 -1.353739,-1.05221 -1.54115,-1.05221 -0.351001,0 -1.142952,1.50255 -1.142952,2.16848 0,0.22076 0.06881,0.32495 0.290656,0.43962 0.159857,0.0827 0.406594,0.15031 0.548303,0.15031 0.292746,0 0.638757,0.15947 0.638757,0.29439 0,0.13705 -0.67438,0.29554 -1.260207,0.29615 -0.743595,9.9e-4 -1.928757,0.26601 -2.650025,0.59305 -0.820806,0.37217 -1.643671,1.15333 -1.848671,1.75496 -0.287653,0.84424 -0.388099,2.14182 -0.265635,3.43176 0.146275,1.54068 0.401133,2.50178 0.990724,3.73601 0.912612,1.91049 1.939798,3.31174 4.126609,5.6294 0.831811,0.8816 1.47428,1.6029 1.427677,1.6029 -0.156036,0 -1.934952,-1.60301 -3.329711,-3.00046 -0.759432,-0.7609 -1.744738,-1.86881 -2.189553,-2.46202 -0.819171,-1.09244 -1.815234,-2.925 -2.198182,-4.04421 -0.351698,-1.02788 -0.413368,-2.95167 -0.283871,-8.85632 0.06404,-2.92039 0.08768,-5.59029 0.0526,-5.93312 -0.274433,-2.67866 -2.31771,-6.07508 -4.217353,-7.01028 -0.354014,-0.17428 -0.707193,-0.31687 -0.784843,-0.31687 -0.229854,0 -0.79602,0.46819 -1.083115,0.89567 -0.439673,0.65464 -0.507036,1.23477 -0.326184,2.80879 0.199898,1.73984 0.96819,6.31975 1.268611,7.56242 0.126177,0.52194 0.191838,0.94897 0.14591,0.94897 -0.04591,0 -0.364102,-0.23805 -0.707062,-0.52899 -2.18863,-1.85667 -3.214495,-2.00517 -4.445113,-0.64347 -0.713425,0.78944 -1.073123,1.6216 -1.077201,2.49216 -0.004,0.86838 0.184843,1.45081 0.92996,2.86718 0.67265,1.27862 0.97317,2.05273 1.329114,3.42365 0.453307,1.74593 0.808808,2.34681 2.695516,4.55606 1.172084,1.37247 1.959518,2.40764 2.229449,2.93089 0.509036,0.98671 4.291525,4.91668 5.278181,5.48397 0.290284,0.16691 0.904613,0.41913 1.36517,0.56049 1.369869,0.42049 1.561323,0.56196 3.147481,2.32572 0.732012,0.81399 2.89678,2.07533 7.393605,4.30805 4.5565,2.26235 6.51674,3.06509 8.37058,3.4279 l 0.9327,0.18253 -1.67156,0.16865 c -5.23473,0.52815 -10.14923,0.67805 -14.921813,0.45515 z m -4.925742,-2.09524 c 0,-0.42685 -0.687072,-1.99166 -1.248252,-2.8429 -0.491216,-0.7451 -0.950629,-1.14712 -1.720425,-1.50547 -0.640406,-0.29812 -0.720558,-0.30233 -0.971919,-0.0509 -0.520276,0.52027 -0.06394,1.21533 1.222039,1.86137 0.814885,0.40937 1.473841,0.93627 1.760726,1.4079 0.578342,0.95074 0.793035,1.26241 0.869592,1.26241 0.04856,0 0.08826,-0.0596 0.08826,-0.13234 z M 65.381107,182.32043 c 0.592055,-0.0561 1.225988,-0.17305 1.408753,-0.25977 0.692767,-0.32874 0.977445,-1.55827 0.67527,-2.91649 -0.09113,-0.40958 -0.22954,-0.79771 -0.307603,-0.86249 -0.36548,-0.30332 -1.921995,0.29485 -2.608832,1.00259 -0.503657,0.51897 -0.921291,1.32563 -1.142713,2.2071 -0.160451,0.63877 -0.159851,0.67001 0.01527,0.79805 0.218762,0.15997 0.545466,0.16513 1.959894,0.031 z M 78.199943,164.4111 c 0.392976,-1.35625 0.938414,-2.05757 1.977282,-2.54236 0.54596,-0.25476 1.08396,-0.32154 1.589272,-0.19727 0.456705,0.11232 0.496181,-0.0918 0.194685,-1.00691 -0.4318,-1.31062 -1.365505,-2.67358 -1.831559,-2.67358 -0.302855,0 -2.269577,1.93001 -2.630368,2.58126 l -0.28916,0.52196 0.0069,1.97029 c 0.0059,1.82302 0.160362,3.2982 0.406581,3.89134 0.03379,0.0813 0.140856,-0.33238 0.238041,-0.91923 0.09714,-0.58685 0.249508,-1.31833 0.338507,-1.6255 z m 74.127747,-6.5096 c -0.0813,-0.0459 -0.61326,-0.11421 -1.18218,-0.15176 -7.01386,-0.46292 -14.04481,-1.60375 -19.17668,-3.11158 -5.1615,-1.51653 -10.16873,-2.58715 -11.30385,-2.41693 -0.53748,0.0806 -1.04423,0.39263 -1.04423,0.64299 0,0.38981 0.94396,0.67293 4.08837,1.22623 2.27021,0.39947 3.64661,0.77214 5.33446,1.44433 1.42868,0.569 2.5244,0.8917 4.13973,1.21922 1.42193,0.28832 4.24047,0.68932 5.89413,0.83858 0.6502,0.0587 1.38167,0.13392 1.62549,0.16718 0.24383,0.0333 2.77073,0.0906 5.61536,0.1273 2.84461,0.0367 5.39369,0.0738 5.6646,0.0824 0.31286,0.01 0.43865,-0.0149 0.3448,-0.068 z m 16.64902,-2.31409 c 2.93502,-0.44934 11.1218,-2.86499 10.46597,-3.08819 -0.0684,-0.0233 -0.55606,0.0285 -1.08366,0.11506 -1.31688,0.21604 -4.7363,0.62387 -11.5989,1.38333 -7.68587,0.85061 -8.62006,0.98978 -8.62006,1.28421 0,0.16887 0.57661,0.33754 1.52699,0.4467 1.238,0.1422 8.14267,0.0375 9.30966,-0.14111 z m -31.34243,-4.18433 1.5123,-0.0619 0.48709,-1.32994 c 0.60776,-1.65939 0.97075,-2.88608 0.97075,-3.28046 v -0.30295 l -0.30466,0.28935 c -0.16756,0.15914 -0.85392,1.11747 -1.52523,2.12961 -0.67132,1.01213 -1.27244,1.87231 -1.33584,1.91149 -0.085,0.0525 -0.0972,-0.0416 -0.0466,-0.35839 0.11293,-0.70622 0.52011,-1.80686 1.11139,-3.00426 0.30645,-0.62056 0.52961,-1.15587 0.49592,-1.18956 -0.12613,-0.12612 -0.36243,0.0665 -0.7631,0.62208 -0.65256,0.90482 -1.18483,1.27792 -2.36063,1.65472 -1.22701,0.39321 -2.06585,0.92756 -3.20173,2.03953 l -1.08367,1.06088 2.26585,-0.0592 c 1.24622,-0.0325 2.94637,-0.087 3.77813,-0.12105 z m 7.05851,0.085 c 1.69292,-0.0825 4.26405,-0.32843 4.33496,-0.41472 0.0258,-0.0313 -0.0819,-1.0368 -0.30329,-2.83377 -0.17185,-1.39453 -0.40993,-2.07032 -0.72935,-2.07032 -0.32744,0 -0.61669,0.2418 -1.47876,1.23614 -0.44403,0.51215 -0.84757,0.93118 -0.89676,0.93118 -0.0492,0 -0.0894,-0.52535 -0.0894,-1.16747 0,-1.19245 -0.11514,-1.78797 -0.34569,-1.78797 -0.1859,0 -0.55269,0.47006 -0.82704,1.05994 -0.13025,0.28004 -0.26997,0.4887 -0.31047,0.46365 -0.0405,-0.025 -0.10456,-0.31166 -0.1423,-0.63696 -0.0377,-0.3253 -0.10243,-0.61232 -0.14372,-0.63783 -0.0413,-0.0255 -0.15883,0.14039 -0.26122,0.3687 -0.28166,0.6281 -0.69021,1.0396 -1.15566,1.16402 -0.50764,0.13571 -0.62149,0.22752 -0.85873,0.69255 -0.15387,0.30161 -1.07795,3.44656 -1.07795,3.66861 0,0.092 2.00554,0.0753 4.2854,-0.0357 z m -13.73749,-0.37882 c 0.62895,-0.40397 2.08549,-1.8016 2.30788,-2.21455 0.1843,-0.34223 0.18446,-0.35637 0.006,-0.55317 -0.42125,-0.46547 -1.40162,-0.0825 -2.91066,1.13704 -1.22056,0.98637 -1.5924,1.15411 -2.36487,1.06671 -0.4259,-0.0482 -0.59058,-0.0344 -0.59058,0.0494 0,0.1593 0.574,0.38558 1.52145,0.59977 1.15901,0.26203 1.51285,0.24717 2.03042,-0.0852 z m 22.7516,-0.31848 c 1.84493,-0.21292 2.82771,-0.41372 3.03485,-0.62008 0.17899,-0.17831 -0.11158,-0.91929 -0.71848,-1.8322 -0.53354,-0.80254 -0.67705,-0.91021 -1.44604,-1.08482 -0.65122,-0.14787 -0.86975,-0.0933 -0.87184,0.21782 -9.8e-4,0.12362 -0.0431,0.29051 -0.0939,0.37091 -0.0729,0.11533 -0.12491,0.0683 -0.24644,-0.22249 -0.0848,-0.20275 -0.12861,-0.46995 -0.0975,-0.59379 0.0377,-0.15034 -0.006,-0.2818 -0.13198,-0.39571 -0.28699,-0.25973 -0.41594,-0.0221 -0.50873,0.93774 -0.0435,0.44973 -0.11113,0.89527 -0.15035,0.99009 -0.10281,0.24858 -0.33198,0.21195 -0.46222,-0.0739 -0.16891,-0.37073 -0.36078,-0.29844 -0.58285,0.21964 -0.10984,0.25625 -0.21847,0.48468 -0.2414,0.50761 -0.023,0.023 -0.1342,-0.0759 -0.24725,-0.21964 -0.48358,-0.61476 -0.65269,-0.0388 -0.29087,0.99066 0.26649,0.7582 0.64302,1.14612 1.0355,1.06683 0.16255,-0.0328 1.07135,-0.14925 2.01956,-0.25869 z m 5.66847,-0.78263 c 0.0791,-0.0657 0.14391,-0.24818 0.14391,-0.40552 0,-0.53863 -1.36708,-1.60221 -1.83073,-1.42429 -0.13863,0.0532 -0.15779,0.15853 -0.11426,0.62829 0.0682,0.73565 0.2455,1.10306 0.61265,1.26938 0.33307,0.15086 0.9686,0.11458 1.18843,-0.0679 z m -5.13469,-3.30758 c 0.21086,-0.0809 0.19784,-0.50188 -0.0191,-0.61799 -0.24426,-0.13073 -0.51466,0.0425 -0.51466,0.32967 0,0.29043 0.2194,0.40896 0.53378,0.28832 z m -1.32761,-1.75586 c 0.0644,-0.0775 0.10299,-0.31023 0.0859,-0.51721 -0.0256,-0.31079 -0.0719,-0.3821 -0.26613,-0.40955 -0.12933,-0.0183 -0.27272,0.026 -0.31866,0.0985 -0.13515,0.2132 -0.0987,0.64731 0.0683,0.81433 0.19147,0.19147 0.28083,0.19435 0.43057,0.0139 z m -7.76524,-0.64751 c 0.21659,-0.72293 -0.23357,-1.20959 -0.55103,-0.5957 -0.17639,0.34111 -0.18829,0.53796 -0.0484,0.79949 0.1786,0.33371 0.46777,0.23538 0.59935,-0.20379 z m 8.89304,-0.60621 c 0.0625,-0.17834 0.0524,-0.35651 -0.0316,-0.55938 -0.32978,-0.79613 -0.90808,-0.19191 -0.5977,0.62446 0.13028,0.34265 0.49996,0.30443 0.62936,-0.0651 z m -30.91494,4.22025 c -0.16636,-0.12163 -0.1671,-0.14024 -0.0118,-0.29555 0.20554,-0.20554 0.57955,-0.21458 0.74275,-0.0179 0.27562,0.33211 -0.34279,0.59734 -0.73096,0.31351 z m -10.10568,-1.84048 c -0.2453,-0.2453 -0.2482,-0.40756 -0.0125,-0.69858 0.33861,-0.41815 1.29325,-0.18738 1.29325,0.31263 0,0.24499 -0.46464,0.58297 -0.80142,0.58297 -0.15523,0 -0.37091,-0.0887 -0.47928,-0.19702 z m 65.22141,-1.02894 c -0.26606,-0.32057 0.17424,-0.70628 0.46936,-0.41115 0.12547,0.12546 0.13832,0.20245 0.0557,0.33364 -0.14386,0.22842 -0.37188,0.26209 -0.52506,0.0775 z m -57.79339,-2.45849 c -0.18422,-0.18422 -0.33495,-0.40194 -0.33495,-0.48382 0,-0.2113 0.56363,-0.65895 0.82966,-0.65895 0.51887,0 0.72676,0.73327 0.34537,1.21814 -0.26944,0.34255 -0.43721,0.32749 -0.84008,-0.0753 z m -7.56774,-0.0675 c -0.30761,-0.36558 -0.31461,-0.4795 -0.0501,-0.81569 0.26741,-0.33996 0.79726,-0.36103 1.02167,-0.0406 0.20048,0.28623 0.19764,0.30441 -0.10356,0.66235 -0.427,0.50746 -0.57612,0.54079 -0.86795,0.19397 z m -5.67266,-0.18863 c -0.26,-0.26001 -0.24855,-0.45001 0.0448,-0.74334 0.27111,-0.27111 0.38173,-0.28894 0.82776,-0.13345 0.44754,0.15601 0.5254,0.53983 0.17131,0.84441 -0.32787,0.28202 -0.78017,0.29604 -1.04384,0.0324 z m 80.79258,-0.52936 c -0.16413,-0.19775 -0.0243,-0.47179 0.22282,-0.43637 0.2419,0.0346 0.34028,0.3613 0.14593,0.48447 -0.1826,0.11572 -0.2389,0.10838 -0.36875,-0.0481 z m -57.99625,-0.37323 c -0.0888,-0.14354 0.33073,-0.49568 0.54197,-0.45499 0.20075,0.0386 0.26548,0.37316 0.0933,0.48226 -0.19189,0.12161 -0.55283,0.10612 -0.63528,-0.0273 z m 33.42283,-0.64081 c -0.12498,-0.125 -0.065,-0.43335 0.0963,-0.49526 0.19152,-0.0735 0.44119,0.21767 0.3625,0.42274 -0.0548,0.14275 -0.34306,0.18831 -0.45885,0.0725 z m -44.72575,-0.68961 c -0.16272,-0.16272 -0.0541,-0.61876 0.1939,-0.8138 0.33749,-0.26548 0.48901,-0.25758 0.68104,0.0354 0.12138,0.18524 0.13257,0.28542 0.0493,0.44105 -0.17491,0.32681 -0.73156,0.52993 -0.92422,0.33725 z m 14.34008,-1.03481 c -0.14873,-0.14872 -0.15892,-0.53926 -0.0163,-0.62735 0.15821,-0.0978 0.49907,0.26053 0.46608,0.48996 -0.034,0.23624 -0.27671,0.31039 -0.4497,0.13739 z m -18.98517,-0.11763 c -0.12209,-0.0892 -0.15278,-0.19196 -0.10366,-0.34672 0.0956,-0.30149 0.5806,-0.25819 0.62531,0.0558 0.041,0.28799 -0.28046,0.46725 -0.52165,0.2909 z m 13.93832,-0.35811 c -0.21887,-0.21888 -0.2612,-0.68455 -0.0788,-0.86694 0.30889,-0.3089 0.96545,0.0127 0.96545,0.47288 0,0.18218 -0.0787,0.33947 -0.21895,0.43773 -0.28937,0.20268 -0.43057,0.19344 -0.66769,-0.0437 z m 12.02275,-0.34008 c -0.18935,-0.22814 -0.0841,-0.4973 0.19445,-0.4973 0.18321,0 0.25332,0.0593 0.27819,0.23514 0.0492,0.34867 -0.25895,0.51964 -0.47264,0.26216 z m 50.31255,-0.55446 c -0.39971,-0.23279 -0.0437,-1.17428 0.44407,-1.17428 0.35995,0 0.58658,0.6765 0.36521,1.09014 -0.11177,0.20884 -0.52196,0.2515 -0.80928,0.0841 z m -17.19418,-0.27241 c -0.18106,-0.11487 -0.0406,-0.40069 0.23026,-0.46868 0.46081,-0.11565 0.62519,0.28866 0.18535,0.45588 -0.29852,0.1135 -0.25887,0.11228 -0.41561,0.0128 z m -63.9903,-0.37646 c -0.13693,-0.13694 -0.0577,-0.63186 0.13135,-0.82095 0.33978,-0.33978 0.78812,-0.22576 0.78812,0.20041 0,0.41919 -0.66919,0.87082 -0.91947,0.62054 z m 61.91989,-0.15106 c -0.17666,-0.17665 -0.14265,-0.61725 0.062,-0.80239 0.24701,-0.22356 0.72562,-0.20458 1.03799,0.0412 0.32066,0.25222 0.3229,0.33255 0.0177,0.63768 -0.26631,0.2663 -0.90444,0.33686 -1.11771,0.12358 z m -24.78728,-0.63292 c -0.0836,-0.21776 0.16944,-0.47818 0.38442,-0.39569 0.1,0.0383 0.15021,0.14756 0.13078,0.28438 -0.0393,0.27665 -0.42017,0.35894 -0.5152,0.11131 z m 33.20702,-0.59522 c -0.1515,-0.15151 -0.054,-0.42608 0.17144,-0.48267 0.44351,-0.1113 0.89433,0.3348 0.49369,0.48855 -0.20709,0.0795 -0.58311,0.0761 -0.66513,-0.006 z m 5.7467,-1.01799 c 0,-0.42628 0.13224,-0.49157 0.33726,-0.16654 0.0744,0.11793 0.0744,0.21514 0,0.33308 -0.20502,0.32502 -0.33726,0.25973 -0.33726,-0.16654 z m -69.92094,0.0259 c -0.30143,-0.10355 -0.02,-0.88519 0.35231,-0.97864 0.45904,-0.11521 0.76357,0.31026 0.48878,0.68291 -0.1375,0.18648 -0.64239,0.364 -0.84109,0.29573 z m 27.08889,-0.47479 c -0.24412,-0.17099 -0.30351,-0.70782 -0.10074,-0.9106 0.18683,-0.18682 0.51808,-0.13841 0.75125,0.1098 0.27382,0.29147 0.27044,0.47293 -0.0138,0.73996 -0.27144,0.255 -0.34892,0.26242 -0.6367,0.0609 z m -40.5608,-0.22858 c -0.40012,-0.24935 -0.80307,-0.69335 -0.92702,-1.02144 -0.0896,-0.23728 -0.0644,-0.31345 0.20539,-0.62076 0.39777,-0.45302 0.76169,-0.63576 1.26615,-0.63576 0.76202,0 1.24909,0.82367 0.99284,1.67897 -0.21456,0.71614 -0.91281,0.98819 -1.53736,0.59899 z m 27.85016,-0.0318 c -0.28661,-0.28661 0.0102,-0.96545 0.42216,-0.96545 0.47132,0 0.83214,0.70085 0.48972,0.95122 -0.22479,0.16438 -0.75347,0.17263 -0.91188,0.0142 z m -6.62969,-0.54676 c -0.27122,-0.7124 0.32864,-1.19216 0.84498,-0.67581 0.30878,0.30876 0.30962,0.40166 0.007,0.70492 -0.3339,0.3339 -0.71816,0.32076 -0.85135,-0.0291 z m 52.47426,0.0519 c -0.1818,-0.25954 -0.20254,-0.87464 -0.0351,-1.04204 0.17942,-0.17941 0.54801,-0.1416 0.76842,0.0788 0.37798,0.37798 0.14342,1.18218 -0.34481,1.18218 -0.13127,0 -0.30284,-0.0967 -0.38846,-0.21895 z m -55.00424,-0.13144 c -0.12043,-0.0844 -0.21895,-0.20864 -0.21895,-0.27621 0,-0.17667 0.62009,-0.75261 0.81029,-0.75261 0.194,0 0.56892,0.45314 0.56892,0.68762 0,0.4345 -0.72334,0.64723 -1.16026,0.3412 z m 35.8375,-0.53625 c -0.2289,-0.2289 -0.25991,-0.71181 -0.0565,-0.88059 0.0772,-0.0642 0.33217,-0.1028 0.56645,-0.0859 0.40063,0.0289 0.4278,0.0495 0.45672,0.34918 0.0228,0.2354 -0.034,0.38324 -0.21717,0.56646 -0.29935,0.29935 -0.4882,0.31218 -0.74947,0.0509 z m -32.27774,-0.93714 c -0.0795,-0.20708 0.14082,-0.44206 0.41442,-0.44206 0.3131,0 0.39235,0.17132 0.18517,0.40026 -0.20611,0.22776 -0.51984,0.24963 -0.59959,0.0418 z m 13.00444,-0.68835 c -0.078,-0.20337 0.0278,-0.44332 0.19552,-0.44332 0.0763,0 0.19399,0.0665 0.26143,0.14777 0.0978,0.1179 0.0978,0.17765 0,0.29555 -0.0674,0.0813 -0.18509,0.14777 -0.26143,0.14777 -0.0763,0 -0.16433,-0.0665 -0.19552,-0.14777 z m -40.839793,-0.41869 c -0.249993,-0.29109 -0.289804,-0.53151 -0.128719,-0.77737 0.195896,-0.29897 0.487651,-0.29551 0.792555,0.01 0.293339,0.29334 0.304784,0.48335 0.04485,0.74335 -0.242865,0.24286 -0.513106,0.25225 -0.708606,0.0247 z m 73.937873,-0.27855 c -0.0328,-0.0855 0.0129,-0.22797 0.10161,-0.31666 0.14931,-0.14932 0.17318,-0.14932 0.32248,0 0.20141,0.20142 0.10897,0.47207 -0.16124,0.47207 -0.11176,0 -0.23005,-0.07 -0.26285,-0.15541 z m 6.82301,-0.005 c -0.0836,-0.21776 0.16944,-0.47818 0.38441,-0.39568 0.1,0.0383 0.15022,0.14756 0.13078,0.28439 -0.0393,0.27663 -0.42016,0.35892 -0.51519,0.11129 z m -27.18335,-1.16456 c -0.10292,-0.26821 0.0398,-0.4615 0.31707,-0.42935 0.2019,0.0235 0.25834,0.0838 0.25834,0.27625 0,0.19248 -0.0564,0.25282 -0.25834,0.27624 -0.16363,0.019 -0.27985,-0.0262 -0.31707,-0.12314 z m -43.17609,-0.1952 c -0.0806,-0.21008 -0.005,-0.57749 0.12737,-0.62114 0.20172,-0.0664 0.34919,0.33456 0.20687,0.56246 -0.1463,0.23427 -0.25925,0.25409 -0.33424,0.0587 z m 13.21417,-0.0539 c -0.16584,-0.18324 -0.16642,-0.20915 -0.0101,-0.44779 0.0913,-0.13932 0.27966,-0.3051 0.41861,-0.36842 0.22532,-0.10267 0.27805,-0.0856 0.48736,0.15775 0.26873,0.31242 0.30782,0.70533 0.0789,0.79317 -0.32319,0.12403 -0.80032,0.0581 -0.9748,-0.13471 z m 28.1894,-0.16671 c -0.12057,-0.12057 -0.0676,-0.43235 0.0834,-0.49027 0.2387,-0.0916 0.45702,0.1469 0.33801,0.36927 -0.10014,0.18711 -0.29832,0.24402 -0.42135,0.121 z m -15.07625,-0.10199 c -0.10989,-0.10987 -0.0665,-0.47851 0.0795,-0.67551 0.1314,-0.17727 0.15372,-0.17944 0.30567,-0.0298 0.10618,0.10457 0.14065,0.23472 0.0978,0.36954 -0.0708,0.22306 -0.3805,0.43835 -0.48307,0.33578 z m -20.15925,-0.42344 c -0.52702,-0.52702 0.11698,-1.24582 0.79234,-0.88437 0.41073,0.21982 0.43963,0.74913 0.0549,1.00601 -0.20689,0.13814 -0.65128,0.0743 -0.84726,-0.12164 z m 15.57645,-0.67851 c -0.27106,-0.27107 -0.26272,-0.45804 0.0337,-0.75444 0.27888,-0.27887 0.53501,-0.30366 0.94526,-0.0915 0.5436,0.2811 0.28761,0.88229 -0.4249,0.99792 -0.26954,0.0438 -0.39188,0.0102 -0.55404,-0.15198 z m 52.7301,0.0384 c -0.034,-0.0888 -0.0163,-0.20681 0.0392,-0.26243 0.16058,-0.16059 0.46686,-0.0524 0.46686,0.16497 0,0.2506 -0.41655,0.33081 -0.5061,0.0974 z M 92.663306,127.4018 c -0.07803,-0.20338 0.02778,-0.44332 0.195503,-0.44332 0.07634,0 0.193995,0.0665 0.261439,0.14778 0.09783,0.11788 0.09783,0.17764 0,0.29554 -0.06748,0.0813 -0.1851,0.14777 -0.261439,0.14777 -0.07635,0 -0.164313,-0.0665 -0.195503,-0.14777 z m 94.340944,-0.29637 c -0.17407,-0.20975 -0.0428,-0.46237 0.22089,-0.42477 0.28411,0.0405 0.34148,0.33242 0.0916,0.46613 -0.14543,0.0778 -0.222,0.0677 -0.3125,-0.0414 z m -44.9061,-0.43051 c -0.0725,-0.0459 -0.1168,-0.18934 -0.0985,-0.31867 0.0249,-0.17628 0.0949,-0.23515 0.27953,-0.23515 0.18464,0 0.25462,0.0588 0.27954,0.23515 0.0285,0.20105 -0.11138,0.40218 -0.27954,0.40218 -0.0271,0 -0.10855,-0.0376 -0.18102,-0.0836 z m -43.324722,-0.35103 c -0.08792,-0.22894 6.93e-4,-0.49357 0.17654,-0.52743 0.209331,-0.0403 0.334635,0.33497 0.175758,0.5264 -0.150967,0.18191 -0.282746,0.18229 -0.352298,9.9e-4 z m 19.576042,-0.80107 c -0.76495,-0.64366 -0.5074,-1.89874 0.45481,-2.21628 0.76697,-0.25313 1.60459,0.28035 1.60459,1.02196 0,0.47791 -0.34948,1.12415 -0.70828,1.30968 -0.4338,0.22433 -1.00543,0.17552 -1.35112,-0.11536 z m 20.60389,-0.23775 c -0.19411,-0.31081 -0.15659,-0.69095 0.0682,-0.69095 0.24027,0 0.33678,0.29022 0.2086,0.62734 -0.11814,0.31077 -0.12189,0.31163 -0.27679,0.0637 z m 16.88052,0.0356 c -0.0836,-0.21775 0.16946,-0.47818 0.38442,-0.39569 0.1,0.0383 0.15021,0.14756 0.13078,0.28439 -0.0393,0.27664 -0.42017,0.35892 -0.5152,0.1113 z m 37.61015,0.0123 c -0.078,-0.20337 0.0278,-0.44331 0.19551,-0.44331 0.20165,0 0.37321,0.24487 0.30185,0.43084 -0.0772,0.20125 -0.42161,0.2099 -0.49736,0.0125 z m -80.91531,-0.29429 c -0.1637,-0.19723 -0.0547,-0.44457 0.19599,-0.44457 0.11176,0 0.22894,0.0671 0.2604,0.14902 0.0566,0.14754 -0.1169,0.44207 -0.2604,0.44207 -0.0409,0 -0.12912,-0.0659 -0.19599,-0.14652 z m -17.076953,-0.31317 c -0.124997,-0.125 -0.06505,-0.43333 0.09633,-0.49525 0.19152,-0.0735 0.441197,0.21766 0.362506,0.42274 -0.05475,0.14275 -0.343061,0.18831 -0.45884,0.0725 z m 7.175163,-0.34757 c -0.39103,-0.22175 -0.46546,-0.62921 -0.16465,-0.90143 0.29379,-0.26587 0.67801,-0.20831 0.85172,0.1276 0.20434,0.39516 0.18925,0.55754 -0.0687,0.73818 -0.2575,0.18036 -0.35348,0.18589 -0.61843,0.0357 z m -10.176583,-0.69012 c -0.2866,-0.2866 0.01025,-0.96544 0.422165,-0.96544 0.471324,0 0.832135,0.70085 0.489728,0.95122 -0.224801,0.16438 -0.753491,0.17263 -0.911893,0.0142 z m 72.419223,-0.53551 c -0.0658,-0.17154 0.0625,-0.44448 0.23604,-0.50235 0.0575,-0.0192 0.17622,0.0366 0.26367,0.12412 0.1206,0.1206 0.13443,0.20496 0.0572,0.34919 -0.12418,0.23203 -0.47209,0.25016 -0.55694,0.0291 z m 24.26046,-0.0921 c -0.21327,-0.21328 -0.1939,-0.59422 0.0423,-0.83035 0.53968,-0.53968 1.25353,0.10257 0.88317,0.79459 -0.12706,0.2374 -0.70155,0.2596 -0.9254,0.0357 z m -46.91375,-0.0915 c -0.078,-0.20337 0.0278,-0.44331 0.19551,-0.44331 0.0763,0 0.19398,0.0665 0.26144,0.14778 0.0978,0.11788 0.0978,0.17764 0,0.29553 -0.0675,0.0813 -0.1851,0.14778 -0.26144,0.14778 -0.0763,0 -0.16432,-0.0665 -0.19551,-0.14778 z M 39.097157,122.18412 c 0.05429,-0.4617 0.02551,-0.61567 -0.201206,-1.07914 -0.303269,-0.61986 -0.750783,-1.04223 -1.104254,-1.04223 -0.319474,0 -0.607925,0.1552 -2.008689,1.08071 -1.771298,1.17035 -2.602773,1.40386 -3.321617,0.93286 l -0.261734,-0.17149 0.487146,-0.21805 c 0.659971,-0.2954 0.941881,-0.62402 1.003385,-1.16965 0.06236,-0.55348 -0.287497,-1.21402 -0.816108,-1.54071 -0.342054,-0.21141 -0.39998,-0.21506 -2.307386,-0.14524 -1.076098,0.0394 -2.006876,0.0405 -2.068409,0.002 -0.167239,-0.10335 0.04965,-0.32098 0.595523,-0.59761 0.575789,-0.29177 0.874398,-0.75495 0.948294,-1.47094 0.05714,-0.55352 -0.173258,-1.43107 -0.375697,-1.43107 -0.05083,0 -0.259242,0.11035 -0.463068,0.24524 -0.571525,0.37821 -1.792519,0.46424 -1.792519,0.1263 0,-0.0645 0.193326,-0.2964 0.429605,-0.51532 0.506336,-0.46914 0.621224,-0.88786 0.458577,-1.67132 -0.128316,-0.61809 -0.605484,-1.31213 -0.963998,-1.4021 -0.269941,-0.0678 -0.345748,-0.0323 -1.234746,0.57754 -0.32572,0.22345 -0.828393,0.44444 -1.295816,0.56971 -0.916258,0.24553 -1.486875,0.52228 -1.630599,0.79082 -0.0662,0.12375 -0.09517,0.76067 -0.07714,1.69906 0.0332,1.73138 0.01665,1.7837 -0.823112,2.61282 -0.94864,0.93657 -1.3048,0.82354 -0.969022,-0.30754 0.259922,-0.87557 0.221767,-1.22221 -0.205561,-1.86735 -0.430697,-0.65024 -0.879906,-0.83552 -2.313573,-0.95429 -0.647243,-0.0536 -1.520371,-0.0982 -1.94029,-0.0991 l -0.76349,-0.002 -0.002,1.30533 c -9.85e-4,1.29345 -0.08985,1.73119 -0.367983,1.82295 -0.08601,0.0284 -0.123144,-0.0902 -0.123144,-0.39374 0,-0.44928 -0.173337,-0.69909 -0.658494,-0.94896 -0.346526,-0.17848 -1.061497,-0.13637 -1.325517,0.078 -0.215058,0.17467 -0.229155,0.24327 -0.187257,0.91127 0.114928,1.83228 0.02286,2.41258 -0.519558,3.27377 -0.643401,1.02155 -1.696101,1.32098 -2.755392,0.78374 l -0.5139331,-0.26064 0.5408671,-0.17651 c 0.860163,-0.28071 1.130044,-0.83918 0.681259,-1.40972 -0.342082,-0.43489 -0.9146505,-0.65998 -1.9210594,-0.75518 -1.2932632,-0.12237 -1.8397745,-0.37966 -1.99992,-0.94156 -0.1455756,-0.51074 -0.01497,-0.58314 0.6220025,-0.34483 0.3064994,0.11467 0.760308,0.2085 1.0084672,0.2085 0.3903063,0 0.5012431,-0.0501 0.8218303,-0.37062 0.2854474,-0.28544 0.397607,-0.50059 0.4880335,-0.9362 0.2166539,-1.04362 -0.098512,-2.22663 -0.7122626,-2.67399 -0.2180828,-0.15894 -0.4062554,-0.1956 -0.9253109,-0.18021 -0.4258994,0.0126 -0.7653119,-0.0347 -0.9799957,-0.13655 -0.3148734,-0.14941 -1.0796645,-0.89956 -0.9991774,-0.98005 0.021376,-0.0214 0.1907439,0.005 0.3764353,0.058 0.8468237,0.24286 1.1662871,0.0962 1.7868521,-0.82019 0.5878182,-0.86805 1.3004947,-1.59212 1.9001151,-1.93053 0.284473,-0.16054 0.546325,-0.36773 0.581889,-0.46043 0.07566,-0.19725 -0.165791,-0.50069 -0.470271,-0.59091 -0.11477,-0.034 -0.6689355,-0.24306 -1.231485,-0.46458 -1.0171176,-0.40052 -1.1141637,-0.53363 -0.4056455,-0.55631 0.1354581,-0.004 0.4725468,-0.11325 0.7490974,-0.24202 0.4218015,-0.1964 0.5448071,-0.31839 0.7634901,-0.75724 0.333729,-0.66971 0.356585,-1.4196 0.05497,-1.80306 -0.317819,-0.40404 -0.6504048,-0.52591 -1.7306604,-0.63413 -1.0422278,-0.10442 -1.532388,-0.27925 -1.7092124,-0.60965 -0.1215772,-0.22717 -0.1246117,-0.22599 0.6058267,-0.23694 0.6342874,-0.01 0.8636005,-0.16147 1.2018219,-0.79644 0.2914374,-0.54717 0.3120171,-2.41811 0.031326,-2.84654 -0.2072355,-0.31629 -0.3475311,-0.31327 -1.2694717,0.0275 -0.5220496,0.19292 -1.1600131,0.27866 -1.1600131,0.15591 0,-0.0289 0.11083,-0.27126 0.246288,-0.538576 0.1354571,-0.26732 0.246287,-0.572708 0.246287,-0.678656 0,-0.248083 -0.7561804,-0.897582 -1.0450069,-0.897582 -0.1638793,0 -0.3111001,0.147224 -0.5664703,0.566461 -0.7751546,1.272583 -1.7233604,1.758103 -2.6650642,1.364633 -0.6371352,-0.26621 -0.5525207,-0.535792 0.2520405,-0.803023 0.2706105,-0.0898 0.5155087,-0.224658 0.5442257,-0.299487 0.109391,-0.285063 -1.1868679,-1.520646 -1.386203,-1.321324 -0.056941,0.05693 -0.134719,0.33517 -0.172864,0.618301 -0.089747,0.665885 -0.0069,-2.466979 0.119666,-4.509473 0.7066771,-11.433222 3.445194,-22.735442 8.0919536,-33.396566 0.9449646,-2.16802 3.1938136,-6.71999 3.4038966,-6.889898 0.09467,-0.07654 0.504593,-0.403803 0.910966,-0.727208 0.406375,-0.323394 1.426004,-1.196542 2.265844,-1.94031 4.284776,-3.794665 9.083092,-7.421677 12.70842,-9.606226 1.303391,-0.7854 2.165663,-1.18474 3.405,-1.576986 1.770814,-0.560442 3.488589,-1.596671 5.806142,-3.50249 2.714607,-2.232339 5.283018,-3.655091 8.508593,-4.713269 1.308957,-0.429406 2.276728,-0.857285 3.451775,-1.526113 2.193946,-1.248785 4.627776,-1.71084 9.909937,-1.881349 3.250943,-0.104948 3.848287,-0.187878 5.235791,-0.726912 1.197724,-0.465315 2.101923,-0.704203 3.556811,-0.939713 2.695594,-0.436362 5.751595,-0.499914 7.068295,-0.146995 0.325099,0.08709 1.191784,0.396937 1.925967,0.688433 1.371139,0.544392 2.570037,0.889865 4.028116,1.160722 1.807408,0.335758 3.14812,1.43276 3.156375,2.582616 0.005,0.651873 0.03744,0.661991 2.576865,0.796316 1.265984,0.06699 2.479117,0.173111 2.695849,0.235885 0.216733,0.06275 1.03687,0.412914 1.822525,0.778079 0.785657,0.365166 1.746729,0.784662 2.135705,0.932227 0.970973,0.368327 1.790211,0.971515 3.581285,2.63679 1.678395,1.560516 2.168377,1.933533 3.081627,2.346083 0.77792,0.351433 1.43493,0.484536 2.86538,0.58053 0.91406,0.06137 1.20334,0.117498 1.41669,0.275023 0.22317,0.164786 1.70445,2.121961 2.64302,3.492166 0.31994,0.467069 0.38819,0.945379 0.23673,1.659099 l -0.12377,0.583198 -0.70211,-0.714163 c -0.89413,-0.909441 -1.55835,-1.14696 -2.23258,-0.798297 -1.06893,0.552758 0.12847,2.50484 2.89655,4.722115 2.01248,1.612028 2.47014,2.655892 1.90235,4.339108 -0.12587,0.373106 -0.2527,0.636643 -0.28187,0.585651 -0.0291,-0.05103 -0.14689,-0.406817 -0.26163,-0.790701 -0.41495,-1.388311 -1.73869,-2.361411 -2.59145,-1.905031 -0.31527,0.168727 -0.73994,1.198207 -1.08051,2.619413 -0.3419,1.426741 -0.6361,1.937778 -1.26561,2.198537 -0.16473,0.06827 -0.29951,0.181661 -0.29951,0.25205 0,0.132532 0.10637,0.163318 1.18218,0.342132 0.89621,0.148965 1.5153,0.355452 2.3151,0.772169 l 0.6896,0.359304 1.2807,-0.004 c 1.45476,-0.005 1.88938,-0.09896 3.74356,-0.812758 1.10056,-0.423683 1.24678,-0.455405 2.11806,-0.459503 l 0.9359,-0.005 1.37921,0.649725 c 0.75856,0.357343 1.56619,0.702263 1.79473,0.766495 0.31104,0.08738 0.5458,0.264788 0.93356,0.705298 0.28494,0.32369 0.59789,0.613866 0.69545,0.644829 0.0976,0.03093 0.38347,-0.04345 0.63528,-0.165348 0.41975,-0.203186 0.51633,-0.213235 1.15945,-0.120582 0.40629,0.05851 1.03134,0.249923 1.48511,0.454735 0.43095,0.194505 1.08779,0.402211 1.45964,0.461556 0.85351,0.136217 1.34219,0.385449 1.95262,0.995878 0.65319,0.653193 0.96488,1.342384 0.96612,2.136187 l 9.8e-4,0.617885 -0.862,-0.879591 c -0.6837,-0.697652 -0.95031,-0.903125 -1.28894,-0.993335 -1.04896,-0.279447 -1.64173,0.272513 -2.16545,2.016364 -0.26384,0.878516 -0.68722,1.543846 -1.19718,1.881319 -0.22073,0.146077 -0.4241,0.242819 -0.45193,0.214988 -0.0278,-0.02778 -0.002,-0.267063 0.0574,-0.531625 0.22628,-1.007778 -0.10472,-1.46662 -0.88856,-1.231771 -0.63399,0.189936 -0.85376,0.860872 -0.55541,1.69553 0.52136,1.458512 2.15562,1.985035 3.9653,1.277521 1.10301,-0.431239 1.88663,-0.527222 3.9286,-0.481235 1.61343,0.03636 1.81633,0.06078 2.25113,0.27132 0.59224,0.286766 1.0844,1.007049 1.28984,1.887702 0.17873,0.766121 0.39693,0.99573 1.52991,1.609901 2.04747,1.109889 2.72373,2.568293 2.17533,4.69123 -0.11827,0.457848 -0.2516,0.86964 -0.29628,0.915095 -0.0448,0.04542 -0.18101,-0.220536 -0.30293,-0.591089 -0.48183,-1.464464 -1.03096,-2.214211 -1.95168,-2.66468 -0.4972,-0.243253 -0.66431,-0.272621 -1.5428,-0.271073 -1.13477,0.002 -2.47077,0.26659 -2.94055,0.582379 -0.27309,0.183563 -0.32457,0.293339 -0.42734,0.911145 -0.12164,0.731197 -0.2606,1.05936 -0.86772,2.049188 -0.3579,0.583485 -0.36195,0.601779 -0.31456,1.420861 0.0619,1.069015 -0.0582,1.88859 -0.43676,2.982046 -0.16749,0.483787 -0.28256,0.901588 -0.2557,0.928453 0.0269,0.02689 0.60442,0.176609 1.28346,0.332774 1.95102,0.448696 3.11118,1.041893 4.00996,2.050312 0.6513,0.730743 0.91794,1.300702 0.96722,2.067443 0.0462,0.719415 -0.12842,1.264951 -0.57423,1.793611 l -0.29076,0.344802 -0.003,-0.471107 c -9.9e-4,-0.259105 -0.0626,-0.614457 -0.13575,-0.789657 -0.17593,-0.421052 -0.75575,-0.919823 -1.21879,-1.048405 -0.43761,-0.121528 -1.69629,-0.136364 -1.87628,-0.02207 -0.15837,0.100515 -0.31808,0.650277 -0.31933,1.099209 -9.9e-4,0.441732 -0.36802,1.215723 -0.82487,1.74062 -0.55483,0.637471 -1.55901,1.04086 -1.69686,0.681635 -0.0295,-0.07684 0.0827,-0.398276 0.24916,-0.714233 0.37171,-0.70514 0.37756,-0.914337 0.0369,-1.319154 -0.94189,-1.119356 -2.68663,-0.479561 -2.70694,0.992636 -0.01,0.682895 0.40764,1.064109 2.32353,2.123784 1.62881,0.900889 2.3421,1.803206 2.34791,2.970128 0.004,0.737417 -0.17449,1.369402 -0.46912,1.664028 -0.36605,0.36605 -0.44095,0.296517 -0.44095,-0.409307 0,-1.516467 -0.90294,-2.211817 -3.25099,-2.503572 -0.51474,-0.06394 -1.01347,-0.138487 -1.10829,-0.165619 -0.15406,-0.04404 -0.1724,0.03556 -0.1724,0.748605 0,0.919264 -0.12786,1.295008 -0.62961,1.85041 -0.33457,0.370337 -1.14442,0.812841 -1.77022,0.967263 -0.27945,0.06891 -0.27775,0.06396 0.20804,-0.608836 0.2694,-0.37311 0.5454,-0.784803 0.61335,-0.914879 0.18616,-0.356387 0.14079,-0.899245 -0.12493,-1.494825 -0.29187,-0.654173 -0.57166,-0.924015 -0.8792,-0.847902 -0.12381,0.03064 -0.4911,0.127291 -0.8162,0.214772 -0.36988,0.09954 -1.0335,0.16381 -1.77326,0.171751 -1.0207,0.01094 -1.23601,-0.01527 -1.57624,-0.192144 -0.84338,-0.438391 -0.87729,-0.72173 -0.10309,-0.861522 0.9204,-0.166205 1.8204,-0.922573 2.41808,-2.032185 0.54522,-1.012231 0.44677,-2.002689 -0.27586,-2.775037 -0.34513,-0.368889 -0.64702,-0.34293 -1.296,0.11142 -0.70775,0.495521 -1.33417,0.701329 -2.13463,0.701329 h -0.64574 l 0.491,-0.388119 c 0.92219,-0.728952 1.05186,-1.800124 0.38584,-3.187204 -0.32226,-0.671142 -1.62615,-2.620536 -1.75765,-2.627766 -0.0336,-0.002 -0.18119,0.340221 -0.32795,0.760141 -0.46014,1.316542 -1.3535,2.388985 -1.99007,2.388985 -0.28965,0 -0.28853,-0.06058 0.0148,-0.807063 0.13547,-0.333364 0.24613,-0.72039 0.24593,-0.860054 -9.8e-4,-0.523095 -0.77192,-1.415561 -1.54763,-1.79108 -0.96912,-0.469148 -1.90573,-0.310509 -2.53973,0.430175 -0.62422,0.729266 -0.62484,0.946196 -0.008,2.683221 0.61914,1.742442 0.44782,3.043814 -0.51492,3.911691 -0.46251,0.416935 -1.10004,0.767766 -1.39519,0.767766 -0.27275,0 -0.25551,-0.06354 0.13454,-0.495254 0.81115,-0.897845 0.67078,-2.843091 -0.23993,-3.324927 -0.64941,-0.343591 -1.7674,0.07871 -3.14952,1.189705 -1.31174,1.054425 -1.77628,1.293648 -2.51946,1.297451 -0.50789,0.003 -0.714628,-0.05654 -1.366473,-0.390986 l -0.768041,-0.39406 0.745843,-0.06167 c 1.146982,-0.09477 1.972821,-0.682127 2.469001,-1.755871 0.28902,-0.625491 0.29456,-1.973204 0.0101,-2.457582 -0.41846,-0.712518 -0.54364,-0.749156 -2.559257,-0.749156 H 96.88253 l -0.379119,-0.303731 c -0.451781,-0.363087 -0.822435,-0.881138 -0.822435,-1.149521 0,-0.208547 0.09525,-0.20701 0.935897,0.01517 1.04241,0.275517 2.315092,-0.483167 2.315092,-1.380115 0,-1.033293 -1.065261,-1.978012 -2.705221,-2.399133 -1.189951,-0.305554 -2.407769,-0.102072 -2.972456,0.496682 -0.171475,0.181819 -0.434165,0.653588 -0.58375,1.048366 -0.457306,1.206966 -1.170081,1.750216 -2.298215,1.751654 l -0.432165,5.91e-4 0.462695,-0.494663 c 0.558925,-0.597571 0.746438,-1.015078 0.746438,-1.661986 0,-0.694224 -0.340822,-1.094382 -0.932119,-1.094382 -0.232121,0 -0.63751,0.09527 -0.900869,0.211807 -1.319331,0.583602 -3.585233,-0.03242 -3.839056,-1.043774 -0.112977,-0.450135 0.06354,-0.504604 0.865325,-0.266966 0.395094,0.117105 0.851346,0.212536 1.013896,0.212063 1.188266,-0.003 2.037858,-0.881541 2.370248,-2.449731 0.220565,-1.040583 0.154836,-1.983202 -0.138295,-1.983202 -0.04197,0 -0.334921,0.155781 -0.651115,0.34619 -0.633864,0.381687 -1.286102,0.590657 -2.146275,0.687645 -0.573987,0.06472 -0.961545,0.0059 -0.961545,-0.145517 0,-0.04591 0.329503,-0.44245 0.732232,-0.881098 0.800975,-0.872418 1.19206,-1.578484 1.289737,-2.328507 0.07635,-0.586095 -0.06048,-0.991572 -0.384326,-1.139128 -0.189552,-0.08639 -0.360791,-0.06601 -0.83975,0.09973 -0.330902,0.114513 -0.704904,0.208211 -0.831112,0.208211 -0.359943,0 -1.345993,-0.216418 -1.345993,-0.295427 0,-0.03911 0.263971,-0.211875 0.586607,-0.383843 0.723764,-0.385754 0.989635,-0.706145 0.989635,-1.192513 0,-0.738842 -0.691486,-1.160663 -1.728555,-1.054444 -0.273419,0.02798 -0.907119,0.209255 -1.408236,0.402788 -0.501115,0.193532 -1.20458,0.402975 -1.563253,0.465443 -1.156447,0.201384 -2.491836,-0.03429 -2.65873,-0.469226 -0.08226,-0.214349 0.11213,-0.305347 0.801123,-0.375007 1.017954,-0.102928 1.437037,-0.255518 1.885004,-0.686343 0.52801,-0.507805 0.675024,-1.01161 0.603827,-2.069187 -0.07073,-1.051095 -0.521242,-1.983922 -1.092816,-2.26297 -0.363677,-0.177563 -0.46431,-0.180637 -1.931227,-0.05901 -2.085845,0.172962 -2.644789,0.06098 -3.450375,-0.691595 -0.307387,-0.28715 -0.319701,-0.320242 -0.153753,-0.413112 0.112494,-0.06295 0.509579,-0.07517 1.054957,-0.03251 0.868034,0.06788 0.876615,0.0663 1.151373,-0.209906 0.406709,-0.408935 0.931528,-1.729014 0.983652,-2.474201 0.06817,-0.974303 -0.257095,-1.220639 -1.919741,-1.454031 -0.579513,-0.08137 -1.074107,-0.168372 -1.09912,-0.193374 -0.02502,-0.02502 0.105421,-0.108918 0.28983,-0.18647 0.959723,-0.403576 1.16753,-1.193152 0.573377,-2.178656 -0.37746,-0.626073 -0.710243,-0.856479 -1.051479,-0.727966 -0.122277,0.04601 -0.483166,0.267674 -0.80198,0.492515 -0.318814,0.224831 -0.639923,0.388602 -0.713573,0.363934 -0.102274,-0.03429 -0.133917,-0.306489 -0.133917,-1.152132 v -1.107244 l -0.32172,-0.288127 c -0.419703,-0.375864 -1.117957,-0.396611 -1.845608,-0.05487 -0.858527,0.403261 -0.956569,0.601079 -1.228284,2.478467 -0.209087,1.444672 -0.372504,1.944093 -0.692106,2.115134 -0.345088,0.184687 -0.51275,0.05684 -0.439258,-0.334862 0.12737,-0.678984 -0.442351,-2.10547 -0.9692,-2.426707 -0.6315,-0.385045 -1.944063,-0.116967 -3.042721,0.621452 -0.720557,0.484289 -1.066305,0.946531 -1.066305,1.425589 0,0.397084 0.189316,0.693298 1.086659,1.700328 1.243445,1.395414 1.850513,2.474566 2.010275,3.573509 0.149545,1.028673 -0.349747,2.148436 -1.151344,2.582148 -0.487619,0.263843 -0.609541,0.140827 -0.471393,-0.47561 0.27794,-1.240208 -0.873679,-3.091785 -2.117854,-3.405063 -0.670019,-0.168716 -1.12961,0.0861 -2.141989,1.187765 -0.944994,1.028298 -1.541689,1.46269 -2.009211,1.46269 -0.355186,0 -0.416029,-0.13341 -0.179859,-0.394376 0.423427,-0.467876 0.458902,-3.404516 0.05389,-4.460615 -0.272136,-0.709632 -0.513133,-0.8737 -1.362608,-0.927695 -0.9453,-0.0601 -1.238973,0.115617 -1.749565,1.04676 -0.632259,1.153028 -0.850726,1.180583 -1.019453,0.128591 -0.125842,-0.784572 -0.51733,-1.504726 -1.105464,-2.033505 -0.549349,-0.493914 -0.907076,-0.613334 -2.264937,-0.756122 -1.780439,-0.187207 -2.96982,0.02729 -3.530359,0.636663 -0.180923,0.196685 -0.250238,0.401271 -0.281261,0.830106 -0.05644,0.779696 0.01005,0.820393 1.485004,0.909243 2.103155,0.12669 3.088896,0.565269 3.646036,1.622186 0.245254,0.465246 0.26801,1.565027 0.04866,2.353363 l -0.13397,0.48159 -0.321305,-0.602843 c -0.444559,-0.834065 -0.726667,-1.141372 -1.318574,-1.436327 -0.837593,-0.417397 -1.910528,-0.306204 -2.513755,0.260494 -0.12266,0.115233 -0.223008,0.270473 -0.223008,0.344998 0,0.300629 0.368289,0.806227 1.274123,1.749143 0.984863,1.025179 1.329951,1.573365 1.443499,2.293006 0.12271,0.777765 -0.291554,1.656498 -1.028239,2.181061 l -0.272966,0.19436 0.138129,-0.565387 c 0.258247,-1.057113 -0.182293,-1.80563 -1.406774,-2.390188 -0.822776,-0.392789 -0.931281,-0.373776 -1.340708,0.23487 -0.37547,0.558155 -1.082688,1.125503 -1.263602,1.013698 -0.07664,-0.04738 -0.09123,-0.294146 -0.0465,-0.787489 0.0598,-0.659695 0.04699,-0.736596 -0.156116,-0.939723 -0.20167,-0.201671 -0.292038,-0.217373 -1.02224,-0.177613 -1.044356,0.05684 -1.669256,0.323907 -1.90248,0.812984 -0.161338,0.338331 -0.159289,0.388849 0.05005,1.231693 0.260532,1.049045 0.219313,1.465044 -0.217393,2.194242 -0.242553,0.405014 -0.427476,0.574617 -0.876585,0.80401 -0.770505,0.393536 -0.90551,0.271132 -0.53474,-0.484852 0.146601,-0.298903 0.266542,-0.669497 0.266542,-0.823545 0,-0.606694 -0.770356,-1.144142 -2.14327,-1.495269 -1.742945,-0.445769 -2.415585,-0.102425 -2.688234,1.372215 -0.241943,1.308494 -0.769028,2.310755 -1.381879,2.627678 -0.522237,0.270058 -0.584144,0.17048 -0.584144,-0.939557 0,-1.091053 -0.125399,-1.531345 -0.571682,-2.007281 -0.399438,-0.425967 -0.964126,-0.647903 -1.654833,-0.650385 -1.992789,-0.0069 -2.338399,0.91744 -2.135074,5.711953 l 0.08571,2.019801 1.115395,1.378963 c 1.420674,1.756362 2.62889,2.989768 3.509445,3.582591 0.818472,0.551024 2.175209,1.030555 3.394656,1.199823 0.925321,0.128444 1.500638,0.05054 3.349506,-0.45375 1.183874,-0.322882 3.185932,-0.443858 3.493564,-0.211106 0.160816,0.121675 0.172096,0.171829 0.06709,0.298361 -0.06945,0.08364 -0.251568,0.179633 -0.404758,0.213275 -0.376771,0.08275 -0.62626,0.381588 -0.616123,0.738005 0.01862,0.653646 0.195621,0.698716 3.124843,0.795636 3.281453,0.108572 4.088082,0.32696 4.491905,1.216116 0.184252,0.405724 0.254897,1.14233 0.109548,1.14233 -0.04285,0 -0.272551,-0.198232 -0.510346,-0.440529 -0.790021,-0.804975 -1.470197,-0.931586 -1.992995,-0.370988 -0.633757,0.679567 -0.566215,0.966156 0.506405,2.149063 1.389011,1.531819 1.663552,2.408197 0.971298,3.100451 -0.41724,0.417241 -0.537901,0.375431 -0.59374,-0.205738 -0.09063,-0.943497 -0.981818,-1.670872 -2.047109,-1.670872 -0.420402,0 -0.644337,0.05616 -0.893422,0.224004 -1.306209,0.880259 -1.256853,3.160189 0.09763,4.509952 1.24977,1.245415 2.631215,1.018496 4.722952,-0.775805 0.561023,-0.481245 1.257966,-1.019195 1.548773,-1.195439 1.219268,-0.73895 2.479491,-1.039706 3.359121,-0.801645 0.521163,0.141044 1.374932,0.887698 1.284506,1.123355 -0.053,0.138197 -0.156826,0.154482 -0.653647,0.102554 -0.678492,-0.07093 -1.100224,0.06048 -1.332699,0.41531 -0.383282,0.584971 -0.151576,0.695002 1.866984,0.886643 0.812749,0.07714 1.713135,0.188538 2.000858,0.247509 0.691526,0.141734 1.161106,0.548994 1.251769,1.085635 0.03694,0.218702 0.0398,0.425022 0.0059,0.458487 -0.0335,0.03349 -0.226279,-0.09987 -0.428471,-0.296312 -0.731808,-0.710993 -1.486738,-0.760634 -2.165515,-0.142384 -0.269497,0.24546 -0.296451,0.818658 -0.06866,1.460483 0.08414,0.237086 0.177652,0.697062 0.207818,1.022161 0.04739,0.511382 0.02522,0.628359 -0.164412,0.867442 -0.159003,0.200431 -0.29055,0.268102 -0.478733,0.246291 -0.237805,-0.02762 -0.264503,-0.07663 -0.319454,-0.587926 -0.03823,-0.355514 -0.139074,-0.658427 -0.278059,-0.835114 -0.507853,-0.645627 -1.798113,-1.310218 -1.978149,-1.01891 -0.0465,0.07517 -0.0599,0.271842 -0.02995,0.436943 0.283723,1.55982 2.043908,3.152563 3.479015,3.148078 0.718764,-0.002 1.200227,-0.262756 2.181346,-1.180288 1.004152,-0.939078 1.432997,-1.166125 2.202566,-1.166125 0.754595,0 1.160151,0.209196 2.15191,1.110018 0.41791,0.379584 0.911036,0.740051 1.09583,0.801039 0.406187,0.134066 0.685428,0.01337 1.399464,-0.604906 0.742821,-0.643192 1.218501,-0.82059 2.19958,-0.820335 0.994007,2.96e-4 1.405325,0.176094 2.051337,0.876938 0.626426,0.679597 0.737117,1.05841 0.422717,1.446667 l -0.185848,0.22951 -0.417369,-0.37707 c -0.406166,-0.366942 -0.434085,-0.376011 -1.039272,-0.337467 -0.815408,0.05188 -1.865488,0.567213 -2.149171,1.054647 l -0.19438,0.333982 0.215344,0.40593 c 0.118444,0.223272 0.487392,0.737953 0.81988,1.143745 0.73432,0.896205 0.964333,1.374184 0.96717,2.009841 0.003,0.616114 -0.307249,1.162863 -1.00694,1.775907 l -0.517874,0.453733 -0.05437,-0.814952 c -0.03743,-0.560838 -0.120996,-0.942521 -0.268058,-1.224099 -0.240594,-0.460661 -0.815665,-0.97849 -1.159689,-1.044251 -0.655901,-0.125393 -4.085649,1.446123 -4.387646,2.010426 -0.0795,0.148531 -0.06639,0.295369 0.0531,0.594005 0.08729,0.218191 0.132759,0.491771 0.101037,0.607991 -0.09576,0.35064 -0.470754,1.14718 -0.540098,1.14718 -0.03566,0 -0.167781,-0.21979 -0.293595,-0.48841 -0.448971,-0.95858 -1.15485,-1.322433 -1.713301,-0.88315 -0.324893,0.25556 -0.554491,0.73965 -0.554491,1.1691 0,0.37832 0.215038,0.51634 1.231436,0.79027 1.2132,0.327 2.035268,0.94035 2.511518,1.87388 0.269449,0.52814 0.248475,0.86759 -0.0862,1.39531 -0.247913,0.39092 -0.765362,0.87171 -0.938187,0.87171 -0.03232,0 -0.05881,-0.18841 -0.05901,-0.41868 -3.94e-4,-0.47195 -0.2574,-0.9652 -0.630121,-1.20942 -0.420048,-0.27523 -1.42158,-0.39766 -1.924735,-0.23529 -0.597483,0.19281 -0.79604,0.50309 -0.896781,1.40133 -0.04601,0.41056 -0.156245,0.88676 -0.244908,1.0582 -0.354358,0.68526 -1.489426,1.5712 -2.013023,1.5712 -0.266829,0 -0.254996,-0.0956 0.09851,-0.79583 0.389873,-0.77232 0.506908,-1.39355 0.368071,-1.9536 -0.2043,-0.82407 -1.18006,-1.48672 -2.189207,-1.48672 -0.32699,0 -0.495461,0.0765 -0.893717,0.40593 -1.044356,0.86383 -1.693383,1.2043 -2.704047,1.4185 l -0.341492,0.0724 0.529508,-0.57898 c 0.678915,-0.74234 0.887432,-1.20389 0.89018,-1.97042 0.004,-1.0104 -0.31171,-1.64569 -1.423618,-2.86818 l -0.558994,-0.61459 -0.953289,0.9784 c -0.75621,0.77614 -1.090077,1.04226 -1.615053,1.28735 -0.594252,0.27742 -0.865207,0.31342 -0.865207,0.11493 0,-0.0375 0.219353,-0.44099 0.487452,-0.8965 0.75415,-1.28137 0.767706,-2.133823 0.05132,-3.227647 -0.78939,-1.205277 -2.683733,-1.851014 -3.861607,-1.316324 -0.529044,0.240152 -0.77081,0.639529 -0.850873,1.405549 -0.03487,0.333656 -0.154442,0.794704 -0.265704,1.02454 -0.239825,0.495413 -0.923705,1.145022 -1.158121,1.100092 -0.223629,-0.0429 -0.399547,-0.597758 -0.406305,-1.281563 -0.0079,-0.830336 -0.312292,-1.053578 -1.333409,-0.978956 -0.438204,0.03198 -0.687762,0.239004 -1.29881,1.077132 -0.673418,0.923717 -1.17752,1.469327 -1.527109,1.652897 -0.291831,0.15322 -1.363063,0.30747 -1.363063,0.19628 0,-0.039 0.149299,-0.25566 0.331779,-0.48151 0.446312,-0.55241 0.554924,-0.781118 0.554482,-1.167672 -4.94e-4,-0.457791 -0.313909,-0.92074 -0.856085,-1.264573 -0.560964,-0.355754 -0.603118,-0.357724 -1.025393,-0.04792 -0.499342,0.366377 -1.088511,0.63644 -1.393769,0.638866 -0.322695,0.003 -0.335305,-0.08455 -0.07429,-0.512661 0.10816,-0.177392 0.196823,-0.425702 0.19703,-0.551779 5.91e-4,-0.380089 -0.491728,-0.769426 -1.273098,-1.006767 -1.34863,-0.409633 -2.042529,-0.100809 -2.260778,1.006183 -0.277517,1.407629 -0.212025,3.480093 0.144895,4.585233 0.271251,0.83991 0.609689,1.16226 1.409954,1.34299 0.376505,0.0851 1.252953,0.42084 1.947689,0.74628 0.694728,0.32542 1.503397,0.64298 1.79704,0.70567 1.048514,0.22384 2.007389,-0.0685 3.210029,-0.97902 1.152073,-0.87214 2.066547,-1.00736 2.982568,-0.44103 0.561702,0.34727 1.15624,1.16834 1.364343,1.88417 0.140698,0.48398 0.139211,0.58307 -0.01843,1.22619 -0.151615,0.61866 -0.156264,0.77468 -0.0402,1.34781 0.07222,0.3565 0.134256,0.74424 0.137871,0.86165 0.004,0.11742 0.03833,0.24525 0.07724,0.28408 0.03881,0.0388 0.762536,0.10455 1.608177,0.14603 1.446741,0.0709 1.574475,0.0936 2.162875,0.38327 0.711593,0.35032 1.480994,1.12374 1.825175,1.83472 0.186282,0.38479 0.210458,0.55124 0.15654,1.07756 -0.08778,0.85666 -0.328034,1.52844 -0.546659,1.52844 -0.03753,0 -0.139743,-0.15001 -0.227165,-0.33333 -0.437504,-0.91746 -1.294673,-1.46429 -2.295565,-1.46446 -0.755175,0 -1.246785,0.24172 -1.845962,0.90816 -0.859877,0.95638 -1.023441,1.60825 -0.661754,2.63731 0.262779,0.74765 0.249982,1.26008 -0.04631,1.8534 -0.451898,0.90492 -0.93668,0.88589 -0.941004,-0.0369 -0.003,-0.60376 -0.267251,-1.16443 -0.757688,-1.60657 -0.517449,-0.46652 -0.973948,-0.60839 -1.80629,-0.56135 -0.555152,0.0313 -0.751304,0.0909 -1.09457,0.33214 -0.520256,0.36565 -0.815683,0.84444 -0.730488,1.18387 0.03429,0.13666 0.365766,0.57569 0.736597,0.97563 0.766288,0.82645 1.073645,1.38534 1.159214,2.10791 0.08886,0.75003 -0.115715,1.34288 -0.657153,1.90461 -0.27262,0.28283 -0.54324,0.47339 -0.672296,0.47339 -0.203699,0 -0.212397,-0.0307 -0.152708,-0.53853 z m 59.668597,0.3765 c -0.03812,-0.0994 0.0089,-0.21399 0.12175,-0.2965 0.156065,-0.11412 0.205302,-0.11312 0.325022,0.007 0.07762,0.0776 0.114254,0.21102 0.08148,0.2965 -0.07851,0.20454 -0.448989,0.1999 -0.528235,-0.007 z m 48.179346,0.0146 c -0.0341,-0.0887 -0.0163,-0.20681 0.0392,-0.26243 0.16059,-0.16059 0.46686,-0.0524 0.46686,0.16498 0,0.25059 -0.41654,0.3308 -0.5061,0.0974 z m 23.11528,-0.0495 c -0.22718,-0.22716 -0.24032,-0.32479 -0.0838,-0.62219 0.15418,-0.2929 0.27488,-0.35968 0.65333,-0.36144 0.36023,-0.002 0.47128,0.15724 0.37576,0.53781 -0.0689,0.27446 -0.42366,0.64286 -0.6191,0.64286 -0.071,0 -0.21785,-0.0887 -0.32621,-0.19704 z m -66.46193,-0.24629 c -0.078,-0.20337 0.0278,-0.44331 0.19551,-0.44331 0.0763,0 0.19398,0.0665 0.26144,0.14778 0.0978,0.11788 0.0978,0.17765 0,0.29553 -0.0675,0.0813 -0.18511,0.14778 -0.26144,0.14778 -0.0763,0 -0.16433,-0.0665 -0.19551,-0.14778 z m 34.18746,-0.68232 c -0.0897,-0.23356 0.0372,-0.46945 0.23219,-0.4319 0.10906,0.021 0.1727,0.12303 0.1727,0.27685 0,0.28083 -0.31094,0.3999 -0.40489,0.15505 z m -43.383924,-0.30157 c -0.163693,-0.19724 -0.05467,-0.44457 0.195985,-0.44457 0.111774,0 0.22895,0.0671 0.260404,0.14903 0.05663,0.14752 -0.116898,0.44206 -0.260404,0.44206 -0.04088,0 -0.129104,-0.0659 -0.195985,-0.14652 z m 89.486084,-1.08492 c -0.078,-0.20337 0.0278,-0.44331 0.19552,-0.44331 0.20165,0 0.37321,0.24486 0.30186,0.43084 -0.0772,0.20125 -0.42162,0.2099 -0.49738,0.0125 z m -29.75157,-0.0987 c -0.10229,-0.26657 0.0523,-0.64013 0.26497,-0.64013 0.2741,0 0.34361,0.24919 0.15137,0.54259 -0.18269,0.27882 -0.33324,0.31409 -0.41634,0.0975 z m 20.57377,-0.16725 c -0.26159,-0.26159 -0.0686,-0.47288 0.43167,-0.47288 0.30158,0 0.31183,0.23283 0.0193,0.43773 -0.26323,0.18437 -0.29893,0.18717 -0.45096,0.0352 z m -63.89018,-0.34153 c -0.125,-0.12499 -0.065,-0.43333 0.0963,-0.49525 0.19152,-0.0735 0.44119,0.21767 0.3625,0.42274 -0.0547,0.14275 -0.34306,0.18831 -0.45884,0.0725 z m -7.39946,-0.84287 c -0.19176,-0.27377 -0.19385,-0.46753 -0.008,-0.73302 0.2075,-0.29624 0.62082,-0.37902 0.85127,-0.17047 0.22777,0.20615 0.2451,0.75316 0.0306,0.96763 -0.22979,0.22978 -0.6919,0.19587 -0.87402,-0.0642 z m 39.25627,-0.75936 c -0.0772,-0.14424 -0.0634,-0.2286 0.0572,-0.34919 0.0874,-0.0875 0.20611,-0.14332 0.26366,-0.12413 0.17362,0.0578 0.30187,0.33081 0.23604,0.50235 -0.0849,0.22112 -0.43276,0.20299 -0.55693,-0.0291 z m 38.51566,-0.13934 c 0,-0.0729 0.0878,-0.2119 0.19497,-0.30895 0.17854,-0.16159 0.20022,-0.16277 0.2573,-0.014 0.0714,0.18621 -0.11568,0.45547 -0.31656,0.45547 -0.0747,0 -0.13571,-0.0596 -0.13571,-0.1325 z m -81.815088,-0.10048 c -0.244202,-0.17857 -0.114235,-0.55514 0.191589,-0.55514 0.206381,0 0.348705,0.16271 0.348705,0.39865 0,0.18242 -0.361595,0.28715 -0.540294,0.15649 z m -9.762217,-0.40304 c -0.07644,-0.30468 0.154068,-0.6982 0.467266,-0.79759 0.292166,-0.0927 0.697181,0.35996 0.654149,0.73116 -0.02768,0.23839 -0.07123,0.2615 -0.544097,0.28881 -0.480005,0.0277 -0.518248,0.013 -0.577318,-0.22238 z m 105.270865,0.096 c 0,-0.19647 0.45654,-0.3022 0.64163,-0.14859 0.24406,0.20256 0.16678,0.29448 -0.24757,0.29448 -0.28234,0 -0.39406,-0.0414 -0.39406,-0.14589 z m -108.839241,-0.662 c -0.159318,-0.15932 -0.14923,-0.42301 0.02157,-0.56478 0.18177,-0.15086 0.341443,0.1067 0.276561,0.4461 -0.05053,0.26433 -0.123468,0.29336 -0.298155,0.11868 z m 91.134311,-0.93113 c -0.17471,-0.0708 -0.26127,-0.66869 -0.13182,-0.91057 0.15932,-0.29769 0.62667,-0.27631 0.87551,0.0401 0.24523,0.31176 0.17609,0.60263 -0.18797,0.7909 -0.29058,0.15026 -0.35772,0.15988 -0.55572,0.0796 z m -53.04129,-0.78553 c -0.65245,-0.41941 -0.8227,-1.39679 -0.33244,-1.90851 0.37805,-0.3946 0.83935,-0.53995 1.26637,-0.39901 0.93672,0.30914 1.18317,1.42791 0.46592,2.11507 -0.36453,0.34923 -1.01651,0.43887 -1.39985,0.19245 z m 33.85422,1e-4 c -0.20484,-0.20483 -0.16226,-0.81566 0.0669,-0.95913 0.20229,-0.12668 0.65193,0.01 0.79763,0.2419 0.14978,0.23875 0.006,0.63251 -0.2775,0.76185 -0.33151,0.15105 -0.39625,0.14613 -0.58699,-0.0446 z m -60.120542,-0.89081 c -0.200836,-0.0804 -0.140333,-0.4108 0.09851,-0.53803 0.275696,-0.14685 0.437603,-0.35805 0.518977,-0.67698 0.145016,-0.56834 0.605391,-0.76319 0.879276,-0.37214 0.317675,0.45355 0.09,1.09264 -0.376298,1.05625 -0.431524,-0.0337 -0.54665,0.0124 -0.671766,0.26915 -0.135551,0.27805 -0.24635,0.3427 -0.448702,0.26175 z m 14.543052,-0.49424 c -0.57305,-0.35565 -0.75109,-1.17544 -0.38552,-1.77503 0.20146,-0.3304 0.65332,-0.62049 0.96651,-0.62049 0.25315,0 0.94479,0.61036 1.13375,1.00051 0.13722,0.28334 0.13877,0.36131 0.0133,0.66986 -0.21653,0.53243 -0.66169,0.89153 -1.10135,0.8884 -0.20233,-9.9e-4 -0.48434,-0.0748 -0.62669,-0.16325 z m 59.51206,-0.97124 c -0.21005,-0.25309 0.0463,-0.42155 0.29668,-0.19495 0.10965,0.0992 0.19936,0.21787 0.19936,0.26366 0,0.14183 -0.36305,0.0915 -0.49604,-0.0687 z m -84.492131,-0.01 c -0.06472,-0.0263 -0.1705,-0.20811 -0.235146,-0.404 -0.10734,-0.32525 -0.09831,-0.37173 0.103885,-0.53547 0.267458,-0.21658 0.818934,-0.2349 0.986666,-0.0328 0.143812,0.17328 0.05783,0.61086 -0.169662,0.86329 -0.148827,0.16514 -0.435653,0.21073 -0.685743,0.10899 z m 70.824511,-0.64888 c -0.50992,-0.24575 -0.30031,-1.06099 0.27281,-1.06099 0.22231,0 0.32611,0.0684 0.44104,0.29065 0.20305,0.39268 0.18908,0.66681 -0.0403,0.78955 -0.2335,0.12496 -0.38329,0.1207 -0.67359,-0.0192 z m 30.06018,-0.0266 c -0.078,-0.20339 0.0278,-0.44332 0.19551,-0.44332 0.0763,0 0.19399,0.0665 0.26144,0.14777 0.0978,0.11789 0.0978,0.17765 0,0.29555 -0.0675,0.0813 -0.1851,0.14776 -0.26144,0.14776 -0.0763,0 -0.16432,-0.0665 -0.19551,-0.14776 z m -23.65949,-0.36451 c -0.24242,-0.24242 -0.0792,-0.62577 0.36775,-0.86396 0.21331,-0.11367 0.25938,-0.10339 0.41869,0.0934 0.35729,0.44124 0.17458,0.88883 -0.36283,0.88883 -0.16797,0 -0.3586,-0.0532 -0.42361,-0.11821 z m -74.734321,-0.33739 c -0.08354,-0.21776 0.169436,-0.47817 0.384405,-0.39568 0.100002,0.0383 0.150216,0.14755 0.130789,0.28438 -0.03931,0.27664 -0.420176,0.35893 -0.515194,0.1113 z m 4.578568,-0.81286 c -0.171317,-0.32011 -0.121449,-0.57612 0.154511,-0.7932 0.595759,-0.46862 1.133013,-0.0421 0.758269,0.60208 -0.235162,0.40421 -0.741945,0.51032 -0.91278,0.19112 z m 33.391043,-0.15875 c -0.1637,-0.19724 -0.0547,-0.44457 0.19598,-0.44457 0.11176,0 0.22895,0.0671 0.2604,0.14903 0.0566,0.14753 -0.1169,0.44206 -0.2604,0.44206 -0.0409,0 -0.12911,-0.0659 -0.19598,-0.14652 z m 33.37087,-0.0228 c -0.21262,-0.2356 -0.22212,-0.42181 -0.0216,-0.42181 0.17157,0 0.27559,0.20557 0.2269,0.44844 -0.0294,0.1469 -0.0513,0.14406 -0.20536,-0.0266 z m 21.60043,0.0228 c -0.17553,-0.2115 -0.0456,-0.46462 0.21917,-0.42685 0.25248,0.036 0.35832,0.3598 0.15891,0.48618 -0.18468,0.11703 -0.23876,0.10855 -0.37808,-0.0593 z m -79.0379,-0.26695 c -0.54216,-0.72625 -0.6113,-1.16066 -0.22498,-1.41378 0.29176,-0.19117 0.61433,-0.0611 0.70057,0.28259 0.0909,0.36236 0.006,1.37787 -0.11851,1.41894 -0.0628,0.0207 -0.22347,-0.1088 -0.35708,-0.28775 z m -17.212186,-0.10587 c 0,-0.0768 0.0926,-0.22354 0.205818,-0.32598 0.204655,-0.18522 0.205631,-0.18461 0.172401,0.10703 -0.03399,0.29873 -0.378219,0.49798 -0.378219,0.21895 z m -84.170428,-0.8186 c -0.032904,-0.0857 -0.059799,-0.28157 -0.059799,-0.43526 0,-0.37921 -0.092013,-0.59109 -0.2568184,-0.59109 -0.089057,0 -0.1374874,-0.11251 -0.1379406,-0.32018 -3.841e-4,-0.17609 -0.025417,-0.63048 -0.055562,-1.00977 -0.045416,-0.57013 -0.033987,-0.65547 0.065709,-0.49257 0.066399,0.10836 0.3417383,0.46301 0.6119646,0.78811 0.5526488,0.66489 0.7858138,1.13515 0.6933182,1.39834 -0.069552,0.19782 -0.6248799,0.81825 -0.7324188,0.81825 -0.037731,0 -0.095559,-0.0701 -0.128453,-0.15583 z m 139.456974,-0.15942 c -0.15838,-0.15838 -0.15013,-0.37435 0.0143,-0.37435 0.16835,0 0.48074,0.33906 0.39313,0.42669 -0.10111,0.1011 -0.27652,0.0786 -0.40742,-0.0523 z m -17.35831,-0.40111 c 0,-0.0768 0.0926,-0.22355 0.20581,-0.326 0.20464,-0.1852 0.20562,-0.18461 0.1724,0.10704 -0.034,0.29873 -0.37821,0.49799 -0.37821,0.21896 z m 1.81803,-0.5106 c -0.19365,-0.19365 -0.2418,-0.34208 -0.2418,-0.74533 0,-0.27694 0.0431,-0.58395 0.0956,-0.68225 0.14408,-0.2692 0.82208,-0.49793 1.47595,-0.49793 0.68397,0 0.74999,0.0935 0.64751,0.91698 -0.12819,1.03 -0.34725,1.25034 -1.24306,1.25034 -0.39147,0 -0.542,-0.0495 -0.73424,-0.24181 z m -36.462577,-0.20914 c -0.0328,-0.0855 0.01291,-0.22797 0.101608,-0.31666 0.149319,-0.14932 0.17317,-0.14932 0.322489,0 0.201413,0.20142 0.108967,0.47207 -0.161249,0.47207 -0.111766,0 -0.230042,-0.07 -0.262848,-0.15541 z m 4.830165,-0.28791 c -0.07803,-0.20337 0.02778,-0.44332 0.195503,-0.44332 0.07634,0 0.193995,0.0665 0.261439,0.14778 0.09782,0.11789 0.09782,0.17765 0,0.29554 -0.06752,0.0813 -0.185104,0.14778 -0.261439,0.14778 -0.07633,0 -0.164313,-0.0665 -0.195503,-0.14778 z m 58.449372,0.0821 c -0.12057,-0.12056 -0.0676,-0.43235 0.0834,-0.49026 0.2387,-0.0916 0.45702,0.1469 0.33801,0.36926 -0.10015,0.18712 -0.29834,0.24403 -0.42136,0.121 z m -21.71704,-0.48174 c -0.14971,-0.10487 -0.21894,-0.25437 -0.21894,-0.47287 0,-0.5631 0.36004,-0.71678 0.82408,-0.35176 0.30982,0.2437 0.33133,0.51219 0.0626,0.78096 -0.23711,0.23712 -0.37832,0.24636 -0.66769,0.0437 z m -45.992623,-0.68372 c -0.03409,-0.0888 -0.01636,-0.20682 0.03921,-0.26244 0.160589,-0.16059 0.466862,-0.0524 0.466862,0.16498 0,0.25059 -0.41655,0.33081 -0.5061,0.0974 z m 47.191313,-0.28856 c -0.0897,-0.23357 0.0371,-0.46945 0.23219,-0.4319 0.10906,0.021 0.1727,0.12303 0.1727,0.27685 0,0.28083 -0.31094,0.39991 -0.40489,0.15505 z m 17.35993,-0.0154 c -0.0723,-0.18832 0.0962,-0.43508 0.29713,-0.43508 0.19427,0 0.1674,0.23632 -0.0492,0.43229 -0.17217,0.15582 -0.18919,0.15601 -0.24798,0.003 z m 19.01453,-0.78233 c -0.20086,-0.20085 -0.0494,-0.53938 0.24121,-0.53938 0.23523,0 0.35847,0.26187 0.22374,0.47546 -0.14124,0.22391 -0.28517,0.2437 -0.46495,0.064 z m -45.52304,-0.14132 c -0.0775,-0.12539 0.15929,-0.49659 0.31677,-0.49659 0.15764,0 0.16157,0.31716 0.006,0.47288 -0.14279,0.14278 -0.24442,0.15026 -0.32263,0.0238 z m 14.72697,0 c -0.13464,-0.0339 -0.30931,-0.17656 -0.38818,-0.31707 -0.12786,-0.22778 -0.1251,-0.2834 0.0254,-0.51311 0.34606,-0.52815 1.0973,-0.21059 1.0332,0.43675 -0.0352,0.3566 -0.26981,0.49422 -0.67043,0.39343 z m 14.60337,-0.006 c -0.16712,-0.0681 -0.22126,-0.16984 -0.22001,-0.41363 0.002,-0.39706 0.49519,-1.407 0.68705,-1.407 0.27426,0 0.39678,1.17514 0.16937,1.62462 -0.13946,0.27567 -0.31105,0.32852 -0.63641,0.19601 z m -50.93959,-0.42066 c -0.085,-0.10239 -0.0803,-0.17945 0.0194,-0.31577 0.17818,-0.24368 0.48047,-0.12611 0.43817,0.17041 -0.0368,0.2582 -0.29572,0.34043 -0.45761,0.14536 z m -18.770884,-0.62529 c -0.42856,-0.42845 -0.29318,-0.82383 0.282107,-0.82383 0.167968,0 0.358595,0.0532 0.423614,0.11821 0.258478,0.25848 0.06374,0.96545 -0.265872,0.96545 -0.09907,0 -0.297003,-0.11687 -0.439849,-0.25972 z m 98.108754,-0.39333 c -0.0882,-0.0883 -0.13575,-0.22488 -0.10555,-0.30359 0.0303,-0.0787 0.0548,-0.18067 0.0548,-0.22656 0,-0.16263 0.3128,-0.39303 0.53359,-0.39303 0.48077,0 0.76149,0.76654 0.35951,0.98168 -0.28103,0.1504 -0.65988,0.12409 -0.84248,-0.0585 z m -94.864158,-0.0929 c -0.385824,-0.38582 -0.0059,-1.06383 0.565229,-1.00855 0.277457,0.0269 0.318085,0.0694 0.346043,0.36139 0.05616,0.58697 -0.544728,1.0137 -0.911272,0.64716 z m 34.098588,-0.0207 c -0.43003,-0.47519 -0.0543,-1.15548 0.49052,-0.88802 0.4041,0.19839 0.50273,0.42476 0.32427,0.74418 -0.18615,0.33318 -0.58044,0.4028 -0.81479,0.14384 z m 38.89948,-0.0435 c -0.1963,-0.28027 -0.1957,-0.61127 9.8e-4,-0.80843 0.20639,-0.20638 0.35841,-0.19516 0.66928,0.0494 0.30274,0.23812 0.33629,0.58249 0.0794,0.81495 -0.25088,0.22704 -0.56855,0.20337 -0.75015,-0.0559 z m -19.46228,-0.20177 c 0,-0.0768 0.0926,-0.22355 0.20583,-0.32599 0.20464,-0.18521 0.20562,-0.18461 0.17239,0.10703 -0.034,0.29873 -0.37822,0.49799 -0.37822,0.21896 z m 18.02823,0.0764 c 0,-0.16759 0.22097,-0.44369 0.35512,-0.44369 0.25031,0 0.12725,0.43777 -0.13346,0.4748 -0.12191,0.0173 -0.22166,0.003 -0.22166,-0.0311 z m 38.61784,-0.0387 c 0,-0.0482 0.0854,-0.19226 0.18971,-0.32018 0.17119,-0.20988 0.19626,-0.21576 0.25682,-0.0602 0.0977,0.25109 -0.0164,0.46794 -0.24642,0.46794 -0.11006,0 -0.20011,-0.0394 -0.20011,-0.0875 z m -85.54491,-0.3881 c -0.18575,-0.20525 -0.21037,-0.53249 -0.0611,-0.81147 0.14415,-0.26937 0.63146,-0.25266 0.82832,0.0284 0.2104,0.30038 0.19333,0.43964 -0.0884,0.72143 -0.28849,0.28848 -0.45948,0.30401 -0.67881,0.0617 z M 90.62454,102.8555 c -0.129724,-0.12972 -0.06217,-0.32837 0.111647,-0.32837 0.182726,0 0.413763,0.17602 0.413763,0.31524 0,0.095 -0.432658,0.10588 -0.52541,0.0131 z m 58.27483,-0.0525 c -0.0651,-0.0651 -0.11821,-0.17286 -0.11821,-0.23965 0,-0.17913 0.38074,-0.2684 0.54904,-0.12872 0.12766,0.10596 0.12521,0.14324 -0.02,0.30369 -0.19418,0.21458 -0.25185,0.22366 -0.41083,0.0648 z m 35.97093,-0.0371 c -0.0328,-0.0855 0.0129,-0.22797 0.10161,-0.31665 0.14931,-0.14933 0.17317,-0.14933 0.32248,0 0.20141,0.20141 0.10896,0.47207 -0.16124,0.47207 -0.11177,0 -0.23005,-0.07 -0.26285,-0.15542 z m -56.36513,-1.10065 c 0.0223,-0.19398 0.0941,-0.27987 0.25284,-0.3024 0.26083,-0.037 0.27844,0.0543 0.0683,0.35437 -0.20958,0.2992 -0.35876,0.27507 -0.32113,-0.052 z m -24.21229,-0.36944 c -0.0809,-0.32248 0.0261,-0.73278 0.20953,-0.80317 0.19382,-0.0743 0.61886,0.21301 0.75414,0.50992 0.15363,0.33719 -0.0421,0.53954 -0.52173,0.53954 -0.3233,0 -0.38937,-0.0368 -0.44194,-0.24629 z m 27.02862,-0.30095 c -0.92147,-0.47971 -1.02123,-1.467778 -0.21245,-2.103961 0.34806,-0.273785 1.04616,-0.281171 1.31344,-0.01386 0.29013,0.290122 0.42753,0.913513 0.30316,1.375401 -0.0929,0.34501 -0.66951,1.00247 -0.86786,0.98956 -0.0387,-0.003 -0.28008,-0.11372 -0.53629,-0.24711 z m 63.57956,-1.510262 c -0.1838,-0.116473 -0.1016,-0.444732 0.12217,-0.48782 0.23631,-0.04554 0.36911,0.168431 0.2466,0.397307 -0.10575,0.197619 -0.17352,0.214242 -0.36877,0.09049 z M 108.94715,98.99763 c -0.21532,-0.237924 -0.20721,-0.635974 0.0171,-0.838979 0.22485,-0.20349 0.40423,-0.206035 0.68455,-0.0099 0.27336,0.191471 0.28335,0.570362 0.0219,0.831792 -0.24542,0.245409 -0.51115,0.251607 -0.72359,0.01683 z m 7.56249,-0.0059 c -0.31949,-0.194827 -0.63246,-0.733764 -0.63246,-1.089112 0,-0.381753 0.38551,-0.990065 0.73218,-1.155397 0.42022,-0.200381 0.78764,-0.113829 1.14618,0.269993 0.55383,0.592867 0.43304,1.539338 -0.25035,1.961694 -0.39868,0.24641 -0.60807,0.249093 -0.99555,0.01277 z m 9.42871,-0.04535 c -0.0605,-0.07287 -0.13714,-0.26827 -0.17032,-0.434177 -0.0498,-0.249192 -0.0175,-0.329715 0.18602,-0.463048 0.29714,-0.194698 0.7188,-0.117522 0.86658,0.15862 0.0838,0.156501 0.0418,0.249707 -0.23904,0.530502 -0.37329,0.373278 -0.47803,0.407168 -0.64324,0.208103 z m 27.44238,-0.24098 c -0.20136,-0.2225 -0.21559,-0.414643 -0.0307,-0.414643 0.21523,0 0.3848,0.263132 0.28477,0.44188 -0.0785,0.140264 -0.10507,0.137412 -0.25407,-0.02723 z M 80.924107,98.369606 c -0.179445,-0.179461 -0.142561,-0.715853 0.06197,-0.900918 0.245991,-0.222628 0.435958,-0.204728 0.689309,0.06505 0.273822,0.291468 0.270433,0.472929 -0.01379,0.739962 -0.252591,0.237301 -0.556559,0.276864 -0.737443,0.09594 z m 6.842349,-0.06198 c -0.322498,-0.356368 -0.08935,-1.002025 0.361924,-1.002025 0.226308,0 0.558698,0.351664 0.558698,0.591084 0,0.247172 -0.335039,0.591095 -0.57582,0.591095 -0.09996,0 -0.255124,-0.08109 -0.344802,-0.180154 z m 58.692614,-0.06297 c -0.34691,-0.529443 0.28679,-1.206733 0.74286,-0.793981 0.39034,0.353239 0.14508,1.037104 -0.37193,1.037104 -0.1164,0 -0.28332,-0.109414 -0.37093,-0.243123 z m 26.65526,-0.643509 c -0.21887,-0.218876 -0.2612,-0.684538 -0.0788,-0.866929 0.28361,-0.283607 0.96545,0.05307 0.96545,0.476711 0,0.228222 -0.33127,0.587243 -0.54184,0.587243 -0.0813,0 -0.23643,-0.08871 -0.3448,-0.197025 z m 16.18724,0.119631 c -0.23725,-0.150848 -0.32237,-0.574036 -0.16164,-0.803505 0.20344,-0.290449 0.58434,-0.427643 0.82691,-0.297815 0.34074,0.182352 0.16814,0.870513 -0.26825,1.06935 -0.28136,0.128195 -0.24971,0.125641 -0.39702,0.03198 z M 97.848955,96.680529 c 0,-0.07287 0.08782,-0.211916 0.194976,-0.308963 0.17854,-0.16158 0.200232,-0.162758 0.25731,-0.01396 0.07138,0.186213 -0.11569,0.455474 -0.316576,0.455474 -0.07465,0 -0.13571,-0.0596 -0.13571,-0.132502 z m 41.966735,-0.01594 c -0.10899,-0.131353 -0.10475,-0.182441 0.0261,-0.31325 0.21127,-0.211262 0.48981,-0.09386 0.4494,0.189372 -0.0385,0.269825 -0.29816,0.337486 -0.47546,0.123878 z m -33.63664,-0.760071 c -0.0844,-0.120412 -0.15336,-0.287884 -0.15336,-0.372129 0,-0.262182 0.29612,-0.591094 0.53215,-0.591094 0.50911,0 0.74768,0.738051 0.33257,1.028826 -0.30363,0.212648 -0.53116,0.191678 -0.71136,-0.06564 z m 9.326,-0.624004 c -0.39152,-0.274231 -0.18315,-1.028826 0.28408,-1.028826 0.24103,0 0.55468,0.27727 0.62341,0.551115 0.12842,0.511641 -0.43537,0.808406 -0.90749,0.477711 z m 21.21695,-0.0069 c -0.0836,-0.217757 0.16944,-0.478186 0.38441,-0.395693 0.1,0.03832 0.15022,0.147551 0.13078,0.284389 -0.0393,0.276627 -0.42016,0.358922 -0.51519,0.111304 z M 83.879547,95.118429 c -0.06502,-0.06505 -0.118212,-0.265469 -0.118212,-0.445435 0,-0.436623 0.373917,-0.636905 0.771967,-0.413485 0.351333,0.197203 0.375765,0.429445 0.07664,0.728547 -0.268996,0.268983 -0.542917,0.317873 -0.73042,0.130373 z m 75.954983,-0.197035 c -0.20561,-0.205619 -0.13309,-0.374357 0.16089,-0.374357 0.3533,0 0.42911,0.07663 0.30504,0.308487 -0.11302,0.211203 -0.2949,0.236915 -0.46593,0.06584 z m 18.27324,-0.256607 c -0.42483,-0.443425 -0.29991,-0.807347 0.27711,-0.807347 0.16797,0 0.3586,0.05317 0.42362,0.118215 0.25614,0.256132 0.0645,0.965442 -0.26089,0.965442 -0.0963,0 -0.29425,-0.124344 -0.43984,-0.27631 z m -45.13775,-0.116176 c -0.15211,-0.479226 0.5244,-1.089904 0.88025,-0.794574 0.23412,0.194302 0.18526,0.556808 -0.10592,0.785852 -0.33303,0.261963 -0.69268,0.266023 -0.77433,0.0089 z M 90.078108,94.175056 c -0.112337,-0.209906 0.02936,-0.514651 0.239361,-0.514651 0.09763,0 0.142876,0.109235 0.142876,0.344804 0,0.380238 -0.217835,0.477047 -0.382237,0.169847 z m 21.557432,-0.991877 c -0.25765,-0.208628 -0.30971,-0.766783 -0.0849,-0.909145 0.24181,-0.153066 0.54089,-0.09948 0.76273,0.13665 0.27437,0.292062 0.2696,0.415158 -0.0276,0.712358 -0.28979,0.289795 -0.35883,0.296181 -0.65033,0.0601 z m 26.44687,0.106285 c -0.43169,-0.28825 -0.34288,-0.899453 0.16102,-1.108181 0.64413,-0.266805 0.93095,0.362922 0.40491,0.888969 -0.3081,0.308101 -0.38702,0.338674 -0.56593,0.219212 z M 94.719686,92.967502 c -0.453139,-0.182045 -0.546265,-0.979501 -0.195601,-1.674903 0.409685,-0.812432 1.405987,-0.893845 1.858441,-0.15187 0.390208,0.639911 0.147709,1.427476 -0.535026,1.737438 -0.447267,0.203074 -0.779258,0.229361 -1.127814,0.0893 z m 9.251074,-0.02901 c -0.16741,-0.201698 -0.03,-0.476324 0.22032,-0.440612 0.14907,0.02129 0.20912,0.100175 0.20912,0.274785 0,0.281032 -0.25282,0.378654 -0.42944,0.165827 z m 35.94405,-0.03901 c 0,-0.19246 0.17469,-0.420979 0.32179,-0.420979 0.047,0 0.0713,0.121531 0.0542,0.270072 -0.0363,0.314963 -0.37598,0.451286 -0.37598,0.150907 z m 4.88647,-0.04713 c -0.1847,-0.281904 -0.11311,-0.59554 0.12556,-0.550086 0.18821,0.03584 0.26185,0.395298 0.12945,0.631896 -0.0826,0.147501 -0.11066,0.138482 -0.25501,-0.08178 z M 86.849292,92.523483 c -0.03212,-0.08366 -0.03093,-0.179471 0.003,-0.213025 0.08404,-0.08406 0.554422,0.140254 0.554422,0.26442 0,0.161332 -0.49292,0.115858 -0.557093,-0.05138 z m 104.854398,0.01901 c -0.0302,-0.07891 -9.8e-4,-0.216618 0.064,-0.306111 0.1636,-0.223727 0.47839,-0.09416 0.43916,0.180718 -0.0349,0.2454 -0.42022,0.341398 -0.50311,0.125393 z m -56.02501,-0.792347 c 0,-0.242736 0.26558,-0.424712 0.40961,-0.280686 0.0903,0.09029 -0.1709,0.516433 -0.31668,0.516433 -0.0511,0 -0.0929,-0.106096 -0.0929,-0.235747 z m 28.88522,-0.6549 c -0.16558,-0.265143 -0.0665,-0.421654 0.18265,-0.288344 0.2114,0.113144 0.26289,0.489384 0.067,0.489384 -0.0683,0 -0.18057,-0.09043 -0.24961,-0.20104 z m -55.45667,-0.493678 c -0.39569,-0.153556 -0.41335,-0.872094 -0.0265,-1.079113 0.41492,-0.222062 0.97293,0.373499 0.72226,0.770889 -0.1695,0.268719 -0.46276,0.39864 -0.69573,0.308224 z m 49.21935,-0.03054 c -0.29093,-0.144492 -0.35165,-0.488378 -0.14259,-0.807467 0.29823,-0.45514 0.94123,-0.175308 0.94123,0.409614 0,0.366979 -0.42975,0.581071 -0.79864,0.397853 z M 89.904997,90.459282 c -0.03409,-0.08866 -0.01636,-0.206813 0.03921,-0.262434 0.160589,-0.160589 0.466862,-0.05232 0.466862,0.164983 0,0.250583 -0.41655,0.330794 -0.5061,0.09743 z m 4.827121,-0.29583 c -0.07803,-0.203384 0.02778,-0.443317 0.195503,-0.443317 0.07634,0 0.193995,0.06649 0.261439,0.147773 0.09782,0.117892 0.09782,0.177641 0,0.295544 -0.06752,0.08127 -0.185104,0.147772 -0.261439,0.147772 -0.07633,0 -0.164313,-0.06649 -0.195503,-0.147772 z m 57.268152,-0.03005 c -0.21078,-0.232909 -0.21249,-0.437022 -0.003,-0.395853 0.23176,0.04561 0.40273,0.344053 0.272,0.474783 -0.0724,0.0724 -0.15325,0.04866 -0.2687,-0.07891 z m -4.32251,-0.762033 c -0.15416,-0.338339 9.9e-4,-0.773834 0.29053,-0.815358 0.26401,-0.03783 0.71435,0.380494 0.71435,0.663606 0,0.43645 -0.81883,0.560107 -1.00488,0.151752 z M 85.884506,89.169336 c -0.119636,-0.119636 -0.135714,-0.195365 -0.05803,-0.273102 0.130473,-0.130465 0.446942,0.03616 0.446942,0.235341 0,0.200527 -0.206172,0.220545 -0.388956,0.03773 z m 2.006158,-1.195045 c -0.115893,-0.304824 0.0079,-0.685407 0.254493,-0.779883 0.195415,-0.07497 0.628781,0.212979 0.733345,0.487294 0.116041,0.304411 -0.137162,0.560717 -0.55393,0.560717 -0.27067,0 -0.350791,-0.04955 -0.433908,-0.268128 z m 52.574896,0.108071 c -0.0364,-0.09517 -0.006,-0.229648 0.0685,-0.304371 0.1884,-0.188401 0.48189,-0.05251 0.44501,0.206043 -0.0378,0.264888 -0.42139,0.33834 -0.5135,0.09831 z m 10.24555,0 c -0.0836,-0.217758 0.16945,-0.478181 0.38442,-0.395695 0.1,0.03833 0.15021,0.147566 0.13077,0.284393 -0.0393,0.27664 -0.42016,0.358929 -0.51519,0.111302 z m -48.49006,-0.672599 c -0.10051,-0.261921 0.0565,-0.357056 0.31249,-0.189325 0.13264,0.08689 0.24117,0.197236 0.24117,0.245193 0,0.146699 -0.4951,0.09674 -0.55366,-0.05586 z m 62.55794,-0.292983 c -0.0897,-0.233568 0.0372,-0.469462 0.23219,-0.431899 0.10906,0.02098 0.1727,0.123016 0.1727,0.276847 0,0.280826 -0.31094,0.399902 -0.40489,0.155052 z m -17.14732,-0.408985 c -0.0328,-0.08551 0.0129,-0.227972 0.10161,-0.316655 0.14931,-0.149309 0.17318,-0.149309 0.32248,0 0.20141,0.201413 0.10897,0.472073 -0.16124,0.472073 -0.11176,0 -0.23005,-0.06995 -0.26285,-0.155418 z m 40.00008,-1.371277 c -0.034,-0.08876 -0.0163,-0.206813 0.0392,-0.262434 0.16059,-0.160589 0.46686,-0.05241 0.46686,0.164983 0,0.250582 -0.41654,0.330793 -0.5061,0.09743 z m -36.72848,-0.763264 c -0.1611,-0.230002 -0.0714,-0.337256 0.19624,-0.234554 0.15764,0.06048 0.20239,0.4557 0.0516,0.4557 -0.0511,0 -0.16263,-0.09952 -0.24783,-0.221146 z M 96.022238,84.273946 c -0.313547,-0.269714 -0.444019,-1.023274 -0.24239,-1.400015 0.281151,-0.52533 1.477072,-0.650818 1.925814,-0.202084 0.86283,0.862833 -0.754001,2.401547 -1.683424,1.602099 z m 59.721602,0.04709 c -0.21079,-0.232909 -0.21249,-0.437022 -0.003,-0.395852 0.23176,0.04561 0.40274,0.344053 0.27201,0.474782 -0.0724,0.07241 -0.15325,0.04866 -0.26871,-0.07891 z m -9.01656,-0.894525 c -0.19436,-0.123163 -0.0959,-0.449789 0.14592,-0.484466 0.24704,-0.03537 0.38696,0.238622 0.22284,0.436381 -0.12986,0.156471 -0.18615,0.163811 -0.36876,0.04808 z m 47.49387,0.02197 c -0.16562,-0.06679 -0.15773,-0.427329 0.01,-0.427329 0.0729,0 0.20778,0.08315 0.2998,0.184864 0.1532,0.169278 0.1538,0.190025 0.007,0.246287 -0.0881,0.03379 -0.16754,0.05793 -0.17666,0.05369 -0.009,-0.004 -0.072,-0.03015 -0.13971,-0.05743 z m -107.597654,-0.4703 c -0.261921,-0.315592 0.49887,-0.909548 0.868428,-0.677989 0.232673,0.145792 0.262582,0.53738 0.0528,0.690797 -0.234348,0.171366 -0.774584,0.163849 -0.921193,-0.01281 z m 63.995454,-0.03871 c -0.20435,-0.225806 -0.20773,-0.500297 -0.01,-0.783074 0.18021,-0.257272 0.40773,-0.278246 0.71135,-0.06561 0.27336,0.191474 0.28335,0.570372 0.0219,0.831791 -0.24542,0.24542 -0.51114,0.251617 -0.72358,0.01685 z m 31.0876,0.05704 c -0.27193,-0.330833 -0.12957,-0.929626 0.24325,-1.023196 0.20872,-0.05241 0.3081,-0.01172 0.49107,0.20102 0.28011,0.32565 0.28138,0.360101 0.0252,0.685742 -0.21706,0.27595 -0.58984,0.342911 -0.75955,0.136434 z m -44.58299,-0.632143 c -0.1262,-0.126207 -0.0642,-0.406355 0.10412,-0.47098 0.19878,-0.07625 0.43506,0.189139 0.35472,0.398464 -0.0548,0.142738 -0.34305,0.188301 -0.45884,0.0725 z m 25.90941,-0.689604 c -0.12973,-0.129725 -0.0622,-0.32838 0.11165,-0.32838 0.18273,0 0.41377,0.176026 0.41377,0.315248 0,0.09507 -0.43266,0.105883 -0.52542,0.0131 z m -29.39041,-0.779341 c -0.0328,-0.08551 0.004,-0.218901 0.0815,-0.296501 0.11972,-0.119735 0.16896,-0.12073 0.32502,-0.0069 0.22939,0.167731 0.1383,0.458527 -0.14364,0.458527 -0.11176,0 -0.23005,-0.06995 -0.26284,-0.155417 z m 37.16374,-0.294915 c -0.20528,-0.205285 -0.17231,-0.8179 0.0515,-0.958038 0.23809,-0.149033 0.67293,0.004 0.7992,0.281014 0.0937,0.205669 0.0793,0.290738 -0.0871,0.514485 -0.24034,0.323118 -0.53942,0.386779 -0.76365,0.162539 z m -30.37699,-0.688176 c -0.27179,-0.19037 -0.2803,-0.4749 -0.022,-0.733275 0.28669,-0.286689 0.72809,-0.259371 0.87082,0.05389 0.15341,0.336694 0.14405,0.493393 -0.0405,0.677931 -0.19716,0.197157 -0.52816,0.197758 -0.80842,9.85e-4 z m 11.05457,-0.282481 c -0.23804,-0.174066 -0.11423,-0.474635 0.17839,-0.433082 0.13823,0.0196 0.23337,0.110515 0.25195,0.240663 0.0368,0.25805 -0.19738,0.362761 -0.43034,0.192419 z m 15.32203,-0.405704 c -0.19273,-0.232229 0.0146,-0.371066 0.2784,-0.186361 0.1197,0.08384 0.21765,0.194272 0.21765,0.245381 0,0.149457 -0.35841,0.106819 -0.49605,-0.05901 z m -29.68235,-0.603335 c -0.0899,-0.08985 -0.0833,-0.427644 0.008,-0.423761 0.13354,0.0059 0.4187,0.262532 0.4187,0.377154 0,0.120522 -0.31825,0.155269 -0.4269,0.0466 z m 4.70333,-0.06995 c -0.0714,-0.186214 0.11568,-0.455474 0.31657,-0.455474 0.19784,0 0.16593,0.237667 -0.0593,0.441455 -0.17854,0.161584 -0.20022,0.162766 -0.2573,0.01399 z m -9.1365,-0.915214 c -0.12057,-0.120562 -0.0676,-0.432352 0.0834,-0.490259 0.2387,-0.09162 0.45702,0.146896 0.33801,0.369254 -0.10014,0.187119 -0.29833,0.244031 -0.42136,0.121005 z m 24.88051,-0.08768 c -0.27955,-0.195799 -0.27857,-0.448233 0.003,-0.701416 0.35187,-0.316726 0.54313,-0.344763 0.71154,-0.104327 0.24237,0.346023 0.19449,0.75022 -0.10223,0.863029 -0.32999,0.125459 -0.35437,0.123173 -0.61201,-0.05724 z m -8.56002,-1.775317 c -0.0328,-0.08551 0.0129,-0.227973 0.10161,-0.316657 0.14931,-0.149309 0.17317,-0.149309 0.32248,0 0.20141,0.201414 0.10897,0.472064 -0.16124,0.472064 -0.11176,0 -0.23006,-0.06995 -0.26285,-0.155407 z m 2.56486,-3.294682 c -0.62363,-0.441554 -0.64939,-0.779765 -0.0826,-1.083152 0.24919,-0.13336 0.27835,-0.12538 0.50514,0.138276 0.19321,0.224613 0.23486,0.368396 0.21112,0.728822 -0.0162,0.246958 -0.0739,0.461453 -0.12809,0.476675 -0.0542,0.01517 -0.28173,-0.102072 -0.50566,-0.260621 z m 16.53626,-0.0528 c -0.27865,-0.195168 -0.28966,-0.662571 -0.0219,-0.930305 0.26923,-0.269232 0.36508,-0.249302 0.59217,0.123144 0.24271,0.398088 0.24649,0.588695 0.0157,0.797477 -0.22323,0.202015 -0.30942,0.203434 -0.58604,0.0099 z m -25.73084,-1.120863 c -0.23347,-0.436243 0.003,-0.991621 0.42297,-0.991621 0.22631,0 0.5587,0.351659 0.5587,0.59109 0,0.481136 -0.77033,0.795438 -0.98167,0.400531 z m 15.52153,-2.333857 c -0.0836,-0.217757 0.16946,-0.478181 0.38442,-0.395694 0.10001,0.03833 0.15021,0.147564 0.13078,0.284392 -0.0393,0.27664 -0.42017,0.35892 -0.5152,0.111302 z m -16.9931,-0.22805 c -0.0702,-0.04335 -0.11147,-0.162175 -0.0918,-0.26405 0.0463,-0.240267 0.50911,-0.256512 0.55477,-0.0195 0.0382,0.19829 -0.28276,0.394857 -0.46291,0.283516 z m 19.3913,-0.26936 c -0.12178,-0.32031 -0.0342,-0.783587 0.16253,-0.85905 0.19638,-0.07536 0.53358,0.281911 0.53358,0.565358 0,0.239559 -0.27253,0.557102 -0.47814,0.557102 -0.0648,0 -0.16289,-0.118533 -0.21797,-0.26341 z m 2.12457,-1.910115 c -6.37137,-0.629421 -11.71187,-5.427539 -13.00405,-11.683377 -1.00739,-4.877127 0.48865,-9.841027 4.03464,-13.38702 5.79435,-5.794351 15.00141,-5.794351 20.79577,0 5.79435,5.79435 5.79435,15.001403 0,20.795748 -3.15998,3.159974 -7.44214,4.70776 -11.82636,4.274649 z m -18.21793,-0.355086 c -0.0347,-0.09033 -0.0265,-0.200754 0.0181,-0.245371 0.0904,-0.09033 0.51644,0.170903 0.51644,0.316696 0,0.16245 -0.46883,0.09989 -0.53452,-0.07133 z m 4.77065,-0.02069 c 0,-0.260345 0.26961,-0.471462 0.41561,-0.325463 0.0833,0.08325 0.0658,0.16247 -0.0686,0.31108 -0.22539,0.249046 -0.34691,0.25409 -0.34691,0.01439 z m -9.16249,-0.948668 c -0.10899,-0.131351 -0.10475,-0.182431 0.0261,-0.313238 0.21127,-0.211265 0.48981,-0.09389 0.4494,0.189365 -0.0385,0.269832 -0.29816,0.337482 -0.47546,0.123873 z m 4.87096,-3.70353 c -0.0368,-0.0597 0.0254,-0.200763 0.13812,-0.313592 0.18623,-0.186232 0.21105,-0.18974 0.26926,-0.03803 0.10887,0.283703 -0.25516,0.597955 -0.40738,0.351659 z m -10.2852,-3.037543 c -0.29691,-0.554786 0.0876,-1.037234 0.66548,-0.834865 0.36185,0.12673 0.39671,0.461297 0.081,0.777037 -0.29638,0.296373 -0.60595,0.32036 -0.74645,0.05783 z m 10.49884,-2.132778 c -0.0723,-0.188311 0.0962,-0.435082 0.29713,-0.435082 0.19429,0 0.1674,0.236318 -0.0492,0.432304 -0.17218,0.155811 -0.1892,0.155998 -0.24799,0.003 z m -31.00392,-2.342467 c -0.31955,-0.158708 -0.35438,-0.495748 -0.0717,-0.693743 0.42319,-0.296411 0.87033,-0.145526 0.87033,0.293673 0,0.369066 -0.4287,0.58381 -0.79864,0.40007 z m 2.52915,-1.167195 c -0.17037,-0.243233 -0.077,-0.413211 0.17405,-0.316873 0.17122,0.06571 0.23377,0.534522 0.0713,0.534522 -0.0511,0 -0.16153,-0.09793 -0.24537,-0.217649 z m 7.98212,-2.700825 c -0.0365,-0.09517 -0.006,-0.229648 0.0684,-0.304372 0.1884,-0.1884 0.4819,-0.05251 0.44501,0.206054 -0.0378,0.264877 -0.42139,0.33833 -0.51349,0.09831 z m 7.3862,-2.421949 c -0.17037,-0.243234 -0.077,-0.413211 0.17406,-0.316874 0.17121,0.06571 0.23376,0.534523 0.0713,0.534523 -0.0511,0 -0.16153,-0.09793 -0.24537,-0.217649 z m -19.1128,-0.690905 c -0.0844,-0.120425 -0.15337,-0.28789 -0.15337,-0.37214 0,-0.262178 0.29612,-0.591089 0.53216,-0.591089 0.49429,0 0.71798,0.621648 0.35448,0.985148 -0.25838,0.258376 -0.5429,0.249874 -0.73327,-0.02187 z m 7.69499,-1.225939 c -0.12479,-0.124799 -0.0651,-0.406029 0.0996,-0.469236 0.21353,-0.08197 0.45158,0.156136 0.36966,0.369657 -0.0633,0.164687 -0.34444,0.224378 -0.46924,0.09958 z m -5.15283,-3.136054 c -0.078,-0.203374 0.0278,-0.443317 0.19551,-0.443317 0.0763,0 0.19399,0.06649 0.26144,0.147772 0.0978,0.117893 0.0978,0.177652 0,0.295545 -0.0675,0.08128 -0.18509,0.147772 -0.26144,0.147772 -0.0763,0 -0.16432,-0.06649 -0.19551,-0.147772 z m -7.12476,-4.526956 c -0.28668,-0.345413 0.0964,-0.751737 0.55637,-0.589996 0.49928,0.175583 0.37286,0.73304 -0.16625,0.73304 -0.14928,0 -0.32484,-0.06433 -0.39012,-0.143044 z m 10.63567,-2.982509 c 0,-0.192459 0.17469,-0.420984 0.32179,-0.420984 0.047,0 0.0713,0.121529 0.0542,0.27007 -0.0363,0.314971 -0.37598,0.451296 -0.37598,0.150914 z M 98.902038,32.861889 c -0.220559,-0.12343 -0.213212,-0.378899 0.01079,-0.378899 0.17655,0 0.413762,0.174687 0.413762,0.304706 0,0.124238 -0.255449,0.168875 -0.424643,0.07419 z m 7.956852,-0.519213 c -0.18473,-0.28194 -0.14373,-0.411202 0.10068,-0.317415 0.20363,0.07813 0.30074,0.346181 0.17204,0.474881 -0.0709,0.07093 -0.15485,0.02237 -0.27272,-0.157466 z"
         id="path1060" /><circle
         style="fill:none;stroke:#f1f5f9;stroke-width:4;stroke-dasharray:none;stroke-opacity:1"
         id="circle1062"
         cx="100"
         cy="100"
         r="98.514885" /><path
         style="fill:none;fill-opacity:1;stroke:#f1f5f9;stroke-width:3;stroke-dasharray:none;stroke-opacity:1"
         d="m 102.58676,142.7772 c -0.31003,-0.15193 -1.45748,-2.0251 -3.937894,-4.10142 -2.717725,-2.27495 -7.084106,-5.13124 -7.910077,-8.87202 -0.937121,-4.24414 -5.237762,-9.22076 -8.440336,-15.46803 -2.716912,-5.2999 -4.521198,-11.83652 -4.09474,-16.235533 0.358587,-3.698939 1.152533,-6.172492 1.775956,-9.091947 1.277315,-5.981587 6.105807,-10.776434 14.320087,-14.97202"
         id="path1133"
         sodipodi:nodetypes="csssssc" /></g></g></svg>
